solid SAV_SMARTCUBE55
facet normal 0.9999999863941871 0.00013379307039024121 -9.649372955294605e-05
  outer loop
    vertex 201.0693781852363 121.14671739142975 304.6016929774966
    vertex 201.07007962237216 117.247054925086 308.3515754187746
    vertex 201.07008209280528 117.2466550236281 304.6013752720042
  endloop
endfacet
facet normal 0.9999999863941871 0.00013379307039024121 -9.649372955294605e-05
  outer loop
    vertex 201.07007962237216 117.247054925086 308.3515754187746
    vertex 201.0693781852363 121.14671739142975 304.6016929774966
    vertex 201.06992113315144 121.14664483481887 308.32925583918774
  endloop
endfacet
facet normal 0.25882304618263363 -5.8773304740308115e-06 -0.9659247541761208
  outer loop
    vertex 182.73995358449073 117.24756454839893 308.4420692073276
    vertex 183.14111047619375 114.25806114638077 308.4949007038335
    vertex 182.7399411790125 114.25806254846161 308.442084073359
  endloop
endfacet
facet normal 4.1422275408968904e-06 -4.972762216260568e-06 -0.9999999999790569
  outer loop
    vertex 183.14111047619375 114.25806114638077 308.4949007038335
    vertex 182.73995358449073 117.24756454839893 308.4420692073276
    vertex 183.14112288167198 117.2475631463182 308.4948858378023
  endloop
endfacet
facet normal -0.4999964127171405 -2.2317084396854084e-06 -0.8660274748903817
  outer loop
    vertex 183.9161237342072 117.24755889768488 308.28722842595914
    vertex 184.237127856732 114.25805434073237 308.04092075911933
    vertex 183.91611132872896 114.25805689774747 308.28724329199036
  endloop
endfacet
facet normal -0.7071038521772167 -5.820212059891296e-07 -0.7071097101835062
  outer loop
    vertex 184.237127856732 114.25805434073237 308.04092075911933
    vertex 183.9161237342072 117.24755889768488 308.28722842595914
    vertex 184.23714026221026 117.24755634066979 308.0409058930883
  endloop
endfacet
facet normal -0.2588150440135165 -3.7293084313905447e-06 -0.965926898361555
  outer loop
    vertex 183.54229261639657 117.24756121896479 308.4420725308149
    vertex 183.91611132872896 114.25805689774747 308.28724329199036
    vertex 183.54228021091825 114.25805921902752 308.4420873968462
  endloop
endfacet
facet normal -0.49999641271712797 -2.2317084396854953e-06 -0.8660274748903887
  outer loop
    vertex 183.91611132872896 114.25805689774747 308.28724329199036
    vertex 183.54229261639657 117.24756121896479 308.4420725308149
    vertex 183.9161237342072 117.24755889768488 308.28722842595914
  endloop
endfacet
facet normal 0.5000035872656776 -6.381368372797115e-06 -0.8660233326422171
  outer loop
    vertex 182.36612374949192 117.24756532965775 308.2872220054745
    vertex 182.7399411790125 114.25806254846161 308.442084073359
    vertex 182.36611134401372 114.25806332972026 308.28723687150574
  endloop
endfacet
facet normal 0.2588230461826305 -5.877330474030804e-06 -0.9659247541761217
  outer loop
    vertex 182.7399411790125 114.25806254846161 308.442084073359
    vertex 182.36612374949192 117.24756532965775 308.2872220054745
    vertex 182.73995358449073 117.24756454839893 308.4420692073276
  endloop
endfacet
facet normal 4.1422275381967646e-06 -4.972762216260557e-06 -0.9999999999790569
  outer loop
    vertex 183.14112288167198 117.2475631463182 308.4948858378023
    vertex 183.54228021091825 114.25805921902752 308.4420873968462
    vertex 183.14111047619375 114.25806114638077 308.4949007038335
  endloop
endfacet
facet normal -0.2588150440135121 -3.729308431390568e-06 -0.9659268983615561
  outer loop
    vertex 183.54228021091825 114.25805921902752 308.4420873968462
    vertex 183.14112288167198 117.2475631463182 308.4948858378023
    vertex 183.54229261639657 117.24756121896479 308.4420725308149
  endloop
endfacet
facet normal 0.9999999999828109 -4.149659935176437e-06 4.142267794522497e-06
  outer loop
    vertex 181.59112931740918 117.24756187050954 306.94487943260805
    vertex 181.60781463413454 114.25806043200453 307.07173015006566
    vertex 181.59111691193084 114.25805987057231 306.94489429863927
  endloop
endfacet
facet normal 0.991445402031103 -4.763234738275335e-06 -0.13052208536755877
  outer loop
    vertex 181.60781463413454 114.25806043200453 307.07173015006566
    vertex 181.59112931740918 117.24756187050954 306.94487943260805
    vertex 181.6439302189266 114.2580616463286 307.3460640333635
  endloop
endfacet
facet normal 0.9659268983649404 -5.295309270183057e-06 -0.2588150439735796
  outer loop
    vertex 181.6439302189266 114.2580616463286 307.3460640333635
    vertex 181.59112931740918 117.24756187050954 306.94487943260805
    vertex 181.64394262440487 117.24756364626613 307.3460491673322
  endloop
endfacet
facet normal 0.9659268983649447 -5.295309270182998e-06 -0.2588150439735638
  outer loop
    vertex 181.64394262440487 117.24756364626613 307.3460491673322
    vertex 181.59112931740918 117.24756187050954 306.94487943260805
    vertex 181.60782703961277 117.24756243194197 307.0717152840344
  endloop
endfacet
facet normal 0.7071097101715808 -6.450526562636642e-06 -0.7071038521599595
  outer loop
    vertex 182.04510926214786 117.24756543685287 308.04089681315185
    vertex 182.36611134401372 114.25806332972026 308.28723687150574
    vertex 182.04509685666952 114.2580634369154 308.0409116791829
  endloop
endfacet
facet normal 0.5000035872656865 -6.381368372797127e-06 -0.8660233326422119
  outer loop
    vertex 182.36611134401372 114.25806332972026 308.28723687150574
    vertex 182.04510926214786 117.24756543685287 308.04089681315185
    vertex 182.36612374949192 117.24756532965775 308.2872220054745
  endloop
endfacet
facet normal 0.8660274748833223 -6.080092027255784e-06 -0.4999964126973805
  outer loop
    vertex 181.79878672926927 117.24756486267954 307.7198802851447
    vertex 182.04509685666952 114.2580634369154 308.0409116791829
    vertex 181.79877432379106 114.25806286274221 307.719895151176
  endloop
endfacet
facet normal 0.7071097101715584 -6.4505265626366595e-06 -0.7071038521599818
  outer loop
    vertex 182.04509685666952 114.2580634369154 308.0409116791829
    vertex 181.79878672926927 117.24756486267954 307.7198802851447
    vertex 182.04510926214786 117.24756543685287 308.04089681315185
  endloop
endfacet
facet normal 0.9659268983649447 -5.295309270182998e-06 -0.2588150439735638
  outer loop
    vertex 181.64394262440487 117.24756364626613 307.3460491673322
    vertex 181.79877432379106 114.25806286274221 307.719895151176
    vertex 181.6439302189266 114.2580616463286 307.3460640333635
  endloop
endfacet
facet normal 0.8660274748833194 -6.080092027255798e-06 -0.49999641269738554
  outer loop
    vertex 181.79877432379106 114.25806286274221 307.719895151176
    vertex 181.64394262440487 117.24756364626613 307.3460491673322
    vertex 181.79878672926927 117.24756486267954 307.7198802851447
  endloop
endfacet
facet normal -0.866039360474996 1.10753437796858e-06 -0.4999758255224281
  outer loop
    vertex 206.48347787454674 114.25428440364246 307.7192492158839
    vertex 206.6383255150712 117.24748454056905 307.3453995291401
    vertex 206.63831309423662 114.25428190214025 307.3454144135736
  endloop
endfacet
facet normal -0.9659330505975812 2.721406540730857e-06 -0.25879208209650617
  outer loop
    vertex 206.6383255150712 117.24748454056905 307.3453995291401
    vertex 206.48347787454674 114.25428440364246 307.7192492158839
    vertex 206.4834902953813 117.24748704207103 307.71923433145014
  endloop
endfacet
facet normal -0.9659330505975899 2.7214065407310554e-06 -0.2587920820964736
  outer loop
    vertex 206.63831309423662 114.25428190214025 307.3454144135736
    vertex 206.69112928602797 117.24748232652925 306.94422853511253
    vertex 206.6911168651935 114.25427968810052 306.9442434195461
  endloop
endfacet
facet normal -0.9999999996017931 4.149819345253099e-06 2.7914030508304922e-05
  outer loop
    vertex 206.69112928602797 117.24748232652925 306.94422853511253
    vertex 206.63831309423662 114.25428190214025 307.3454144135736
    vertex 206.6383255150712 117.24748454056905 307.3453995291401
  endloop
endfacet
facet normal -2.7914070806187737e-05 -4.9726291919953875e-06 -0.9999999995980386
  outer loop
    vertex 205.14117255345528 117.24749646632438 308.4942718012676
    vertex 205.54232817808858 114.25429190048551 308.4414605182042
    vertex 205.1411601326207 114.25429382789588 308.49428668570107
  endloop
endfacet
facet normal -0.25884600792137047 -3.7291386808313037e-06 -0.9659186012129921
  outer loop
    vertex 205.54232817808858 114.25429190048551 308.4414605182042
    vertex 205.14117255345528 117.24749646632438 308.4942718012676
    vertex 205.54234059892335 117.24749453891411 308.44144563377074
  endloop
endfacet
facet normal -0.5000241740953516 -2.2315135313218672e-06 -0.8660114464112364
  outer loop
    vertex 205.91616675649277 117.24749221759522 308.2865895438279
    vertex 206.2371629704676 114.25428702213291 308.04027160249063
    vertex 205.91615433565812 114.25428957916667 308.2866044282613
  endloop
endfacet
facet normal -0.7071265191337269 -5.8181442235174e-07 -0.7070870426881548
  outer loop
    vertex 206.2371629704676 114.25428702213291 308.04027160249063
    vertex 205.91616675649277 117.24749221759522 308.2865895438279
    vertex 206.23717539130243 117.24748966056163 308.0402567180571
  endloop
endfacet
facet normal -0.7071265191337269 -5.8181442235174e-07 -0.7070870426881548
  outer loop
    vertex 206.2371629704676 114.25428702213291 308.04027160249063
    vertex 206.4834902953813 117.24748704207103 307.71923433145014
    vertex 206.48347787454674 114.25428440364246 307.7192492158839
  endloop
endfacet
facet normal -0.8660393604749845 1.1075343779684357e-06 -0.4999758255224476
  outer loop
    vertex 206.4834902953813 117.24748704207103 307.71923433145014
    vertex 206.2371629704676 114.25428702213291 308.04027160249063
    vertex 206.23717539130243 117.24748966056163 308.0402567180571
  endloop
endfacet
facet normal 0.49997582550644704 -6.381332876410741e-06 -0.8660393604614199
  outer loop
    vertex 204.3661667571102 117.24749864981514 308.28663281060557
    vertex 204.73998913859037 114.25429523004773 308.4414829147363
    vertex 204.36615433627543 114.25429601138654 308.2866476950393
  endloop
endfacet
facet normal 0.2587920820775517 -5.877243241341699e-06 -0.9659330505886128
  outer loop
    vertex 204.73998913859037 114.25429523004773 308.4414829147363
    vertex 204.3661667571102 117.24749864981514 308.28663281060557
    vertex 204.7400015594251 117.24749786847619 308.4414680303029
  endloop
endfacet
facet normal -0.2588460079213876 -3.7291386808312114e-06 -0.9659186012129877
  outer loop
    vertex 205.54234059892335 117.24749453891411 308.44144563377074
    vertex 205.91615433565812 114.25428957916667 308.2866044282613
    vertex 205.54232817808858 114.25429190048551 308.4414605182042
  endloop
endfacet
facet normal -0.5000241740953484 -2.2315135313218892e-06 -0.8660114464112383
  outer loop
    vertex 205.91615433565812 114.25428957916667 308.2866044282613
    vertex 205.54234059892335 117.24749453891411 308.44144563377074
    vertex 205.91616675649277 117.24749221759522 308.2865895438279
  endloop
endfacet
facet normal 0.25879208207754917 -5.877243241341693e-06 -0.9659330505886136
  outer loop
    vertex 204.7400015594251 117.24749786847619 308.4414680303029
    vertex 205.1411601326207 114.25429382789588 308.49428668570107
    vertex 204.73998913859037 114.25429523004773 308.4414829147363
  endloop
endfacet
facet normal -2.791407083267276e-05 -4.972629191995277e-06 -0.9999999995980388
  outer loop
    vertex 205.1411601326207 114.25429382789588 308.49428668570107
    vertex 204.7400015594251 117.24749786847619 308.4414680303029
    vertex 205.14117255345528 117.24749646632438 308.4942718012676
  endloop
endfacet
facet normal 0.25884600792136825 3.729138680831308e-06 0.9659186012129927
  outer loop
    vertex 204.7399055535322 114.25428034015563 305.44711285444384
    vertex 204.36609181679754 117.24748529990332 305.6019540599532
    vertex 204.36607939596286 114.2542826614747 305.60196894438695
  endloop
endfacet
facet normal 0.5000241740953361 2.231513531321977e-06 0.8660114464112456
  outer loop
    vertex 204.36609181679754 117.24748529990332 305.6019540599532
    vertex 204.7399055535322 114.25428034015563 305.44711285444384
    vertex 204.73991797436676 117.24748297858424 305.44709797001025
  endloop
endfacet
facet normal -0.9659186012163644 5.2954288191262754e-06 0.2588460078814821
  outer loop
    vertex 206.63829069768778 114.25427791240597 306.5430753740782
    vertex 206.48344702857156 117.24747933449561 306.16923433207336
    vertex 206.48343460773708 114.25427669606695 306.1692492165067
  endloop
endfacet
facet normal -0.8660114464041722 6.080163569837859e-06 0.5000241740755991
  outer loop
    vertex 206.48344702857156 117.24747933449561 306.16923433207336
    vertex 206.63829069768778 114.25427791240597 306.5430753740782
    vertex 206.63830311852269 117.24748055083447 306.54306048964486
  endloop
endfacet
facet normal 0.5000241740953558 2.231513531321837e-06 0.866011446411234
  outer loop
    vertex 204.36607939596286 114.2542826614747 305.60196894438695
    vertex 204.04508318198796 117.24748785693676 305.8482868857239
    vertex 204.0450707611532 114.25428521850812 305.84830177015755
  endloop
endfacet
facet normal 0.7071265191337187 5.818144223518152e-07 0.707087042688163
  outer loop
    vertex 204.04508318198796 117.24748785693676 305.8482868857239
    vertex 204.36607939596286 114.2542826614747 305.60196894438695
    vertex 204.36609181679754 117.24748529990332 305.6019540599532
  endloop
endfacet
facet normal -0.4999758255064564 6.381332876410761e-06 0.8660393604614146
  outer loop
    vertex 205.9160793953453 114.25427622925453 305.60192567760896
    vertex 205.54225701386508 117.24747964902222 305.44707557347823
    vertex 205.54224459303043 114.25427701059365 305.4470904579117
  endloop
endfacet
facet normal -0.25879208207753684 5.877243241285669e-06 0.9659330505886169
  outer loop
    vertex 205.54225701386508 117.24747964902222 305.44707557347823
    vertex 205.9160793953453 114.25427622925453 305.60192567760896
    vertex 205.91609181618003 117.24747886768313 305.6019107931754
  endloop
endfacet
facet normal -0.9914412174667756 4.763375419429561e-06 0.13055386737017127
  outer loop
    vertex 206.67442152338253 114.25427912690475 306.8174570571905
    vertex 206.63830311852269 117.24748055083447 306.54306048964486
    vertex 206.63829069768778 114.25427791240597 306.5430753740782
  endloop
endfacet
facet normal -0.9659186012163764 5.295428819126103e-06 0.25884600788143736
  outer loop
    vertex 206.63830311852269 117.24748055083447 306.54306048964486
    vertex 206.67442152338253 114.25427912690475 306.8174570571905
    vertex 206.6911168651935 114.25427968810052 306.9442434195461
  endloop
endfacet
facet normal -0.9659186012163764 5.295428819126103e-06 0.25884600788143736
  outer loop
    vertex 206.63830311852269 117.24748055083447 306.54306048964486
    vertex 206.6911168651935 114.25427968810052 306.9442434195461
    vertex 206.69112928602797 117.24748232652925 306.94422853511253
  endloop
endfacet
facet normal -0.9659186012163764 5.295428819126103e-06 0.25884600788143736
  outer loop
    vertex 206.63830311852269 117.24748055083447 306.54306048964486
    vertex 206.69112928602797 117.24748232652925 306.94422853511253
    vertex 206.6744339442171 117.24748176533335 306.8174421727572
  endloop
endfacet
facet normal 2.7914070824242142e-05 4.972629191911313e-06 0.9999999995980386
  outer loop
    vertex 205.14107359900055 114.25427841274539 305.39428668694705
    vertex 204.73991797436676 117.24748297858424 305.44709797001025
    vertex 204.7399055535322 114.25428034015563 305.44711285444384
  endloop
endfacet
facet normal 0.2588460079213954 3.7291386808311593e-06 0.9659186012129855
  outer loop
    vertex 204.73991797436676 117.24748297858424 305.44709797001025
    vertex 205.14107359900055 114.25427841274539 305.39428668694705
    vertex 205.14108601983548 117.24748105117388 305.39427180251363
  endloop
endfacet
facet normal 1.650480517487149e-05 -0.9999999674341686 0.00025467479913870994
  outer loop
    vertex 217.14391775412332 114.24739739136976 299.20395207997575
    vertex 200.0910222029323 114.27048643134432 304.60132771359093
    vertex 200.0909131746592 114.2468274224264 299.20134804713285
  endloop
endfacet
facet normal 1.650480517487149e-05 -0.9999999674341686 0.00025467479913870994
  outer loop
    vertex 200.0910222029323 114.27048643134432 304.60132771359093
    vertex 217.14391775412332 114.24739739136976 299.20395207997575
    vertex 205.54224459303043 114.25427701059365 305.4470904579117
  endloop
endfacet
facet normal 1.650480517487149e-05 -0.9999999674341686 0.00025467479913870994
  outer loop
    vertex 205.54224459303043 114.25427701059365 305.4470904579117
    vertex 217.14391775412332 114.24739739136976 299.20395207997575
    vertex 205.9160793953453 114.25427622925453 305.60192567760896
  endloop
endfacet
facet normal 1.650480517487149e-05 -0.9999999674341686 0.00025467479913870994
  outer loop
    vertex 205.9160793953453 114.25427622925453 305.60192567760896
    vertex 217.14391775412332 114.24739739136976 299.20395207997575
    vertex 217.14425686335332 114.24739739136899 311.3539520752434
  endloop
endfacet
facet normal 1.650480517487149e-05 -0.9999999674341686 0.00025467479913870994
  outer loop
    vertex 200.0910222029323 114.27048643134432 304.60132771359093
    vertex 205.54224459303043 114.25427701059365 305.4470904579117
    vertex 205.14107359900055 114.25427841274539 305.39428668694705
  endloop
endfacet
facet normal 1.650480517487149e-05 -0.9999999674341686 0.00025467479913870994
  outer loop
    vertex 200.0910222029323 114.27048643134432 304.60132771359093
    vertex 205.14107359900055 114.25427841274539 305.39428668694705
    vertex 188.19102220758418 114.27065310518246 304.60165984156276
  endloop
endfacet
facet normal 1.650480517487149e-05 -0.9999999674341686 0.00025467479913870994
  outer loop
    vertex 205.9160793953453 114.25427622925453 305.60192567760896
    vertex 217.14425686335332 114.24739739136899 311.3539520752434
    vertex 206.23710178195847 114.2542761219755 305.84824058169346
  endloop
endfacet
facet normal 1.650480517487149e-05 -0.9999999674341686 0.00025467479913870994
  outer loop
    vertex 206.23710178195847 114.2542761219755 305.84824058169346
    vertex 217.14425686335332 114.24739739136899 311.3539520752434
    vertex 206.48343460773708 114.25427669606695 306.1692492165067
  endloop
endfacet
facet normal 1.650480517487149e-05 -0.9999999674341686 0.00025467479913870994
  outer loop
    vertex 206.48343460773708 114.25427669606695 306.1692492165067
    vertex 217.14425686335332 114.24739739136899 311.3539520752434
    vertex 206.63829069768778 114.25427791240597 306.5430753740782
  endloop
endfacet
facet normal 1.650480517487149e-05 -0.9999999674341686 0.00025467479913870994
  outer loop
    vertex 206.63829069768778 114.25427791240597 306.5430753740782
    vertex 217.14425686335332 114.24739739136899 311.3539520752434
    vertex 206.67442152338253 114.25427912690475 306.8174570571905
  endloop
endfacet
facet normal 1.650480517487149e-05 -0.9999999674341686 0.00025467479913870994
  outer loop
    vertex 206.67442152338253 114.25427912690475 306.8174570571905
    vertex 217.14425686335332 114.24739739136899 311.3539520752434
    vertex 206.6911168651935 114.25427968810052 306.9442434195461
  endloop
endfacet
facet normal 1.650480517487149e-05 -0.9999999674341686 0.00025467479913870994
  outer loop
    vertex 206.6911168651935 114.25427968810052 306.9442434195461
    vertex 217.14425686335332 114.24739739136899 311.3539520752434
    vertex 206.63831309423662 114.25428190214025 307.3454144135736
  endloop
endfacet
facet normal 1.650480517487149e-05 -0.9999999674341686 0.00025467479913870994
  outer loop
    vertex 206.63831309423662 114.25428190214025 307.3454144135736
    vertex 217.14425686335332 114.24739739136899 311.3539520752434
    vertex 206.48347787454674 114.25428440364246 307.7192492158839
  endloop
endfacet
facet normal 1.650480517487149e-05 -0.9999999674341686 0.00025467479913870994
  outer loop
    vertex 206.48347787454674 114.25428440364246 307.7192492158839
    vertex 217.14425686335332 114.24739739136899 311.3539520752434
    vertex 206.2371629704676 114.25428702213291 308.04027160249063
  endloop
endfacet
facet normal 1.650480517487149e-05 -0.9999999674341686 0.00025467479913870994
  outer loop
    vertex 206.2371629704676 114.25428702213291 308.04027160249063
    vertex 217.14425686335332 114.24739739136899 311.3539520752434
    vertex 205.91615433565812 114.25428957916667 308.2866044282613
  endloop
endfacet
facet normal 1.650480517487149e-05 -0.9999999674341686 0.00025467479913870994
  outer loop
    vertex 205.91615433565812 114.25428957916667 308.2866044282613
    vertex 217.14425686335332 114.24739739136899 311.3539520752434
    vertex 205.54232817808858 114.25429190048551 308.4414605182042
  endloop
endfacet
facet normal 1.650480517487149e-05 -0.9999999674341686 0.00025467479913870994
  outer loop
    vertex 205.54232817808858 114.25429190048551 308.4414605182042
    vertex 217.14425686335332 114.24739739136899 311.3539520752434
    vertex 205.1411601326207 114.25429382789588 308.49428668570107
  endloop
endfacet
facet normal 1.650480517487149e-05 -0.9999999674341686 0.00025467479913870994
  outer loop
    vertex 205.1411601326207 114.25429382789588 308.49428668570107
    vertex 217.14425686335332 114.24739739136899 311.3539520752434
    vertex 183.14111047619375 114.25806114638077 308.4949007038335
  endloop
endfacet
facet normal 1.650480517487149e-05 -0.9999999674341686 0.00025467479913870994
  outer loop
    vertex 183.14111047619375 114.25806114638077 308.4949007038335
    vertex 217.14425686335332 114.24739739136899 311.3539520752434
    vertex 168.1348793009923 114.24725066265854 311.35217668469977
  endloop
endfacet
facet normal 1.650480517487149e-05 -0.9999999674341686 0.00025467479913870994
  outer loop
    vertex 188.19102220758418 114.27065310518246 304.60165984156276
    vertex 168.13454019176243 114.24725066265962 299.20217668943206
    vertex 188.190913179311 114.24699409626477 299.2016801751043
  endloop
endfacet
facet normal 1.650480517487149e-05 -0.9999999674341686 0.00025467479913870994
  outer loop
    vertex 168.13454019176243 114.24725066265962 299.20217668943206
    vertex 188.19102220758418 114.27065310518246 304.60165984156276
    vertex 182.7399535823745 114.25804765817144 305.44771404140164
  endloop
endfacet
facet normal 1.650480517487149e-05 -0.9999999674341686 0.00025467479913870994
  outer loop
    vertex 168.13454019176243 114.24725066265962 299.20217668943206
    vertex 182.7399535823745 114.25804765817144 305.44771404140164
    vertex 168.1348793009923 114.24725066265854 311.35217668469977
  endloop
endfacet
facet normal 1.650480517487149e-05 -0.9999999674341686 0.00025467479913870994
  outer loop
    vertex 182.7399535823745 114.25804765817144 305.44771404140164
    vertex 188.19102220758418 114.27065310518246 304.60165984156276
    vertex 183.14112331709896 114.2580457308181 305.39490073441436
  endloop
endfacet
facet normal 1.650480517487149e-05 -0.9999999674341686 0.00025467479913870994
  outer loop
    vertex 183.14112331709896 114.2580457308181 305.39490073441436
    vertex 188.19102220758418 114.27065310518246 304.60165984156276
    vertex 205.14107359900055 114.25427841274539 305.39428668694705
  endloop
endfacet
facet normal 1.650480517487149e-05 -0.9999999674341686 0.00025467479913870994
  outer loop
    vertex 168.1348793009923 114.24725066265854 311.35217668469977
    vertex 182.7399535823745 114.25804765817144 305.44771404140164
    vertex 182.36612246456372 114.25804997945143 305.60255814625765
  endloop
endfacet
facet normal 1.650480517487149e-05 -0.9999999674341686 0.00025467479913870994
  outer loop
    vertex 168.1348793009923 114.24725066265854 311.35217668469977
    vertex 182.36612246456372 114.25804997945143 305.60255814625765
    vertex 182.04510593656073 114.25805253646651 305.8488806791286
  endloop
endfacet
facet normal 1.650480517487149e-05 -0.9999999674341686 0.00025467479913870994
  outer loop
    vertex 168.1348793009923 114.24725066265854 311.35217668469977
    vertex 182.04510593656073 114.25805253646651 305.8488806791286
    vertex 181.79878074424363 114.25805515496072 306.1698951664664
  endloop
endfacet
facet normal 1.650480517487149e-05 -0.9999999674341686 0.00025467479913870994
  outer loop
    vertex 168.1348793009923 114.24725066265854 311.35217668469977
    vertex 181.79878074424363 114.25805515496072 306.1698951664664
    vertex 181.6439335423974 114.25805765648754 306.5437250014606
  endloop
endfacet
facet normal 1.650480517487149e-05 -0.9999999674341686 0.00025467479913870994
  outer loop
    vertex 168.1348793009923 114.24725066265854 311.35217668469977
    vertex 181.6439335423974 114.25805765648754 306.5437250014606
    vertex 181.59111691193084 114.25805987057231 306.94489429863927
  endloop
endfacet
facet normal 1.650480517487149e-05 -0.9999999674341686 0.00025467479913870994
  outer loop
    vertex 168.1348793009923 114.24725066265854 311.35217668469977
    vertex 181.59111691193084 114.25805987057231 306.94489429863927
    vertex 181.60781463413454 114.25806043200453 307.07173015006566
  endloop
endfacet
facet normal 1.650480517487149e-05 -0.9999999674341686 0.00025467479913870994
  outer loop
    vertex 168.1348793009923 114.24725066265854 311.35217668469977
    vertex 181.60781463413454 114.25806043200453 307.07173015006566
    vertex 181.6439302189266 114.2580616463286 307.3460640333635
  endloop
endfacet
facet normal 1.650480517487149e-05 -0.9999999674341686 0.00025467479913870994
  outer loop
    vertex 168.1348793009923 114.24725066265854 311.35217668469977
    vertex 181.6439302189266 114.2580616463286 307.3460640333635
    vertex 181.79877432379106 114.25806286274221 307.719895151176
  endloop
endfacet
facet normal 1.650480517487149e-05 -0.9999999674341686 0.00025467479913870994
  outer loop
    vertex 168.1348793009923 114.24725066265854 311.35217668469977
    vertex 181.79877432379106 114.25806286274221 307.719895151176
    vertex 182.04509685666952 114.2580634369154 308.0409116791829
  endloop
endfacet
facet normal 1.650480517487149e-05 -0.9999999674341686 0.00025467479913870994
  outer loop
    vertex 168.1348793009923 114.24725066265854 311.35217668469977
    vertex 182.04509685666952 114.2580634369154 308.0409116791829
    vertex 182.36611134401372 114.25806332972026 308.28723687150574
  endloop
endfacet
facet normal 1.650480517487149e-05 -0.9999999674341686 0.00025467479913870994
  outer loop
    vertex 168.1348793009923 114.24725066265854 311.35217668469977
    vertex 182.36611134401372 114.25806332972026 308.28723687150574
    vertex 182.7399411790125 114.25806254846161 308.442084073359
  endloop
endfacet
facet normal 1.650480517487149e-05 -0.9999999674341686 0.00025467479913870994
  outer loop
    vertex 168.1348793009923 114.24725066265854 311.35217668469977
    vertex 182.7399411790125 114.25806254846161 308.442084073359
    vertex 183.14111047619375 114.25806114638077 308.4949007038335
  endloop
endfacet
facet normal 1.650480517487149e-05 -0.9999999674341686 0.00025467479913870994
  outer loop
    vertex 204.7399055535322 114.25428034015563 305.44711285444384
    vertex 183.14112331709896 114.2580457308181 305.39490073441436
    vertex 205.14107359900055 114.25427841274539 305.39428668694705
  endloop
endfacet
facet normal 1.650480517487149e-05 -0.9999999674341686 0.00025467479913870994
  outer loop
    vertex 183.14112331709896 114.2580457308181 305.39490073441436
    vertex 204.7399055535322 114.25428034015563 305.44711285444384
    vertex 183.54229261428017 114.25804432873728 305.44771736488894
  endloop
endfacet
facet normal 1.650480517487149e-05 -0.9999999674341686 0.00025467479913870994
  outer loop
    vertex 183.54229261428017 114.25804432873728 305.44771736488894
    vertex 204.7399055535322 114.25428034015563 305.44711285444384
    vertex 204.36607939596286 114.2542826614747 305.60196894438695
  endloop
endfacet
facet normal 1.650480517487149e-05 -0.9999999674341686 0.00025467479913870994
  outer loop
    vertex 183.54229261428017 114.25804432873728 305.44771736488894
    vertex 204.36607939596286 114.2542826614747 305.60196894438695
    vertex 183.9161224492791 114.25804354747856 305.6025645667423
  endloop
endfacet
facet normal 1.650480517487149e-05 -0.9999999674341686 0.00025467479913870994
  outer loop
    vertex 183.9161224492791 114.25804354747856 305.6025645667423
    vertex 204.36607939596286 114.2542826614747 305.60196894438695
    vertex 204.0450707611532 114.25428521850812 305.84830177015755
  endloop
endfacet
facet normal 1.650480517487149e-05 -0.9999999674341686 0.00025467479913870994
  outer loop
    vertex 183.9161224492791 114.25804354747856 305.6025645667423
    vertex 204.0450707611532 114.25428521850812 305.84830177015755
    vertex 184.23713693662327 114.25804344028329 305.84888975906495
  endloop
endfacet
facet normal 1.650480517487149e-05 -0.9999999674341686 0.00025467479913870994
  outer loop
    vertex 184.23713693662327 114.25804344028329 305.84888975906495
    vertex 204.0450707611532 114.25428521850812 305.84830177015755
    vertex 203.79875585707435 114.25428783699877 306.16932415676433
  endloop
endfacet
facet normal 1.650480517487149e-05 -0.9999999674341686 0.00025467479913870994
  outer loop
    vertex 184.23713693662327 114.25804344028329 305.84888975906495
    vertex 203.79875585707435 114.25428783699877 306.16932415676433
    vertex 184.48345946950164 114.25804401445684 306.16990628707197
  endloop
endfacet
facet normal 1.650480517487149e-05 -0.9999999674341686 0.00025467479913870994
  outer loop
    vertex 184.48345946950164 114.25804401445684 306.16990628707197
    vertex 203.79875585707435 114.25428783699877 306.16932415676433
    vertex 203.6439206373843 114.25429033850081 306.5431589590747
  endloop
endfacet
facet normal 1.650480517487149e-05 -0.9999999674341686 0.00025467479913870994
  outer loop
    vertex 184.48345946950164 114.25804401445684 306.16990628707197
    vertex 203.6439206373843 114.25429033850081 306.5431589590747
    vertex 184.638303574366 114.2580452308701 306.54373740488444
  endloop
endfacet
facet normal 1.650480517487149e-05 -0.9999999674341686 0.00025467479913870994
  outer loop
    vertex 184.638303574366 114.2580452308701 306.54373740488444
    vertex 203.6439206373843 114.25429033850081 306.5431589590747
    vertex 203.59111686642757 114.2542925525405 306.944329953102
  endloop
endfacet
facet normal 1.650480517487149e-05 -0.9999999674341686 0.00025467479913870994
  outer loop
    vertex 184.638303574366 114.2580452308701 306.54373740488444
    vertex 203.59111686642757 114.2542925525405 306.944329953102
    vertex 184.674419159158 114.25804644519461 306.81807128818247
  endloop
endfacet
facet normal 1.650480517487149e-05 -0.9999999674341686 0.00025467479913870994
  outer loop
    vertex 184.674419159158 114.25804644519461 306.81807128818247
    vertex 203.59111686642757 114.2542925525405 306.944329953102
    vertex 184.69111688136178 114.25804700662665 306.9449071396087
  endloop
endfacet
facet normal 1.650480517487149e-05 -0.9999999674341686 0.00025467479913870994
  outer loop
    vertex 184.69111688136178 114.25804700662665 306.9449071396087
    vertex 203.59111686642757 114.2542925525405 306.944329953102
    vertex 203.6078122082382 114.25429311373652 307.0711163154576
  endloop
endfacet
facet normal 1.650480517487149e-05 -0.9999999674341686 0.00025467479913870994
  outer loop
    vertex 184.69111688136178 114.25804700662665 306.9449071396087
    vertex 203.6078122082382 114.25429311373652 307.0711163154576
    vertex 184.63830025089518 114.25804922071138 307.3460764367873
  endloop
endfacet
facet normal 1.650480517487149e-05 -0.9999999674341686 0.00025467479913870994
  outer loop
    vertex 184.63830025089518 114.25804922071138 307.3460764367873
    vertex 203.6078122082382 114.25429311373652 307.0711163154576
    vertex 203.64394303393294 114.25429432823528 307.3454979985699
  endloop
endfacet
facet normal 1.650480517487149e-05 -0.9999999674341686 0.00025467479913870994
  outer loop
    vertex 184.63830025089518 114.25804922071138 307.3460764367873
    vertex 203.64394303393294 114.25429432823528 307.3454979985699
    vertex 203.7987991238839 114.25429554457423 307.71932415614157
  endloop
endfacet
facet normal 1.650480517487149e-05 -0.9999999674341686 0.00025467479913870994
  outer loop
    vertex 184.63830025089518 114.25804922071138 307.3460764367873
    vertex 203.7987991238839 114.25429554457423 307.71932415614157
    vertex 184.483453049049 114.25805172223824 307.71990627178144
  endloop
endfacet
facet normal 1.650480517487149e-05 -0.9999999674341686 0.00025467479913870994
  outer loop
    vertex 184.483453049049 114.25805172223824 307.71990627178144
    vertex 203.7987991238839 114.25429554457423 307.71932415614157
    vertex 204.04513194966225 114.25429611866566 308.04033279095466
  endloop
endfacet
facet normal 1.650480517487149e-05 -0.9999999674341686 0.00025467479913870994
  outer loop
    vertex 184.483453049049 114.25805172223824 307.71990627178144
    vertex 204.04513194966225 114.25429611866566 308.04033279095466
    vertex 184.237127856732 114.25805434073237 308.04092075911933
  endloop
endfacet
facet normal 1.650480517487149e-05 -0.9999999674341686 0.00025467479913870994
  outer loop
    vertex 184.237127856732 114.25805434073237 308.04092075911933
    vertex 204.04513194966225 114.25429611866566 308.04033279095466
    vertex 204.36615433627543 114.25429601138654 308.2866476950393
  endloop
endfacet
facet normal 1.650480517487149e-05 -0.9999999674341686 0.00025467479913870994
  outer loop
    vertex 184.237127856732 114.25805434073237 308.04092075911933
    vertex 204.36615433627543 114.25429601138654 308.2866476950393
    vertex 183.91611132872896 114.25805689774747 308.28724329199036
  endloop
endfacet
facet normal 1.650480517487149e-05 -0.9999999674341686 0.00025467479913870994
  outer loop
    vertex 183.91611132872896 114.25805689774747 308.28724329199036
    vertex 204.36615433627543 114.25429601138654 308.2866476950393
    vertex 204.73998913859037 114.25429523004773 308.4414829147363
  endloop
endfacet
facet normal 1.650480517487149e-05 -0.9999999674341686 0.00025467479913870994
  outer loop
    vertex 183.91611132872896 114.25805689774747 308.28724329199036
    vertex 204.73998913859037 114.25429523004773 308.4414829147363
    vertex 183.54228021091825 114.25805921902752 308.4420873968462
  endloop
endfacet
facet normal 1.650480517487149e-05 -0.9999999674341686 0.00025467479913870994
  outer loop
    vertex 183.54228021091825 114.25805921902752 308.4420873968462
    vertex 204.73998913859037 114.25429523004773 308.4414829147363
    vertex 205.1411601326207 114.25429382789588 308.49428668570107
  endloop
endfacet
facet normal 1.650480517487149e-05 -0.9999999674341686 0.00025467479913870994
  outer loop
    vertex 183.54228021091825 114.25805921902752 308.4420873968462
    vertex 205.1411601326207 114.25429382789588 308.49428668570107
    vertex 183.14111047619375 114.25806114638077 308.4949007038335
  endloop
endfacet
facet normal -0.8660114464041692 6.080163569837874e-06 0.5000241740756046
  outer loop
    vertex 206.48343460773708 114.25427669606695 306.1692492165067
    vertex 206.23711420279312 117.24747876040404 305.84822569725986
    vertex 206.23710178195847 114.2542761219755 305.84824058169346
  endloop
endfacet
facet normal -0.7070870426762109 6.450545221551673e-06 0.707126519116488
  outer loop
    vertex 206.23711420279312 117.24747876040404 305.84822569725986
    vertex 206.48343460773708 114.25427669606695 306.1692492165067
    vertex 206.48344702857156 117.24747933449561 306.16923433207336
  endloop
endfacet
facet normal 0.9999999996097162 1.0558493623258174e-06 -2.791868210881828e-05
  outer loop
    vertex 217.14391775412332 114.24739739136976 299.20395207997575
    vertex 217.1442568630883 117.24739739132994 311.35393678957286
    vertex 217.14425686335332 114.24739739136899 311.3539520752434
  endloop
endfacet
facet normal 0.9999999996097162 1.0558493623258174e-06 -2.791868210881828e-05
  outer loop
    vertex 217.1442568630883 117.24739739132994 311.35393678957286
    vertex 217.14391775412332 114.24739739136976 299.20395207997575
    vertex 217.143917753858 117.24739739133082 299.20393679430515
  endloop
endfacet
facet normal 0.000152921695428441 -7.68456193495082e-06 -0.9999999882779513
  outer loop
    vertex 217.143917753858 117.24739739133082 299.20393679430515
    vertex 200.0909131746592 114.2468274224264 299.20134804713285
    vertex 200.09091317439393 117.24682742238758 299.2013327614621
  endloop
endfacet
facet normal 0.000152921695428441 -7.68456193495082e-06 -0.9999999882779513
  outer loop
    vertex 200.0909131746592 114.2468274224264 299.20134804713285
    vertex 217.143917753858 117.24739739133082 299.20393679430515
    vertex 217.14391775412332 114.24739739136976 299.20395207997575
  endloop
endfacet
facet normal 0.0004695788606605418 0.0022799613633603943 0.9999972906322674
  outer loop
    vertex 201.07007962237216 117.247054925086 308.3515754187746
    vertex 196.21162090174295 117.41943363165338 308.35155527136
    vertex 194.90267961841303 117.24714541382374 308.3514953578136
  endloop
endfacet
facet normal 0.0004695788606605418 0.0022799613633603943 0.9999972906322674
  outer loop
    vertex 196.21162090174295 117.41943363165338 308.35155527136
    vertex 201.07007962237216 117.247054925086 308.3515754187746
    vertex 198.14109084316104 118.21858315840663 308.35160564095827
  endloop
endfacet
facet normal 0.0004695788606605418 0.0022799613633603943 0.9999972906322674
  outer loop
    vertex 198.14109084316104 118.21858315840663 308.35160564095827
    vertex 201.07007962237216 117.247054925086 308.3515754187746
    vertex 199.7979805731951 119.48988589331444 308.3516526099493
  endloop
endfacet
facet normal 0.0004695788606605418 0.0022799613633603943 0.9999972906322674
  outer loop
    vertex 199.7979805731951 119.48988589331444 308.3516526099493
    vertex 201.07007962237216 117.247054925086 308.3515754187746
    vertex 201.06992113315144 121.14664483481887 308.32925583918774
  endloop
endfacet
facet normal -2.8082079376164955e-06 5.922827470472569e-06 -0.9999999999785172
  outer loop
    vertex 187.21297175219402 121.14710413104201 304.6013676971967
    vertex 188.1910638946604 117.24699410488618 304.60166488733057
    vertex 187.1971856926427 117.24726100018486 304.60171897818174
  endloop
endfacet
facet normal -2.8082079376164955e-06 5.922827470472569e-06 -0.9999999999785172
  outer loop
    vertex 188.1910638946604 117.24699410488618 304.60166488733057
    vertex 187.21297175219402 121.14710413104201 304.6013676971967
    vertex 188.19103234969046 119.87239708012166 304.60138256273353
  endloop
endfacet
facet normal -2.8082079376164955e-06 5.922827470472569e-06 -0.9999999999785172
  outer loop
    vertex 188.1910638946604 117.24699410488618 304.60166488733057
    vertex 188.19103234969046 119.87239708012166 304.60138256273353
    vertex 188.48427448702418 119.4902144003951 304.601387019719
  endloop
endfacet
facet normal -2.8082079376164955e-06 5.922827470472569e-06 -0.9999999999785172
  outer loop
    vertex 188.1910638946604 117.24699410488618 304.60166488733057
    vertex 200.0910222029323 114.27048643134432 304.60132771359093
    vertex 188.19102220758418 114.27065310518246 304.60165984156276
  endloop
endfacet
facet normal -2.8082079376164955e-06 5.922827470472569e-06 -0.9999999999785172
  outer loop
    vertex 200.0910222029323 114.27048643134432 304.60132771359093
    vertex 188.1910638946604 117.24699410488618 304.60166488733057
    vertex 192.070518578677 117.41956194757952 304.6014580586029
  endloop
endfacet
facet normal -2.8082079376164955e-06 5.922827470472569e-06 -0.9999999999785172
  outer loop
    vertex 192.070518578677 117.41956194757952 304.6014580586029
    vertex 188.1910638946604 117.24699410488618 304.60166488733057
    vertex 190.14109324939625 118.21881917813535 304.60141784031214
  endloop
endfacet
facet normal -2.8082079376164955e-06 5.922827470472569e-06 -0.9999999999785172
  outer loop
    vertex 190.14109324939625 118.21881917813535 304.60141784031214
    vertex 188.1910638946604 117.24699410488618 304.60166488733057
    vertex 188.48427448702418 119.4902144003951 304.601387019719
  endloop
endfacet
facet normal -2.8082079376164955e-06 5.922827470472569e-06 -0.9999999999785172
  outer loop
    vertex 200.0910222029323 114.27048643134432 304.60132771359093
    vertex 192.070518578677 117.41956194757952 304.6014580586029
    vertex 194.14106332720192 117.14691076815538 304.60150493378165
  endloop
endfacet
facet normal -2.8082079376164955e-06 5.922827470472569e-06 -0.9999999999785172
  outer loop
    vertex 200.0910222029323 114.27048643134432 304.60132771359093
    vertex 194.14106332720192 117.14691076815538 304.60150493378165
    vertex 196.21162329209614 117.41944636716289 304.60155527138244
  endloop
endfacet
facet normal -2.8082079376164955e-06 5.922827470472569e-06 -0.9999999999785172
  outer loop
    vertex 200.0910222029323 114.27048643134432 304.60132771359093
    vertex 196.21162329209614 117.41944636716289 304.60155527138244
    vertex 198.14109323351406 118.21859589391617 304.60160564098084
  endloop
endfacet
facet normal -2.8082079376164955e-06 5.922827470472569e-06 -0.9999999999785172
  outer loop
    vertex 200.0910222029323 114.27048643134432 304.60132771359093
    vertex 198.14109323351406 118.21859589391617 304.60160564098084
    vertex 199.79798296354832 119.4898986288243 304.6016526099716
  endloop
endfacet
facet normal -2.8082079376164955e-06 5.922827470472569e-06 -0.9999999999785172
  outer loop
    vertex 200.0910222029323 114.27048643134432 304.60132771359093
    vertex 199.79798296354832 119.4898986288243 304.6016526099716
    vertex 200.09103231883316 119.87178591447942 304.6016619144564
  endloop
endfacet
facet normal -2.8082079376164955e-06 5.922827470472569e-06 -0.9999999999785172
  outer loop
    vertex 200.0910222029323 114.27048643134432 304.60132771359093
    vertex 200.09103231883316 119.87178591447942 304.6016619144564
    vertex 200.09106389000848 117.24682743104798 304.60133275935885
  endloop
endfacet
facet normal -2.8082079376164955e-06 5.922827470472569e-06 -0.9999999999785172
  outer loop
    vertex 200.09106389000848 117.24682743104798 304.60133275935885
    vertex 200.09103231883316 119.87178591447942 304.6016619144564
    vertex 201.0693781852363 121.14671739142975 304.6016929774966
  endloop
endfacet
facet normal -2.8082079376164955e-06 5.922827470472569e-06 -0.9999999999785172
  outer loop
    vertex 200.09106389000848 117.24682743104798 304.60133275935885
    vertex 201.0693781852363 121.14671739142975 304.6016929774966
    vertex 201.07008209280528 117.2466550236281 304.6013752720042
  endloop
endfacet
facet normal 0.9659247541850886 -2.7212181312075173e-06 0.2588230462015911
  outer loop
    vertex 181.64394594787566 117.2475596564248 306.54371013542936
    vertex 181.59111691193084 114.25805987057231 306.94489429863927
    vertex 181.6439335423974 114.25805765648754 306.5437250014606
  endloop
endfacet
facet normal 0.999999999982811 -4.14965993517584e-06 4.142267914728467e-06
  outer loop
    vertex 181.59111691193084 114.25805987057231 306.94489429863927
    vertex 181.64394594787566 117.2475596564248 306.54371013542936
    vertex 181.59112931740918 117.24756187050954 306.94487943260805
  endloop
endfacet
facet normal -1.0661411646361917e-06 0.9999999999198145 -1.2618813093223658e-05
  outer loop
    vertex 187.1971856926427 117.24726100018486 304.60171897818174
    vertex 184.2371493421015 117.24754544022078 305.8488748930338
    vertex 187.19718328866406 117.24731942885545 308.351462355323
  endloop
endfacet
facet normal -1.0661411646361917e-06 0.9999999999198145 -1.2618813093223658e-05
  outer loop
    vertex 184.2371493421015 117.24754544022078 305.8488748930338
    vertex 187.1971856926427 117.24726100018486 304.60171897818174
    vertex 183.91613485475725 117.24754554741605 305.60254970071105
  endloop
endfacet
facet normal -1.0661411646361917e-06 0.9999999999198145 -1.2618813093223658e-05
  outer loop
    vertex 183.91613485475725 117.24754554741605 305.60254970071105
    vertex 187.1971856926427 117.24726100018486 304.60171897818174
    vertex 183.5423050197585 117.2475463286747 305.44770249885784
  endloop
endfacet
facet normal -1.0661411646361917e-06 0.9999999999198145 -1.2618813093223658e-05
  outer loop
    vertex 183.5423050197585 117.2475463286747 305.44770249885784
    vertex 187.1971856926427 117.24726100018486 304.60171897818174
    vertex 183.1411357225773 117.24754773075558 305.3948858683832
  endloop
endfacet
facet normal -1.0661411646361917e-06 0.9999999999198145 -1.2618813093223658e-05
  outer loop
    vertex 187.19718328866406 117.24731942885545 308.351462355323
    vertex 184.2371493421015 117.24754544022078 305.8488748930338
    vertex 184.48347187497976 117.24754601439432 306.16989142104086
  endloop
endfacet
facet normal -1.0661411646361917e-06 0.9999999999198145 -1.2618813093223658e-05
  outer loop
    vertex 187.19718328866406 117.24731942885545 308.351462355323
    vertex 184.48347187497976 117.24754601439432 306.16989142104086
    vertex 184.63831597984435 117.24754723080758 306.5437225388533
  endloop
endfacet
facet normal -1.0661411646361917e-06 0.9999999999198145 -1.2618813093223658e-05
  outer loop
    vertex 187.19718328866406 117.24731942885545 308.351462355323
    vertex 184.63831597984435 117.24754723080758 306.5437225388533
    vertex 184.67443156463628 117.24754844513166 306.8180564221512
  endloop
endfacet
facet normal -1.0661411646361917e-06 0.9999999999198145 -1.2618813093223658e-05
  outer loop
    vertex 187.19718328866406 117.24731942885545 308.351462355323
    vertex 184.67443156463628 117.24754844513166 306.8180564221512
    vertex 184.69112928684 117.24754900656397 306.9448922735774
  endloop
endfacet
facet normal -1.0661411646361917e-06 0.9999999999198145 -1.2618813093223658e-05
  outer loop
    vertex 187.19718328866406 117.24731942885545 308.351462355323
    vertex 184.69112928684 117.24754900656397 306.9448922735774
    vertex 184.63831265637356 117.24755122064856 307.3460615707562
  endloop
endfacet
facet normal -1.0661411646361917e-06 0.9999999999198145 -1.2618813093223658e-05
  outer loop
    vertex 187.19718328866406 117.24731942885545 308.351462355323
    vertex 184.63831265637356 117.24755122064856 307.3460615707562
    vertex 184.48346545452736 117.24755372217584 307.7198914057501
  endloop
endfacet
facet normal -1.0661411646361917e-06 0.9999999999198145 -1.2618813093223658e-05
  outer loop
    vertex 187.19718328866406 117.24731942885545 308.351462355323
    vertex 184.48346545452736 117.24755372217584 307.7198914057501
    vertex 184.23714026221026 117.24755634066979 308.0409058930883
  endloop
endfacet
facet normal -1.0661411646361917e-06 0.9999999999198145 -1.2618813093223658e-05
  outer loop
    vertex 187.19718328866406 117.24731942885545 308.351462355323
    vertex 184.23714026221026 117.24755634066979 308.0409058930883
    vertex 183.9161237342072 117.24755889768488 308.28722842595914
  endloop
endfacet
facet normal -1.0661411646361917e-06 0.9999999999198145 -1.2618813093223658e-05
  outer loop
    vertex 187.19718328866406 117.24731942885545 308.351462355323
    vertex 183.9161237342072 117.24755889768488 308.28722842595914
    vertex 183.54229261639657 117.24756121896479 308.4420725308149
  endloop
endfacet
facet normal -1.0661411646361917e-06 0.9999999999198145 -1.2618813093223658e-05
  outer loop
    vertex 187.19718328866406 117.24731942885545 308.351462355323
    vertex 183.54229261639657 117.24756121896479 308.4420725308149
    vertex 193.37985536488887 117.24713425957428 308.351476998133
  endloop
endfacet
facet normal -1.0661411646361917e-06 0.9999999999198145 -1.2618813093223658e-05
  outer loop
    vertex 193.37985536488887 117.24713425957428 308.351476998133
    vertex 183.54229261639657 117.24756121896479 308.4420725308149
    vertex 194.90267961841303 117.24714541382374 308.3514953578136
  endloop
endfacet
facet normal -1.0661411646361917e-06 0.9999999999198145 -1.2618813093223658e-05
  outer loop
    vertex 194.90267961841303 117.24714541382374 308.3514953578136
    vertex 183.54229261639657 117.24756121896479 308.4420725308149
    vertex 201.07007962237216 117.247054925086 308.3515754187746
  endloop
endfacet
facet normal -1.0661411646361917e-06 0.9999999999198145 -1.2618813093223658e-05
  outer loop
    vertex 201.07007962237216 117.247054925086 308.3515754187746
    vertex 183.54229261639657 117.24756121896479 308.4420725308149
    vertex 204.7400015594251 117.24749786847619 308.4414680303029
  endloop
endfacet
facet normal -1.0661411646361917e-06 0.9999999999198145 -1.2618813093223658e-05
  outer loop
    vertex 204.7400015594251 117.24749786847619 308.4414680303029
    vertex 183.54229261639657 117.24756121896479 308.4420725308149
    vertex 205.14117255345528 117.24749646632438 308.4942718012676
  endloop
endfacet
facet normal -1.0661411646361917e-06 0.9999999999198145 -1.2618813093223658e-05
  outer loop
    vertex 205.14117255345528 117.24749646632438 308.4942718012676
    vertex 183.54229261639657 117.24756121896479 308.4420725308149
    vertex 183.14112288167198 117.2475631463182 308.4948858378023
  endloop
endfacet
facet normal -1.0661411646361917e-06 0.9999999999198145 -1.2618813093223658e-05
  outer loop
    vertex 168.13454019149705 117.24725066262076 299.2021614037613
    vertex 188.1910638946604 117.24699410488618 304.60166488733057
    vertex 188.19091317904568 117.2469940962258 299.20166488943397
  endloop
endfacet
facet normal -1.0661411646361917e-06 0.9999999999198145 -1.2618813093223658e-05
  outer loop
    vertex 188.1910638946604 117.24699410488618 304.60166488733057
    vertex 168.13454019149705 117.24725066262076 299.2021614037613
    vertex 187.1971856926427 117.24726100018486 304.60171897818174
  endloop
endfacet
facet normal -1.0661411646361917e-06 0.9999999999198145 -1.2618813093223658e-05
  outer loop
    vertex 187.1971856926427 117.24726100018486 304.60171897818174
    vertex 168.13454019149705 117.24725066262076 299.2021614037613
    vertex 182.7399659878528 117.24754965810881 305.4476991753705
  endloop
endfacet
facet normal -1.0661411646361917e-06 0.9999999999198145 -1.2618813093223658e-05
  outer loop
    vertex 182.7399659878528 117.24754965810881 305.4476991753705
    vertex 168.13454019149705 117.24725066262076 299.2021614037613
    vertex 168.13487930072694 117.24725066261985 311.35216139902906
  endloop
endfacet
facet normal -1.0661411646361917e-06 0.9999999999198145 -1.2618813093223658e-05
  outer loop
    vertex 187.1971856926427 117.24726100018486 304.60171897818174
    vertex 182.7399659878528 117.24754965810881 305.4476991753705
    vertex 183.1411357225773 117.24754773075558 305.3948858683832
  endloop
endfacet
facet normal -1.0661411646361917e-06 0.9999999999198145 -1.2618813093223658e-05
  outer loop
    vertex 182.7399659878528 117.24754965810881 305.4476991753705
    vertex 168.13487930072694 117.24725066261985 311.35216139902906
    vertex 182.36613487004203 117.24755197938879 305.60254328022637
  endloop
endfacet
facet normal -1.0661411646361917e-06 0.9999999999198145 -1.2618813093223658e-05
  outer loop
    vertex 182.36613487004203 117.24755197938879 305.60254328022637
    vertex 168.13487930072694 117.24725066261985 311.35216139902906
    vertex 182.04511834203896 117.24755453640404 305.84886581309723
  endloop
endfacet
facet normal -1.0661411646361917e-06 0.9999999999198145 -1.2618813093223658e-05
  outer loop
    vertex 182.04511834203896 117.24755453640404 305.84886581309723
    vertex 168.13487930072694 117.24725066261985 311.35216139902906
    vertex 181.79879314972183 117.247557154898 306.16988030043535
  endloop
endfacet
facet normal -1.0661411646361917e-06 0.9999999999198145 -1.2618813093223658e-05
  outer loop
    vertex 181.79879314972183 117.247557154898 306.16988030043535
    vertex 168.13487930072694 117.24725066261985 311.35216139902906
    vertex 181.64394594787566 117.2475596564248 306.54371013542936
  endloop
endfacet
facet normal -1.0661411646361917e-06 0.9999999999198145 -1.2618813093223658e-05
  outer loop
    vertex 181.64394594787566 117.2475596564248 306.54371013542936
    vertex 168.13487930072694 117.24725066261985 311.35216139902906
    vertex 181.59112931740918 117.24756187050954 306.94487943260805
  endloop
endfacet
facet normal -1.0661411646361917e-06 0.9999999999198145 -1.2618813093223658e-05
  outer loop
    vertex 181.59112931740918 117.24756187050954 306.94487943260805
    vertex 168.13487930072694 117.24725066261985 311.35216139902906
    vertex 181.60782703961277 117.24756243194197 307.0717152840344
  endloop
endfacet
facet normal -1.0661411646361917e-06 0.9999999999198145 -1.2618813093223658e-05
  outer loop
    vertex 181.60782703961277 117.24756243194197 307.0717152840344
    vertex 168.13487930072694 117.24725066261985 311.35216139902906
    vertex 181.64394262440487 117.24756364626613 307.3460491673322
  endloop
endfacet
facet normal -1.0661411646361917e-06 0.9999999999198145 -1.2618813093223658e-05
  outer loop
    vertex 181.64394262440487 117.24756364626613 307.3460491673322
    vertex 168.13487930072694 117.24725066261985 311.35216139902906
    vertex 181.79878672926927 117.24756486267954 307.7198802851447
  endloop
endfacet
facet normal -1.0661411646361917e-06 0.9999999999198145 -1.2618813093223658e-05
  outer loop
    vertex 181.79878672926927 117.24756486267954 307.7198802851447
    vertex 168.13487930072694 117.24725066261985 311.35216139902906
    vertex 182.04510926214786 117.24756543685287 308.04089681315185
  endloop
endfacet
facet normal -1.0661411646361917e-06 0.9999999999198145 -1.2618813093223658e-05
  outer loop
    vertex 182.04510926214786 117.24756543685287 308.04089681315185
    vertex 168.13487930072694 117.24725066261985 311.35216139902906
    vertex 182.36612374949192 117.24756532965775 308.2872220054745
  endloop
endfacet
facet normal -1.0661411646361917e-06 0.9999999999198145 -1.2618813093223658e-05
  outer loop
    vertex 182.36612374949192 117.24756532965775 308.2872220054745
    vertex 168.13487930072694 117.24725066261985 311.35216139902906
    vertex 182.73995358449073 117.24756454839893 308.4420692073276
  endloop
endfacet
facet normal -1.0661411646361917e-06 0.9999999999198145 -1.2618813093223658e-05
  outer loop
    vertex 182.73995358449073 117.24756454839893 308.4420692073276
    vertex 168.13487930072694 117.24725066261985 311.35216139902906
    vertex 183.14112288167198 117.2475631463182 308.4948858378023
  endloop
endfacet
facet normal -1.0661411646361917e-06 0.9999999999198145 -1.2618813093223658e-05
  outer loop
    vertex 200.09106389000848 117.24682743104798 304.60133275935885
    vertex 217.143917753858 117.24739739133082 299.20393679430515
    vertex 200.09091317439393 117.24682742238758 299.2013327614621
  endloop
endfacet
facet normal -1.0661411646361917e-06 0.9999999999198145 -1.2618813093223658e-05
  outer loop
    vertex 217.143917753858 117.24739739133082 299.20393679430515
    vertex 200.09106389000848 117.24682743104798 304.60133275935885
    vertex 201.07008209280528 117.2466550236281 304.6013752720042
  endloop
endfacet
facet normal -1.0661411646361917e-06 0.9999999999198145 -1.2618813093223658e-05
  outer loop
    vertex 217.143917753858 117.24739739133082 299.20393679430515
    vertex 201.07008209280528 117.2466550236281 304.6013752720042
    vertex 205.54225701386508 117.24747964902222 305.44707557347823
  endloop
endfacet
facet normal -1.0661411646361917e-06 0.9999999999198145 -1.2618813093223658e-05
  outer loop
    vertex 217.143917753858 117.24739739133082 299.20393679430515
    vertex 205.54225701386508 117.24747964902222 305.44707557347823
    vertex 205.91609181618003 117.24747886768313 305.6019107931754
  endloop
endfacet
facet normal -1.0661411646361917e-06 0.9999999999198145 -1.2618813093223658e-05
  outer loop
    vertex 217.143917753858 117.24739739133082 299.20393679430515
    vertex 205.91609181618003 117.24747886768313 305.6019107931754
    vertex 217.1442568630883 117.24739739132994 311.35393678957286
  endloop
endfacet
facet normal -1.0661411646361917e-06 0.9999999999198145 -1.2618813093223658e-05
  outer loop
    vertex 205.54225701386508 117.24747964902222 305.44707557347823
    vertex 201.07008209280528 117.2466550236281 304.6013752720042
    vertex 205.14108601983548 117.24748105117388 305.39427180251363
  endloop
endfacet
facet normal -1.0661411646361917e-06 0.9999999999198145 -1.2618813093223658e-05
  outer loop
    vertex 217.1442568630883 117.24739739132994 311.35393678957286
    vertex 205.91609181618003 117.24747886768313 305.6019107931754
    vertex 206.23711420279312 117.24747876040404 305.84822569725986
  endloop
endfacet
facet normal -1.0661411646361917e-06 0.9999999999198145 -1.2618813093223658e-05
  outer loop
    vertex 217.1442568630883 117.24739739132994 311.35393678957286
    vertex 206.23711420279312 117.24747876040404 305.84822569725986
    vertex 206.48344702857156 117.24747933449561 306.16923433207336
  endloop
endfacet
facet normal -1.0661411646361917e-06 0.9999999999198145 -1.2618813093223658e-05
  outer loop
    vertex 217.1442568630883 117.24739739132994 311.35393678957286
    vertex 206.48344702857156 117.24747933449561 306.16923433207336
    vertex 206.63830311852269 117.24748055083447 306.54306048964486
  endloop
endfacet
facet normal -1.0661411646361917e-06 0.9999999999198145 -1.2618813093223658e-05
  outer loop
    vertex 217.1442568630883 117.24739739132994 311.35393678957286
    vertex 206.63830311852269 117.24748055083447 306.54306048964486
    vertex 206.6744339442171 117.24748176533335 306.8174421727572
  endloop
endfacet
facet normal -1.0661411646361917e-06 0.9999999999198145 -1.2618813093223658e-05
  outer loop
    vertex 217.1442568630883 117.24739739132994 311.35393678957286
    vertex 206.6744339442171 117.24748176533335 306.8174421727572
    vertex 206.69112928602797 117.24748232652925 306.94422853511253
  endloop
endfacet
facet normal -1.0661411646361917e-06 0.9999999999198145 -1.2618813093223658e-05
  outer loop
    vertex 217.1442568630883 117.24739739132994 311.35393678957286
    vertex 206.69112928602797 117.24748232652925 306.94422853511253
    vertex 206.6383255150712 117.24748454056905 307.3453995291401
  endloop
endfacet
facet normal -1.0661411646361917e-06 0.9999999999198145 -1.2618813093223658e-05
  outer loop
    vertex 217.1442568630883 117.24739739132994 311.35393678957286
    vertex 206.6383255150712 117.24748454056905 307.3453995291401
    vertex 206.4834902953813 117.24748704207103 307.71923433145014
  endloop
endfacet
facet normal -1.0661411646361917e-06 0.9999999999198145 -1.2618813093223658e-05
  outer loop
    vertex 217.1442568630883 117.24739739132994 311.35393678957286
    vertex 206.4834902953813 117.24748704207103 307.71923433145014
    vertex 206.23717539130243 117.24748966056163 308.0402567180571
  endloop
endfacet
facet normal -1.0661411646361917e-06 0.9999999999198145 -1.2618813093223658e-05
  outer loop
    vertex 217.1442568630883 117.24739739132994 311.35393678957286
    vertex 206.23717539130243 117.24748966056163 308.0402567180571
    vertex 205.91616675649277 117.24749221759522 308.2865895438279
  endloop
endfacet
facet normal -1.0661411646361917e-06 0.9999999999198145 -1.2618813093223658e-05
  outer loop
    vertex 217.1442568630883 117.24739739132994 311.35393678957286
    vertex 205.91616675649277 117.24749221759522 308.2865895438279
    vertex 205.54234059892335 117.24749453891411 308.44144563377074
  endloop
endfacet
facet normal -1.0661411646361917e-06 0.9999999999198145 -1.2618813093223658e-05
  outer loop
    vertex 217.1442568630883 117.24739739132994 311.35393678957286
    vertex 205.54234059892335 117.24749453891411 308.44144563377074
    vertex 205.14117255345528 117.24749646632438 308.4942718012676
  endloop
endfacet
facet normal -1.0661411646361917e-06 0.9999999999198145 -1.2618813093223658e-05
  outer loop
    vertex 217.1442568630883 117.24739739132994 311.35393678957286
    vertex 205.14117255345528 117.24749646632438 308.4942718012676
    vertex 183.14112288167198 117.2475631463182 308.4948858378023
  endloop
endfacet
facet normal -1.0661411646361917e-06 0.9999999999198145 -1.2618813093223658e-05
  outer loop
    vertex 217.1442568630883 117.24739739132994 311.35393678957286
    vertex 183.14112288167198 117.2475631463182 308.4948858378023
    vertex 168.13487930072694 117.24725066261985 311.35216139902906
  endloop
endfacet
facet normal -1.0661411646361917e-06 0.9999999999198145 -1.2618813093223658e-05
  outer loop
    vertex 201.07008209280528 117.2466550236281 304.6013752720042
    vertex 204.73991797436676 117.24748297858424 305.44709797001025
    vertex 205.14108601983548 117.24748105117388 305.39427180251363
  endloop
endfacet
facet normal -1.0661411646361917e-06 0.9999999999198145 -1.2618813093223658e-05
  outer loop
    vertex 204.73991797436676 117.24748297858424 305.44709797001025
    vertex 201.07008209280528 117.2466550236281 304.6013752720042
    vertex 204.36609181679754 117.24748529990332 305.6019540599532
  endloop
endfacet
facet normal -1.0661411646361917e-06 0.9999999999198145 -1.2618813093223658e-05
  outer loop
    vertex 204.36609181679754 117.24748529990332 305.6019540599532
    vertex 201.07008209280528 117.2466550236281 304.6013752720042
    vertex 204.04508318198796 117.24748785693676 305.8482868857239
  endloop
endfacet
facet normal -1.0661411646361917e-06 0.9999999999198145 -1.2618813093223658e-05
  outer loop
    vertex 204.04508318198796 117.24748785693676 305.8482868857239
    vertex 201.07008209280528 117.2466550236281 304.6013752720042
    vertex 201.07007962237216 117.247054925086 308.3515754187746
  endloop
endfacet
facet normal -1.0661411646361917e-06 0.9999999999198145 -1.2618813093223658e-05
  outer loop
    vertex 204.04508318198796 117.24748785693676 305.8482868857239
    vertex 201.07007962237216 117.247054925086 308.3515754187746
    vertex 203.79876827790918 117.24749047542741 306.1693092723307
  endloop
endfacet
facet normal -1.0661411646361917e-06 0.9999999999198145 -1.2618813093223658e-05
  outer loop
    vertex 203.79876827790918 117.24749047542741 306.1693092723307
    vertex 201.07007962237216 117.247054925086 308.3515754187746
    vertex 203.64393305821903 117.24749297692932 306.543144074641
  endloop
endfacet
facet normal -1.0661411646361917e-06 0.9999999999198145 -1.2618813093223658e-05
  outer loop
    vertex 203.64393305821903 117.24749297692932 306.543144074641
    vertex 201.07007962237216 117.247054925086 308.3515754187746
    vertex 203.59112928726233 117.24749519096919 306.9443150686682
  endloop
endfacet
facet normal -1.0661411646361917e-06 0.9999999999198145 -1.2618813093223658e-05
  outer loop
    vertex 203.59112928726233 117.24749519096919 306.9443150686682
    vertex 201.07007962237216 117.247054925086 308.3515754187746
    vertex 203.607824629073 117.24749575216521 307.07110143102386
  endloop
endfacet
facet normal -1.0661411646361917e-06 0.9999999999198145 -1.2618813093223658e-05
  outer loop
    vertex 203.607824629073 117.24749575216521 307.07110143102386
    vertex 201.07007962237216 117.247054925086 308.3515754187746
    vertex 203.64395545476788 117.24749696666389 307.34548311413624
  endloop
endfacet
facet normal -1.0661411646361917e-06 0.9999999999198145 -1.2618813093223658e-05
  outer loop
    vertex 203.64395545476788 117.24749696666389 307.34548311413624
    vertex 201.07007962237216 117.247054925086 308.3515754187746
    vertex 203.7988115447183 117.24749818300273 307.71930927170763
  endloop
endfacet
facet normal -1.0661411646361917e-06 0.9999999999198145 -1.2618813093223658e-05
  outer loop
    vertex 203.7988115447183 117.24749818300273 307.71930927170763
    vertex 201.07007962237216 117.247054925086 308.3515754187746
    vertex 204.04514437049727 117.24749875709426 308.04031790652095
  endloop
endfacet
facet normal -1.0661411646361917e-06 0.9999999999198145 -1.2618813093223658e-05
  outer loop
    vertex 204.04514437049727 117.24749875709426 308.04031790652095
    vertex 201.07007962237216 117.247054925086 308.3515754187746
    vertex 204.3661667571102 117.24749864981514 308.28663281060557
  endloop
endfacet
facet normal -1.0661411646361917e-06 0.9999999999198145 -1.2618813093223658e-05
  outer loop
    vertex 204.3661667571102 117.24749864981514 308.28663281060557
    vertex 201.07007962237216 117.247054925086 308.3515754187746
    vertex 204.7400015594251 117.24749786847619 308.4414680303029
  endloop
endfacet
facet normal 0.7071038521772053 5.820212060731649e-07 0.7071097101835176
  outer loop
    vertex 182.04511834203896 117.24755453640404 305.84886581309723
    vertex 181.79878074424363 114.25805515496072 306.1698951664664
    vertex 182.04510593656073 114.25805253646651 305.8488806791286
  endloop
endfacet
facet normal 0.8660233326557811 -1.1073298108691895e-06 0.5000035872816796
  outer loop
    vertex 181.79878074424363 114.25805515496072 306.1698951664664
    vertex 182.04511834203896 117.24755453640404 305.84886581309723
    vertex 181.79879314972183 117.247557154898 306.16988030043535
  endloop
endfacet
facet normal 0.8660233326557812 -1.1073298108691906e-06 0.5000035872816795
  outer loop
    vertex 181.79879314972183 117.247557154898 306.16988030043535
    vertex 181.6439335423974 114.25805765648754 306.5437250014606
    vertex 181.79878074424363 114.25805515496072 306.1698951664664
  endloop
endfacet
facet normal 0.9659247541850933 -2.72121813120762e-06 0.25882304620157415
  outer loop
    vertex 181.6439335423974 114.25805765648754 306.5437250014606
    vertex 181.79879314972183 117.247557154898 306.16988030043535
    vertex 181.64394594787566 117.2475596564248 306.54371013542936
  endloop
endfacet
facet normal 0.4999964127171351 2.231708439797403e-06 0.8660274748903846
  outer loop
    vertex 182.36612246456372 114.25804997945143 305.60255814625765
    vertex 182.04511834203896 117.24755453640404 305.84886581309723
    vertex 182.04510593656073 114.25805253646651 305.8488806791286
  endloop
endfacet
facet normal 0.7071038521772053 5.820212060731649e-07 0.7071097101835176
  outer loop
    vertex 182.04511834203896 117.24755453640404 305.84886581309723
    vertex 182.36612246456372 114.25804997945143 305.60255814625765
    vertex 182.36613487004203 117.24755197938879 305.60254328022637
  endloop
endfacet
facet normal -4.142227535603115e-06 4.972762216288547e-06 0.9999999999790568
  outer loop
    vertex 183.14112331709896 114.2580457308181 305.39490073441436
    vertex 182.7399659878528 117.24754965810881 305.4476991753705
    vertex 182.7399535823745 114.25804765817144 305.44771404140164
  endloop
endfacet
facet normal 0.25881504401350774 3.7293084314186175e-06 0.9659268983615573
  outer loop
    vertex 182.7399659878528 117.24754965810881 305.4476991753705
    vertex 183.14112331709896 114.2580457308181 305.39490073441436
    vertex 183.1411357225773 117.24754773075558 305.3948858683832
  endloop
endfacet
facet normal 0.2588150440135177 3.729308431418565e-06 0.9659268983615548
  outer loop
    vertex 182.7399535823745 114.25804765817144 305.44771404140164
    vertex 182.36613487004203 117.24755197938879 305.60254328022637
    vertex 182.36612246456372 114.25804997945143 305.60255814625765
  endloop
endfacet
facet normal 0.49999641271712997 2.2317084397974387e-06 0.8660274748903876
  outer loop
    vertex 182.36613487004203 117.24755197938879 305.60254328022637
    vertex 182.7399535823745 114.25804765817144 305.44771404140164
    vertex 182.7399659878528 117.24754965810881 305.4476991753705
  endloop
endfacet
facet normal -0.25882304618262686 5.877330474058794e-06 0.9659247541761227
  outer loop
    vertex 183.54229261428017 114.25804432873728 305.44771736488894
    vertex 183.1411357225773 117.24754773075558 305.3948858683832
    vertex 183.14112331709896 114.2580457308181 305.39490073441436
  endloop
endfacet
facet normal -4.142227542224938e-06 4.972762216288575e-06 0.9999999999790568
  outer loop
    vertex 183.1411357225773 117.24754773075558 305.3948858683832
    vertex 183.54229261428017 114.25804432873728 305.44771736488894
    vertex 183.5423050197585 117.2475463286747 305.44770249885784
  endloop
endfacet
facet normal -0.7071097101715765 6.450526562440661e-06 0.7071038521599636
  outer loop
    vertex 184.23713693662327 114.25804344028329 305.84888975906495
    vertex 183.91613485475725 117.24754554741605 305.60254970071105
    vertex 183.9161224492791 114.25804354747856 305.6025645667423
  endloop
endfacet
facet normal -0.5000035872656806 6.381368372713132e-06 0.8660233326422154
  outer loop
    vertex 183.91613485475725 117.24754554741605 305.60254970071105
    vertex 184.23713693662327 114.25804344028329 305.84888975906495
    vertex 184.2371493421015 117.24754544022078 305.8488748930338
  endloop
endfacet
facet normal -0.8660274748833189 6.0800920271298455e-06 0.49999641269738626
  outer loop
    vertex 184.48345946950164 114.25804401445684 306.16990628707197
    vertex 184.2371493421015 117.24754544022078 305.8488748930338
    vertex 184.23713693662327 114.25804344028329 305.84888975906495
  endloop
endfacet
facet normal -0.7071097101715684 6.4505265624406646e-06 0.7071038521599715
  outer loop
    vertex 184.2371493421015 117.24754544022078 305.8488748930338
    vertex 184.48345946950164 114.25804401445684 306.16990628707197
    vertex 184.48347187497976 117.24754601439432 306.16989142104086
  endloop
endfacet
facet normal -0.5000035872656898 6.381368372713143e-06 0.8660233326422099
  outer loop
    vertex 183.9161224492791 114.25804354747856 305.6025645667423
    vertex 183.5423050197585 117.2475463286747 305.44770249885784
    vertex 183.54229261428017 114.25804432873728 305.44771736488894
  endloop
endfacet
facet normal -0.25882304618262697 5.877330474058795e-06 0.9659247541761226
  outer loop
    vertex 183.5423050197585 117.2475463286747 305.44770249885784
    vertex 183.9161224492791 114.25804354747856 305.6025645667423
    vertex 183.91613485475725 117.24754554741605 305.60254970071105
  endloop
endfacet
facet normal -0.9914454020310995 4.763234738261457e-06 0.13052208536758497
  outer loop
    vertex 184.674419159158 114.25804644519461 306.81807128818247
    vertex 184.63831597984435 117.24754723080758 306.5437225388533
    vertex 184.638303574366 114.2580452308701 306.54373740488444
  endloop
endfacet
facet normal -0.9659268983649321 5.295309270162162e-06 0.25881504397361066
  outer loop
    vertex 184.63831597984435 117.24754723080758 306.5437225388533
    vertex 184.674419159158 114.25804644519461 306.81807128818247
    vertex 184.69111688136178 114.25804700662665 306.9449071396087
  endloop
endfacet
facet normal -0.9659268983649321 5.295309270162162e-06 0.25881504397361066
  outer loop
    vertex 184.63831597984435 117.24754723080758 306.5437225388533
    vertex 184.69111688136178 114.25804700662665 306.9449071396087
    vertex 184.67443156463628 117.24754844513166 306.8180564221512
  endloop
endfacet
facet normal -0.9914454020310995 4.763234738261457e-06 0.13052208536758497
  outer loop
    vertex 184.67443156463628 117.24754844513166 306.8180564221512
    vertex 184.69111688136178 114.25804700662665 306.9449071396087
    vertex 184.69112928684 117.24754900656397 306.9448922735774
  endloop
endfacet
facet normal -0.9659268983649338 5.295309270162136e-06 0.25881504397360394
  outer loop
    vertex 184.638303574366 114.2580452308701 306.54373740488444
    vertex 184.48347187497976 117.24754601439432 306.16989142104086
    vertex 184.48345946950164 114.25804401445684 306.16990628707197
  endloop
endfacet
facet normal -0.8660274748833211 6.080092027129834e-06 0.4999964126973824
  outer loop
    vertex 184.48347187497976 117.24754601439432 306.16989142104086
    vertex 184.638303574366 114.2580452308701 306.54373740488444
    vertex 184.63831597984435 117.24754723080758 306.5437225388533
  endloop
endfacet
facet normal -0.9659247541850868 2.7212181312215513e-06 -0.25882304620159835
  outer loop
    vertex 184.63830025089518 114.25804922071138 307.3460764367873
    vertex 184.69112928684 117.24754900656397 306.9448922735774
    vertex 184.69111688136178 114.25804700662665 306.9449071396087
  endloop
endfacet
facet normal -0.9999999999828109 4.1496599351687996e-06 -4.1422679111388044e-06
  outer loop
    vertex 184.69112928684 117.24754900656397 306.9448922735774
    vertex 184.63830025089518 114.25804922071138 307.3460764367873
    vertex 184.63831265637356 117.24755122064856 307.3460615707562
  endloop
endfacet
facet normal -0.7071038521772167 -5.820212059891296e-07 -0.7071097101835062
  outer loop
    vertex 184.237127856732 114.25805434073237 308.04092075911933
    vertex 184.48346545452736 117.24755372217584 307.7198914057501
    vertex 184.483453049049 114.25805172223824 307.71990627178144
  endloop
endfacet
facet normal -0.8660233326557678 1.1073298108830976e-06 -0.5000035872817026
  outer loop
    vertex 184.48346545452736 117.24755372217584 307.7198914057501
    vertex 184.237127856732 114.25805434073237 308.04092075911933
    vertex 184.23714026221026 117.24755634066979 308.0409058930883
  endloop
endfacet
facet normal -0.8660233326557828 1.1073298108832886e-06 -0.5000035872816766
  outer loop
    vertex 184.483453049049 114.25805172223824 307.71990627178144
    vertex 184.63831265637356 117.24755122064856 307.3460615707562
    vertex 184.63830025089518 114.25804922071138 307.3460764367873
  endloop
endfacet
facet normal -0.9659247541850818 2.7212181312214408e-06 -0.2588230462016164
  outer loop
    vertex 184.63831265637356 117.24755122064856 307.3460615707562
    vertex 184.483453049049 114.25805172223824 307.71990627178144
    vertex 184.48346545452736 117.24755372217584 307.7198914057501
  endloop
endfacet
facet normal -0.7070870426762107 6.450545221551674e-06 0.7071265191164883
  outer loop
    vertex 206.23710178195847 114.2542761219755 305.84824058169346
    vertex 205.91609181618003 117.24747886768313 305.6019107931754
    vertex 205.9160793953453 114.25427622925453 305.60192567760896
  endloop
endfacet
facet normal -0.4999758255064388 6.381332876410738e-06 0.8660393604614248
  outer loop
    vertex 205.91609181618003 117.24747886768313 305.6019107931754
    vertex 206.23710178195847 114.2542761219755 305.84824058169346
    vertex 206.23711420279312 117.24747876040404 305.84822569725986
  endloop
endfacet
facet normal 0.7070870426762105 -6.450545221579686e-06 -0.7071265191164885
  outer loop
    vertex 204.04514437049727 117.24749875709426 308.04031790652095
    vertex 204.36615433627543 114.25429601138654 308.2866476950393
    vertex 204.04513194966225 114.25429611866566 308.04033279095466
  endloop
endfacet
facet normal 0.49997582550645664 -6.381332876410754e-06 -0.8660393604614145
  outer loop
    vertex 204.36615433627543 114.25429601138654 308.2866476950393
    vertex 204.04514437049727 117.24749875709426 308.04031790652095
    vertex 204.3661667571102 117.24749864981514 308.28663281060557
  endloop
endfacet
facet normal 0.8660114464041864 -6.080163569837812e-06 -0.5000241740755745
  outer loop
    vertex 203.7988115447183 117.24749818300273 307.71930927170763
    vertex 204.04513194966225 114.25429611866566 308.04033279095466
    vertex 203.7987991238839 114.25429554457423 307.71932415614157
  endloop
endfacet
facet normal 0.7070870426762033 -6.4505452215796915e-06 -0.7071265191164956
  outer loop
    vertex 204.04513194966225 114.25429611866566 308.04033279095466
    vertex 203.7988115447183 117.24749818300273 307.71930927170763
    vertex 204.04514437049727 117.24749875709426 308.04031790652095
  endloop
endfacet
facet normal 0.9659186012163719 -5.295428819136608e-06 -0.2588460078814544
  outer loop
    vertex 203.64395545476788 117.24749696666389 307.34548311413624
    vertex 203.7987991238839 114.25429554457423 307.71932415614157
    vertex 203.64394303393294 114.25429432823528 307.3454979985699
  endloop
endfacet
facet normal 0.8660114464041696 -6.080163569837889e-06 -0.500024174075604
  outer loop
    vertex 203.7987991238839 114.25429554457423 307.71932415614157
    vertex 203.64395545476788 117.24749696666389 307.34548311413624
    vertex 203.7988115447183 117.24749818300273 307.71930927170763
  endloop
endfacet
facet normal 0.9999999996017931 -4.149819345263689e-06 -2.7914030537561125e-05
  outer loop
    vertex 203.59112928726233 117.24749519096919 306.9443150686682
    vertex 203.6078122082382 114.25429311373652 307.0711163154576
    vertex 203.59111686642757 114.2542925525405 306.944329953102
  endloop
endfacet
facet normal 0.991441217466772 -4.763375419450377e-06 -0.13055386737019753
  outer loop
    vertex 203.6078122082382 114.25429311373652 307.0711163154576
    vertex 203.59112928726233 117.24749519096919 306.9443150686682
    vertex 203.64394303393294 114.25429432823528 307.3454979985699
  endloop
endfacet
facet normal 0.9659186012163685 -5.295428819136657e-06 -0.25884600788146683
  outer loop
    vertex 203.64394303393294 114.25429432823528 307.3454979985699
    vertex 203.59112928726233 117.24749519096919 306.9443150686682
    vertex 203.64395545476788 117.24749696666389 307.34548311413624
  endloop
endfacet
facet normal 0.9659186012163719 -5.295428819136608e-06 -0.2588460078814544
  outer loop
    vertex 203.64395545476788 117.24749696666389 307.34548311413624
    vertex 203.59112928726233 117.24749519096919 306.9443150686682
    vertex 203.607824629073 117.24749575216521 307.07110143102386
  endloop
endfacet
facet normal 0.8660393604749917 -1.107534378024501e-06 0.49997582552243525
  outer loop
    vertex 203.79876827790918 117.24749047542741 306.1693092723307
    vertex 203.6439206373843 114.25429033850081 306.5431589590747
    vertex 203.79875585707435 114.25428783699877 306.16932415676433
  endloop
endfacet
facet normal 0.965933050597584 -2.7214065407869024e-06 0.2587920820964953
  outer loop
    vertex 203.6439206373843 114.25429033850081 306.5431589590747
    vertex 203.79876827790918 117.24749047542741 306.1693092723307
    vertex 203.64393305821903 117.24749297692932 306.543144074641
  endloop
endfacet
facet normal 0.7071265191337187 5.818144223518152e-07 0.707087042688163
  outer loop
    vertex 204.04508318198796 117.24748785693676 305.8482868857239
    vertex 203.79875585707435 114.25428783699877 306.16932415676433
    vertex 204.0450707611532 114.25428521850812 305.84830177015755
  endloop
endfacet
facet normal 0.866039360474981 -1.107534378024362e-06 0.49997582552245423
  outer loop
    vertex 203.79875585707435 114.25428783699877 306.16932415676433
    vertex 204.04508318198796 117.24748785693676 305.8482868857239
    vertex 203.79876827790918 117.24749047542741 306.1693092723307
  endloop
endfacet
facet normal -0.9999999744652663 -0.00022598464576555272 -6.377966172892109e-07
  outer loop
    vertex 187.19718328866406 117.24731942885545 308.351462355323
    vertex 187.21297175219402 121.14710413104201 304.6013676971967
    vertex 187.1971856926427 117.24726100018486 304.60171897818174
  endloop
endfacet
facet normal -0.9999999744652663 -0.00022598464576555272 -6.377966172892109e-07
  outer loop
    vertex 187.21297175219402 121.14710413104201 304.6013676971967
    vertex 187.19718328866406 117.24731942885545 308.351462355323
    vertex 187.19701092777487 121.14721806048044 308.3513839491042
  endloop
endfacet
facet normal 0.9659330505975848 -2.721406540786919e-06 0.2587920820964925
  outer loop
    vertex 203.64393305821903 117.24749297692932 306.543144074641
    vertex 203.59111686642757 114.2542925525405 306.944329953102
    vertex 203.6439206373843 114.25429033850081 306.5431589590747
  endloop
endfacet
facet normal 0.999999999601793 -4.149819345263499e-06 -2.791403049930587e-05
  outer loop
    vertex 203.59111686642757 114.2542925525405 306.944329953102
    vertex 203.64393305821903 117.24749297692932 306.543144074641
    vertex 203.59112928726233 117.24749519096919 306.9443150686682
  endloop
endfacet
facet normal -1.0148702072657069e-05 -1.0367513510745052e-05 0.9999999998947593
  outer loop
    vertex 187.19718328866406 117.24731942885545 308.351462355323
    vertex 188.48427209667096 119.49020166488562 308.3513870196966
    vertex 187.19701092777487 121.14721806048044 308.3513839491042
  endloop
endfacet
facet normal -1.0148702072657069e-05 -1.0367513510745052e-05 0.9999999998947593
  outer loop
    vertex 188.48427209667096 119.49020166488562 308.3513870196966
    vertex 187.19718328866406 117.24731942885545 308.351462355323
    vertex 190.14109085904298 118.21880644262582 308.3514178402898
  endloop
endfacet
facet normal -1.0148702072657069e-05 -1.0367513510745052e-05 0.9999999998947593
  outer loop
    vertex 190.14109085904298 118.21880644262582 308.3514178402898
    vertex 187.19718328866406 117.24731942885545 308.351462355323
    vertex 192.07051618832384 117.41954921206997 308.35145805858053
  endloop
endfacet
facet normal -1.0148702072657069e-05 -1.0367513510745052e-05 0.9999999998947593
  outer loop
    vertex 192.07051618832384 117.41954921206997 308.35145805858053
    vertex 187.19718328866406 117.24731942885545 308.351462355323
    vertex 193.37985536488887 117.24713425957428 308.351476998133
  endloop
endfacet
facet normal -3.6225542507562256e-05 5.095223532036729e-06 0.9999999993308744
  outer loop
    vertex 168.1348793009923 114.24725066265854 311.35217668469977
    vertex 217.1442568630883 117.24739739132994 311.35393678957286
    vertex 168.13487930072694 117.24725066261985 311.35216139902906
  endloop
endfacet
facet normal -3.6225542507562256e-05 5.095223532036729e-06 0.9999999993308744
  outer loop
    vertex 217.1442568630883 117.24739739132994 311.35393678957286
    vertex 168.1348793009923 114.24725066265854 311.35217668469977
    vertex 217.14425686335332 114.24739739136899 311.3539520752434
  endloop
endfacet
facet normal -0.2587920820775598 5.877243241285735e-06 0.9659330505886107
  outer loop
    vertex 205.54224459303043 114.25427701059365 305.4470904579117
    vertex 205.14108601983548 117.24748105117388 305.39427180251363
    vertex 205.14107359900055 114.25427841274539 305.39428668694705
  endloop
endfacet
facet normal 2.791407079795953e-05 4.97262919191142e-06 0.9999999995980388
  outer loop
    vertex 205.14108601983548 117.24748105117388 305.39427180251363
    vertex 205.54224459303043 114.25427701059365 305.4470904579117
    vertex 205.54225701386508 117.24747964902222 305.44707557347823
  endloop
endfacet
facet normal 0.9999999996659569 -7.911100097727722e-06 -2.4606925695202276e-05
  outer loop
    vertex 188.19091317904568 117.2469940962258 299.20166488943397
    vertex 188.19102220758418 114.27065310518246 304.60165984156276
    vertex 188.190913179311 114.24699409626477 299.2016801751043
  endloop
endfacet
facet normal 0.9999999996659569 -7.911100097727722e-06 -2.4606925695202276e-05
  outer loop
    vertex 188.19102220758418 114.27065310518246 304.60165984156276
    vertex 188.19091317904568 117.2469940962258 299.20166488943397
    vertex 188.1910638946604 117.24699410488618 304.60166488733057
  endloop
endfacet
facet normal -0.9999999996659569 7.91110009772773e-06 2.460692569520228e-05
  outer loop
    vertex 200.0910222029323 114.27048643134432 304.60132771359093
    vertex 200.09091317439393 117.24682742238758 299.2013327614621
    vertex 200.0909131746592 114.2468274224264 299.20134804713285
  endloop
endfacet
facet normal -0.9999999996659569 7.91110009772773e-06 2.460692569520228e-05
  outer loop
    vertex 200.09091317439393 117.24682742238758 299.2013327614621
    vertex 200.0910222029323 114.27048643134432 304.60132771359093
    vertex 200.09106389000848 117.24682743104798 304.60133275935885
  endloop
endfacet
facet normal 0.258844623352834 0.9659189722484273 3.4454669271194413e-06
  outer loop
    vertex 192.07051618832384 117.41954921206997 308.35145805858053
    vertex 194.14106332720192 117.14691076815538 304.60150493378165
    vertex 192.070518578677 117.41956194757952 304.6014580586029
  endloop
endfacet
facet normal 2.9808302874706475e-05 0.999999999549966 3.396017248841368e-06
  outer loop
    vertex 194.14106332720192 117.14691076815538 304.60150493378165
    vertex 192.07051618832384 117.41954921206997 308.35145805858053
    vertex 193.37985536488887 117.24713425957428 308.351476998133
  endloop
endfacet
facet normal 2.9808302874706475e-05 0.999999999549966 3.396017248841368e-06
  outer loop
    vertex 194.14106332720192 117.14691076815538 304.60150493378165
    vertex 193.37985536488887 117.24713425957428 308.351476998133
    vertex 194.14106093684873 117.14689803264564 308.35150493375914
  endloop
endfacet
facet normal -1.2057706346922267e-05 0.0001871302722717405 0.9999999824184364
  outer loop
    vertex 194.90267961841303 117.24714541382374 308.3514953578136
    vertex 193.37985536488887 117.24713425957428 308.351476998133
    vertex 194.14106093684873 117.14689803264564 308.35150493375914
  endloop
endfacet
facet normal 2.6961155578413394e-05 0.9999999996307815 3.3960154278223592e-06
  outer loop
    vertex 194.14106093684873 117.14689803264564 308.35150493375914
    vertex 196.21162329209614 117.41944636716289 304.60155527138244
    vertex 194.14106332720192 117.14691076815538 304.60150493378165
  endloop
endfacet
facet normal -0.25879025355768936 0.9659335404953293 3.11526373284005e-06
  outer loop
    vertex 196.21162329209614 117.41944636716289 304.60155527138244
    vertex 194.14106093684873 117.14689803264564 308.35150493375914
    vertex 194.90267961841303 117.24714541382374 308.3514953578136
  endloop
endfacet
facet normal -0.2587947788520811 0.9659323280795594 3.1152567385143155e-06
  outer loop
    vertex 196.21162090174295 117.41943363165338 308.35155527136
    vertex 196.21162329209614 117.41944636716289 304.60155527138244
    vertex 194.90267961841303 117.24714541382374 308.3514953578136
  endloop
endfacet
facet normal 0.5000228540908439 0.8660122085607225 3.2598234743071387e-06
  outer loop
    vertex 190.14109085904298 118.21880644262582 308.3514178402898
    vertex 192.070518578677 117.41956194757952 304.6014580586029
    vertex 190.14109324939625 118.21881917813535 304.60141784031214
  endloop
endfacet
facet normal 0.2588477137142972 0.9659181440955593 3.4454660825334354e-06
  outer loop
    vertex 192.070518578677 117.41956194757952 304.6014580586029
    vertex 190.14109085904298 118.21880644262582 308.3514178402898
    vertex 192.07051618832384 117.41954921206997 308.35145805858053
  endloop
endfacet
facet normal 0.7071259218222022 0.70708764002701 2.852107241041645e-06
  outer loop
    vertex 188.48427209667096 119.49020166488562 308.3513870196966
    vertex 190.14109324939625 118.21881917813535 304.60141784031214
    vertex 188.48427448702418 119.4902144003951 304.601387019719
  endloop
endfacet
facet normal 0.5000254879904007 0.8660106877800845 3.25981998844953e-06
  outer loop
    vertex 190.14109324939625 118.21881917813535 304.60141784031214
    vertex 188.48427209667096 119.49020166488562 308.3513870196966
    vertex 190.14109085904298 118.21880644262582 308.3514178402898
  endloop
endfacet
facet normal -0.4999773583837548 0.8660384755290754 2.6224850122000973e-06
  outer loop
    vertex 198.14109084316104 118.21858315840663 308.35160564095827
    vertex 199.79798296354832 119.4898986288243 304.6016526099716
    vertex 198.14109323351406 118.21859589391617 304.60160564098084
  endloop
endfacet
facet normal -0.7070859737055247 0.7071275880526121 1.9507853109021624e-06
  outer loop
    vertex 199.79798296354832 119.4898986288243 304.6016526099716
    vertex 198.14109084316104 118.21858315840663 308.35160564095827
    vertex 199.7979805731951 119.48988589331444 308.3516526099493
  endloop
endfacet
facet normal -0.2587947788520811 0.9659323280795594 3.1152567385143155e-06
  outer loop
    vertex 196.21162090174295 117.41943363165338 308.35155527136
    vertex 198.14109323351406 118.21859589391617 304.60160564098084
    vertex 196.21162329209614 117.41944636716289 304.60155527138244
  endloop
endfacet
facet normal -0.49997429912971814 0.8660402416763723 2.6224929603290653e-06
  outer loop
    vertex 198.14109323351406 118.21859589391617 304.60160564098084
    vertex 196.21162090174295 117.41943363165338 308.35155527136
    vertex 198.14109084316104 118.21858315840663 308.35160564095827
  endloop
endfacet
facet normal -0.7933363492792808 0.6087835714847961 1.5618173029863236e-06
  outer loop
    vertex 201.06992113315144 121.14664483481887 308.32925583918774
    vertex 199.79798296354832 119.4898986288243 304.6016526099716
    vertex 199.7979805731951 119.48988589331444 308.3516526099493
  endloop
endfacet
facet normal -0.7070859737055247 0.7071275880526121 1.9507853109021624e-06
  outer loop
    vertex 199.79798296354832 119.4898986288243 304.6016526099716
    vertex 201.06992113315144 121.14664483481887 308.32925583918774
    vertex 200.09103231883316 119.87178591447942 304.6016619144564
  endloop
endfacet
facet normal -0.7933363492792808 0.6087835714847961 1.5618173029863236e-06
  outer loop
    vertex 200.09103231883316 119.87178591447942 304.6016619144564
    vertex 201.06992113315144 121.14664483481887 308.32925583918774
    vertex 201.0693781852363 121.14671739142975 304.6016929774966
  endloop
endfacet
facet normal 0.7071273427142679 0.7070862190551613 2.8521033209438784e-06
  outer loop
    vertex 188.48427448702418 119.4902144003951 304.601387019719
    vertex 187.19701092777487 121.14721806048044 308.3513839491042
    vertex 188.48427209667096 119.49020166488562 308.3513870196966
  endloop
endfacet
facet normal 0.793370330835628 0.60873928585491 2.573077426848425e-06
  outer loop
    vertex 187.19701092777487 121.14721806048044 308.3513839491042
    vertex 188.48427448702418 119.4902144003951 304.601387019719
    vertex 188.19103234969046 119.87239708012166 304.60138256273353
  endloop
endfacet
facet normal 0.793370330835628 0.60873928585491 2.573077426848425e-06
  outer loop
    vertex 187.19701092777487 121.14721806048044 308.3513839491042
    vertex 188.19103234969046 119.87239708012166 304.60138256273353
    vertex 187.21297175219402 121.14710413104201 304.6013676971967
  endloop
endfacet
facet normal -2.4756002827118563e-05 -5.0952192243713945e-06 -0.9999999996805896
  outer loop
    vertex 188.19091317904568 117.2469940962258 299.20166488943397
    vertex 168.13454019176243 114.24725066265962 299.20217668943206
    vertex 168.13454019149705 117.24725066262076 299.2021614037613
  endloop
endfacet
facet normal -2.4756002827118563e-05 -5.0952192243713945e-06 -0.9999999996805896
  outer loop
    vertex 168.13454019176243 114.24725066265962 299.20217668943206
    vertex 188.19091317904568 117.2469940962258 299.20166488943397
    vertex 188.190913179311 114.24699409626477 299.2016801751043
  endloop
endfacet
facet normal -0.9999999996105101 -1.179663905588027e-11 2.7910212880218867e-05
  outer loop
    vertex 168.13487930072694 117.24725066261985 311.35216139902906
    vertex 168.13454019176243 114.24725066265962 299.20217668943206
    vertex 168.1348793009923 114.24725066265854 311.35217668469977
  endloop
endfacet
facet normal -0.9999999996105101 -1.179663905588027e-11 2.7910212880218867e-05
  outer loop
    vertex 168.13454019176243 114.24725066265962 299.20217668943206
    vertex 168.13487930072694 117.24725066261985 311.35216139902906
    vertex 168.13454019149705 117.24725066262076 299.2021614037613
  endloop
endfacet
endsolid SAV_SMARTCUBE55
