solid SAV_SMARTCUBE54
facet normal -0.4999999999999739 8.196807622297566e-08 -0.8660254037844498
  outer loop
    vertex 265.7427521846295 330.4035703375248 368.75829529069676
    vertex 264.70721828958943 324.903570259358 369.55288787683
    vertex 264.70721827869676 330.4035702593582 369.5528884036862
  endloop
endfacet
facet normal -0.7071067811865251 6.633476198411537e-08 -0.7071067811865668
  outer loop
    vertex 264.70721828958943 324.903570259358 369.55288787683
    vertex 265.7427521846295 330.4035703375248 368.75829529069676
    vertex 265.7427521955222 324.9035703375244 368.7582947638406
  endloop
endfacet
facet normal 0.258819045102519 9.304058752270803e-08 -0.9659258262890642
  outer loop
    vertex 268.95450456955393 324.903570183546 370.4321257604678
    vertex 268.2427522074051 318.9035701911122 370.3384212080106
    vertex 268.242752195522 324.90357019111246 370.33842178276274
  endloop
endfacet
facet normal 1.7643997593380663e-15 9.57920282999779e-08 -0.9999999999999954
  outer loop
    vertex 268.2427522074051 318.9035701911122 370.3384212080106
    vertex 268.95450456955393 324.903570183546 370.4321257604678
    vertex 268.95450458143705 318.9035701835457 370.4321251857157
  endloop
endfacet
facet normal -0.7071067811865693 -6.913562498730559e-08 0.7071067811865224
  outer loop
    vertex 264.70721828958926 324.90356958200607 376.62395568869545
    vertex 265.7427521846293 330.4035695079415 377.41854932854113
    vertex 264.7072182786966 330.4035695820063 376.62395621555163
  endloop
endfacet
facet normal -0.5000000000000191 -8.394858544570644e-08 0.8660254037844235
  outer loop
    vertex 265.7427521846293 330.4035695079415 377.41854932854113
    vertex 264.70721828958926 324.90356958200607 376.62395568869545
    vertex 265.742752195522 324.9035695079412 377.41854880168495
  endloop
endfacet
facet normal -0.8660254037844428 -4.961118521274279e-08 0.49999999999999034
  outer loop
    vertex 265.8611823351148 324.9035697912536 374.46342178276274
    vertex 265.5864561851102 318.9035698542431 373.80017358204253
    vertex 265.8611823469979 318.90356979125335 374.46342120801063
  endloop
endfacet
facet normal -0.965925826289067 -2.670582603662568e-08 0.2588190451025244
  outer loop
    vertex 265.5864561851102 318.9035698542431 373.80017358204253
    vertex 265.8611823351148 324.9035697912536 374.46342178276274
    vertex 265.5864561732271 324.90356985424336 373.80017415679464
  endloop
endfacet
facet normal -2.1386663749552984e-14 -9.579202927745737e-08 0.9999999999999953
  outer loop
    vertex 268.2427521955219 324.903569448724 378.0884217827628
    vertex 269.5368474101419 330.40356946760744 377.91805144106434
    vertex 268.2427521846293 330.4035694487242 378.088422309619
  endloop
endfacet
facet normal 0.25881904510251363 -9.201540152589026e-08 0.9659258262890659
  outer loop
    vertex 269.5368474101419 330.40356946760744 377.91805144106434
    vertex 268.2427521955219 324.903569448724 378.0884217827628
    vertex 269.53684742103457 324.90356946760716 377.91805091420815
  endloop
endfacet
facet normal -0.2588190451025475 -9.304058853757856e-08 0.9659258262890565
  outer loop
    vertex 266.9486569700094 324.90356946248124 377.9180509142081
    vertex 268.2427521846293 330.4035694487242 378.088422309619
    vertex 266.9486569591167 330.40356946248147 377.9180514410643
  endloop
endfacet
facet normal -1.7038042120476644e-14 -9.57920292774574e-08 0.9999999999999953
  outer loop
    vertex 268.2427521846293 330.4035694487242 378.088422309619
    vertex 266.9486569700094 324.90356946248124 377.9180509142081
    vertex 268.2427521955219 324.903569448724 378.0884217827628
  endloop
endfacet
facet normal -0.500000000000024 -8.39485854457062e-08 0.8660254037844208
  outer loop
    vertex 265.742752195522 324.9035695079412 377.41854880168495
    vertex 266.9486569591167 330.40356946248147 377.9180514410643
    vertex 265.7427521846293 330.4035695079415 377.41854932854113
  endloop
endfacet
facet normal -0.2588190451025432 -9.304058853757866e-08 0.9659258262890578
  outer loop
    vertex 266.9486569591167 330.40356946248147 377.9180514410643
    vertex 265.742752195522 324.9035695079412 377.41854880168495
    vertex 266.9486569700094 324.90356946248124 377.9180509142081
  endloop
endfacet
facet normal -2.1386663749553e-15 9.579202829997787e-08 -0.9999999999999953
  outer loop
    vertex 268.242752195522 324.90357019111246 370.33842178276274
    vertex 267.5309998333732 318.90357018072643 370.4321251857157
    vertex 267.53099982149007 324.9035701807267 370.4321257604678
  endloop
endfacet
facet normal -0.25881904510252474 9.201540065241581e-08 -0.9659258262890629
  outer loop
    vertex 267.5309998333732 318.90357018072643 370.4321251857157
    vertex 268.242752195522 324.90357019111246 370.33842178276274
    vertex 268.2427522074051 318.9035701911122 370.3384212080106
  endloop
endfacet
facet normal 0.965925826289068 2.6705826036625366e-08 -0.2588190451025211
  outer loop
    vertex 270.89904822970004 318.9035700011251 372.37666883397867
    vertex 270.992752195522 324.9035699331307 373.08842178276274
    vertex 270.9927522074051 318.9035699331305 373.08842120801063
  endloop
endfacet
facet normal 0.9999999999999999 1.9805089495752038e-09 -3.0297773645199425e-16
  outer loop
    vertex 270.992752195522 324.9035699331307 373.08842178276274
    vertex 270.89904822970004 318.9035700011251 372.37666883397867
    vertex 270.8990482178169 324.90357000112533 372.3766694087308
  endloop
endfacet
facet normal 0.49999999999999606 8.394858446260653e-08 -0.8660254037844368
  outer loop
    vertex 269.617752195522 324.9035701585429 370.7068519223555
    vertex 268.95450458143705 318.9035701835457 370.4321251857157
    vertex 268.95450456955393 324.903570183546 370.4321257604678
  endloop
endfacet
facet normal 0.25881904510252757 9.304058752270786e-08 -0.965925826289062
  outer loop
    vertex 268.95450458143705 318.9035701835457 370.4321251857157
    vertex 269.617752195522 324.9035701585429 370.7068519223555
    vertex 269.6177522074051 318.9035701585427 370.7068513476034
  endloop
endfacet
facet normal -0.9659258262890673 2.2879776549443004e-08 -0.2588190451025234
  outer loop
    vertex 265.5864561732271 324.9035699906037 372.3766694087308
    vertex 265.8611823469979 318.90357005468144 371.7134212080106
    vertex 265.5864561851102 318.9035699906035 372.37666883397867
  endloop
endfacet
facet normal -0.8660254037844419 4.6180843087233886e-08 -0.4999999999999923
  outer loop
    vertex 265.8611823469979 318.90357005468144 371.7134212080106
    vertex 265.5864561732271 324.9035699906037 372.3766694087308
    vertex 265.8611823351148 324.9035700546817 371.71342178276274
  endloop
endfacet
facet normal -1.9805092227332815e-09 0.9999999999999956 9.579202927745738e-08
  outer loop
    vertex 266.94865695911693 330.4035703877614 368.2587931781737
    vertex 269.5368474101421 330.40357039288733 368.25879317817373
    vertex 268.2427521846296 330.4035704066446 368.08842230961903
  endloop
endfacet
facet normal -1.9805092227332815e-09 0.9999999999999956 9.579202927745738e-08
  outer loop
    vertex 269.5368474101421 330.40357039288733 368.25879317817373
    vertex 266.94865695911693 330.4035703877614 368.2587931781737
    vertex 265.7427521846295 330.4035703375248 368.75829529069676
  endloop
endfacet
facet normal -1.9805092227332815e-09 0.9999999999999956 9.579202927745738e-08
  outer loop
    vertex 269.5368474101421 330.40357039288733 368.25879317817373
    vertex 265.7427521846295 330.4035703375248 368.75829529069676
    vertex 270.7427521846295 330.4035703474273 368.75829529069694
  endloop
endfacet
facet normal -1.9805092227332815e-09 0.9999999999999956 9.579202927745738e-08
  outer loop
    vertex 270.7427521846295 330.4035703474273 368.75829529069694
    vertex 265.7427521846295 330.4035703375248 368.75829529069676
    vertex 264.70721827869676 330.4035702593582 369.5528884036862
  endloop
endfacet
facet normal -1.9805092227332815e-09 0.9999999999999956 9.579202927745738e-08
  outer loop
    vertex 270.7427521846295 330.4035703474273 368.75829529069694
    vertex 264.70721827869676 330.4035702593582 369.5528884036862
    vertex 271.7782860905623 330.4035702733625 369.5528884036864
  endloop
endfacet
facet normal -1.9805092227332815e-09 0.9999999999999956 9.579202927745738e-08
  outer loop
    vertex 271.7782860905623 330.4035702733625 369.5528884036864
    vertex 264.70721827869676 330.4035702593582 369.5528884036862
    vertex 263.9126251657073 330.40357015858865 370.5884223096189
  endloop
endfacet
facet normal -1.9805092227332815e-09 0.9999999999999956 9.579202927745738e-08
  outer loop
    vertex 271.7782860905623 330.4035702733625 369.5528884036864
    vertex 263.9126251657073 330.40357015858865 370.5884223096189
    vertex 272.5728792035517 330.40357017574036 370.58842230961915
  endloop
endfacet
facet normal -1.9805092227332815e-09 0.9999999999999956 9.579202927745738e-08
  outer loop
    vertex 272.5728792035517 330.40357017574036 370.58842230961915
    vertex 263.9126251657073 330.40357015858865 370.5884223096189
    vertex 263.41312305318417 330.4035700420833 371.79432708410627
  endloop
endfacet
facet normal -1.9805092227332815e-09 0.9999999999999956 9.579202927745738e-08
  outer loop
    vertex 272.5728792035517 330.40357017574036 370.58842230961915
    vertex 263.41312305318417 330.4035700420833 371.79432708410627
    vertex 273.0723813160748 330.40357006121354 371.79432708410656
  endloop
endfacet
facet normal -1.9805092227332815e-09 0.9999999999999956 9.579202927745738e-08
  outer loop
    vertex 273.0723813160748 330.40357006121354 371.79432708410656
    vertex 263.41312305318417 330.4035700420833 371.79432708410627
    vertex 263.2427521846294 330.40356991778185 373.08842230961886
  endloop
endfacet
facet normal -1.9805092227332815e-09 0.9999999999999956 9.579202927745738e-08
  outer loop
    vertex 273.0723813160748 330.40357006121354 371.79432708410656
    vertex 263.2427521846294 330.40356991778185 373.08842230961886
    vertex 273.2427521846294 330.40356993758695 373.08842230961915
  endloop
endfacet
facet normal -1.9805092227332815e-09 0.9999999999999956 9.579202927745738e-08
  outer loop
    vertex 273.2427521846294 330.40356993758695 373.08842230961915
    vertex 263.2427521846294 330.40356991778185 373.08842230961886
    vertex 263.41312305318405 330.4035697941553 374.3825175351315
  endloop
endfacet
facet normal -1.9805092227332815e-09 0.9999999999999956 9.579202927745738e-08
  outer loop
    vertex 273.2427521846294 330.40356993758695 373.08842230961915
    vertex 263.41312305318405 330.4035697941553 374.3825175351315
    vertex 273.0723813160747 330.4035698132855 374.38251753513174
  endloop
endfacet
facet normal -1.9805092227332815e-09 0.9999999999999956 9.579202927745738e-08
  outer loop
    vertex 273.0723813160747 330.4035698132855 374.38251753513174
    vertex 263.41312305318405 330.4035697941553 374.3825175351315
    vertex 263.91262516570714 330.40356967962845 375.58842230961886
  endloop
endfacet
facet normal -1.9805092227332815e-09 0.9999999999999956 9.579202927745738e-08
  outer loop
    vertex 273.0723813160747 330.4035698132855 374.38251753513174
    vertex 263.91262516570714 330.40356967962845 375.58842230961886
    vertex 272.57287920355157 330.40356969678015 375.5884223096191
  endloop
endfacet
facet normal -1.9805092227332815e-09 0.9999999999999956 9.579202927745738e-08
  outer loop
    vertex 272.57287920355157 330.40356969678015 375.5884223096191
    vertex 263.91262516570714 330.40356967962845 375.58842230961886
    vertex 264.7072182786966 330.4035695820063 376.62395621555163
  endloop
endfacet
facet normal -1.9805092227332815e-09 0.9999999999999956 9.579202927745738e-08
  outer loop
    vertex 272.57287920355157 330.40356969678015 375.5884223096191
    vertex 264.7072182786966 330.4035695820063 376.62395621555163
    vertex 271.77828609056206 330.4035695960106 376.6239562155518
  endloop
endfacet
facet normal -1.9805092227332815e-09 0.9999999999999956 9.579202927745738e-08
  outer loop
    vertex 271.77828609056206 330.4035695960106 376.6239562155518
    vertex 264.7072182786966 330.4035695820063 376.62395621555163
    vertex 265.7427521846293 330.4035695079415 377.41854932854113
  endloop
endfacet
facet normal -1.9805092227332815e-09 0.9999999999999956 9.579202927745738e-08
  outer loop
    vertex 271.77828609056206 330.4035695960106 376.6239562155518
    vertex 265.7427521846293 330.4035695079415 377.41854932854113
    vertex 270.7427521846293 330.403569517844 377.4185493285412
  endloop
endfacet
facet normal -1.9805092227332815e-09 0.9999999999999956 9.579202927745738e-08
  outer loop
    vertex 270.7427521846293 330.403569517844 377.4185493285412
    vertex 265.7427521846293 330.4035695079415 377.41854932854113
    vertex 266.9486569591167 330.40356946248147 377.9180514410643
  endloop
endfacet
facet normal -1.9805092227332815e-09 0.9999999999999956 9.579202927745738e-08
  outer loop
    vertex 270.7427521846293 330.403569517844 377.4185493285412
    vertex 266.9486569591167 330.40356946248147 377.9180514410643
    vertex 269.5368474101419 330.40356946760744 377.91805144106434
  endloop
endfacet
facet normal -1.9805092227332815e-09 0.9999999999999956 9.579202927745738e-08
  outer loop
    vertex 269.5368474101419 330.40356946760744 377.91805144106434
    vertex 266.9486569591167 330.40356946248147 377.9180514410643
    vertex 268.2427521846293 330.4035694487242 378.088422309619
  endloop
endfacet
facet normal -1.0 -1.980508949575112e-09 -6.594221322778771e-16
  outer loop
    vertex 265.492752195522 324.903569922238 373.08842178276274
    vertex 265.5864561851102 318.9035699906035 372.37666883397867
    vertex 265.4927522074051 318.9035699222377 373.08842120801063
  endloop
endfacet
facet normal -0.9659258262890674 2.2879776549442918e-08 -0.25881904510252257
  outer loop
    vertex 265.5864561851102 318.9035699906035 372.37666883397867
    vertex 265.492752195522 324.903569922238 373.08842178276274
    vertex 265.5864561732271 324.9035699906037 372.3766694087308
  endloop
endfacet
facet normal 0.25881904510250936 -9.201540152589038e-08 0.965925826289067
  outer loop
    vertex 269.53684742103457 324.90356946760716 377.91805091420815
    vertex 270.7427521846293 330.403569517844 377.4185493285412
    vertex 269.5368474101419 330.40356946760744 377.91805144106434
  endloop
endfacet
facet normal 0.49999999999997596 -8.196807622297554e-08 0.8660254037844486
  outer loop
    vertex 270.7427521846293 330.403569517844 377.4185493285412
    vertex 269.53684742103457 324.90356946760716 377.91805091420815
    vertex 270.742752195522 324.9035695178438 377.418548801685
  endloop
endfacet
facet normal -0.8660254037844287 4.618084333941395e-08 -0.5000000000000151
  outer loop
    vertex 263.9126251657073 330.40357015858865 370.5884223096189
    vertex 264.70721828958943 324.903570259358 369.55288787683
    vertex 263.91262517659993 324.9035701585882 370.58842178276274
  endloop
endfacet
facet normal -0.7071067811865251 6.633476198411537e-08 -0.7071067811865668
  outer loop
    vertex 264.70721828958943 324.903570259358 369.55288787683
    vertex 263.9126251657073 330.40357015858865 370.5884223096189
    vertex 264.70721827869676 330.4035702593582 369.5528884036862
  endloop
endfacet
facet normal -0.965925826289062 2.2879776538584733e-08 -0.25881904510254333
  outer loop
    vertex 263.41312305318417 330.4035700420833 371.79432708410627
    vertex 263.91262517659993 324.9035701585882 370.58842178276274
    vertex 263.4131230640768 324.90357004208306 371.7943265572501
  endloop
endfacet
facet normal -0.8660254037844299 4.618084333941374e-08 -0.500000000000013
  outer loop
    vertex 263.91262517659993 324.9035701585882 370.58842178276274
    vertex 263.41312305318417 330.4035700420833 371.79432708410627
    vertex 263.9126251657073 330.40357015858865 370.5884223096189
  endloop
endfacet
facet normal 0.8660254037844395 -4.618084308723427e-08 0.49999999999999634
  outer loop
    vertex 270.62432206781233 318.90356980068674 374.46342120801063
    vertex 270.18729584378497 324.9035697452637 375.03296543102573
    vertex 270.1872958556681 318.9035697452634 375.0329648562736
  endloop
endfacet
facet normal 0.7071067811865489 -6.633476148608265e-08 0.707106781186543
  outer loop
    vertex 270.18729584378497 324.9035697452637 375.03296543102573
    vertex 270.62432206781233 318.90356980068674 374.46342120801063
    vertex 270.6243220559292 324.903569800687 374.46342178276274
  endloop
endfacet
facet normal 0.7071067811865513 6.913562410297295e-08 -0.7071067811865405
  outer loop
    vertex 270.18729584378497 324.9035701178073 371.14387813449974
    vertex 269.6177522074051 318.9035701585427 370.7068513476034
    vertex 269.617752195522 324.9035701585429 370.7068519223555
  endloop
endfacet
facet normal 0.4999999999999983 8.394858446260647e-08 -0.8660254037844356
  outer loop
    vertex 269.6177522074051 318.9035701585427 370.7068513476034
    vertex 270.18729584378497 324.9035701178073 371.14387813449974
    vertex 270.1872958556681 318.903570117807 371.1438775597476
  endloop
endfacet
facet normal -0.2588190451025225 9.201540065241587e-08 -0.9659258262890633
  outer loop
    vertex 267.53099982149007 324.9035701807267 370.4321257604678
    vertex 266.8677522074051 318.9035701530963 370.7068513476034
    vertex 266.867752195522 324.9035701530965 370.7068519223555
  endloop
endfacet
facet normal -0.49999999999999667 8.196807551303133e-08 -0.8660254037844366
  outer loop
    vertex 266.8677522074051 318.9035701530963 370.7068513476034
    vertex 267.53099982149007 324.9035701807267 370.4321257604678
    vertex 267.5309998333732 318.90357018072643 370.4321251857157
  endloop
endfacet
facet normal 0.8660254037844428 4.961118521274279e-08 -0.49999999999999034
  outer loop
    vertex 270.62432206781233 318.90357006411483 371.7134212080106
    vertex 270.8990482178169 324.90357000112533 372.3766694087308
    vertex 270.89904822970004 318.9035700011251 372.37666883397867
  endloop
endfacet
facet normal 0.965925826289067 2.670582603662568e-08 -0.2588190451025244
  outer loop
    vertex 270.8990482178169 324.90357000112533 372.3766694087308
    vertex 270.62432206781233 318.90357006411483 371.7134212080106
    vertex 270.6243220559292 324.9035700641151 371.71342178276274
  endloop
endfacet
facet normal 0.9659258262890673 -2.2879776549443004e-08 0.2588190451025234
  outer loop
    vertex 270.89904822970004 318.9035698647647 373.80017358204253
    vertex 270.6243220559292 324.903569800687 374.46342178276274
    vertex 270.62432206781233 318.90356980068674 374.46342120801063
  endloop
endfacet
facet normal 0.8660254037844419 -4.6180843087233886e-08 0.4999999999999923
  outer loop
    vertex 270.6243220559292 324.903569800687 374.46342178276274
    vertex 270.89904822970004 318.9035698647647 373.80017358204253
    vertex 270.8990482178169 324.90356986476496 373.80017415679464
  endloop
endfacet
facet normal 0.4999999999999739 -8.196807622297566e-08 0.8660254037844498
  outer loop
    vertex 270.742752195522 324.9035695178438 377.418548801685
    vertex 271.77828609056206 330.4035695960106 376.6239562155518
    vertex 270.7427521846293 330.403569517844 377.4185493285412
  endloop
endfacet
facet normal 0.7071067811865251 -6.633476198411537e-08 0.7071067811865667
  outer loop
    vertex 271.77828609056206 330.4035695960106 376.6239562155518
    vertex 270.742752195522 324.9035695178438 377.418548801685
    vertex 271.77828610145474 324.90356959601036 376.6239556886956
  endloop
endfacet
facet normal 0.7071067811865503 6.913562410297306e-08 -0.7071067811865414
  outer loop
    vertex 270.1872958556681 318.903570117807 371.1438775597476
    vertex 270.6243220559292 324.9035700641151 371.71342178276274
    vertex 270.62432206781233 318.90357006411483 371.7134212080106
  endloop
endfacet
facet normal 0.8660254037844412 4.961118521274307e-08 -0.4999999999999932
  outer loop
    vertex 270.6243220559292 324.9035700641151 371.71342178276274
    vertex 270.1872958556681 318.903570117807 371.1438775597476
    vertex 270.18729584378497 324.9035701178073 371.14387813449974
  endloop
endfacet
facet normal -1.0 -1.9805092227299376e-09 -3.511868409874431e-14
  outer loop
    vertex 263.2427521846294 330.40356991778185 373.08842230961886
    vertex 263.4131230640768 324.90357004208306 371.7943265572501
    vertex 263.2427521955221 324.9035699177816 373.0884217827627
  endloop
endfacet
facet normal -0.9659258262890607 2.2879776538585163e-08 -0.2588190451025478
  outer loop
    vertex 263.4131230640768 324.90357004208306 371.7943265572501
    vertex 263.2427521846294 330.40356991778185 373.08842230961886
    vertex 263.41312305318417 330.4035700420833 371.79432708410627
  endloop
endfacet
facet normal 0.258819045102563 9.304058853757819e-08 -0.9659258262890525
  outer loop
    vertex 269.5368474101421 330.40357039288733 368.25879317817373
    vertex 268.2427521955222 324.90357040664435 368.08842178276285
    vertex 268.2427521846296 330.4035704066446 368.08842230961903
  endloop
endfacet
facet normal 1.7038042120476644e-14 9.57920292774574e-08 -0.9999999999999953
  outer loop
    vertex 268.2427521955222 324.90357040664435 368.08842178276285
    vertex 269.5368474101421 330.40357039288733 368.25879317817373
    vertex 269.5368474210348 324.9035703928871 368.25879265131755
  endloop
endfacet
facet normal 0.8660254037844287 -4.618084333941395e-08 0.5000000000000151
  outer loop
    vertex 272.5728792144442 324.9035696967799 375.5884217827629
    vertex 271.77828609056206 330.4035695960106 376.6239562155518
    vertex 271.77828610145474 324.90356959601036 376.6239556886956
  endloop
endfacet
facet normal 0.7071067811865251 -6.633476198411537e-08 0.7071067811865667
  outer loop
    vertex 271.77828609056206 330.4035695960106 376.6239562155518
    vertex 272.5728792144442 324.9035696967799 375.5884217827629
    vertex 272.57287920355157 330.40356969678015 375.5884223096191
  endloop
endfacet
facet normal -0.25881904510250936 9.201540152589038e-08 -0.965925826289067
  outer loop
    vertex 266.94865695911693 330.4035703877614 368.2587931781737
    vertex 265.7427521955222 324.9035703375244 368.7582947638406
    vertex 265.7427521846295 330.4035703375248 368.75829529069676
  endloop
endfacet
facet normal -0.4999999999999759 8.196807622297553e-08 -0.8660254037844486
  outer loop
    vertex 265.7427521955222 324.9035703375244 368.7582947638406
    vertex 266.94865695911693 330.4035703877614 368.2587931781737
    vertex 266.9486569700096 324.90357038776114 368.2587926513175
  endloop
endfacet
facet normal 2.1386663749552984e-14 9.579202927745737e-08 -0.9999999999999953
  outer loop
    vertex 268.2427521846296 330.4035704066446 368.08842230961903
    vertex 266.9486569700096 324.90357038776114 368.2587926513175
    vertex 266.94865695911693 330.4035703877614 368.2587931781737
  endloop
endfacet
facet normal -0.25881904510251924 9.201540152589009e-08 -0.9659258262890643
  outer loop
    vertex 266.9486569700096 324.90357038776114 368.2587926513175
    vertex 268.2427521846296 330.4035704066446 368.08842230961903
    vertex 268.2427521955222 324.90357040664435 368.08842178276285
  endloop
endfacet
facet normal 0.965925826289062 -2.2879776538584733e-08 0.25881904510254333
  outer loop
    vertex 273.07238132696733 324.9035698132853 374.38251700827556
    vertex 272.57287920355157 330.40356969678015 375.5884223096191
    vertex 272.5728792144442 324.9035696967799 375.5884217827629
  endloop
endfacet
facet normal 0.8660254037844299 -4.618084333941372e-08 0.5000000000000129
  outer loop
    vertex 272.57287920355157 330.40356969678015 375.5884223096191
    vertex 273.07238132696733 324.9035698132853 374.38251700827556
    vertex 273.0723813160747 330.4035698132855 374.38251753513174
  endloop
endfacet
facet normal 1.0 1.9805092227301543e-09 3.285526218525001e-14
  outer loop
    vertex 273.2427521955221 324.9035699375867 373.08842178276296
    vertex 273.0723813160747 330.4035698132855 374.38251753513174
    vertex 273.07238132696733 324.9035698132853 374.38251700827556
  endloop
endfacet
facet normal 0.9659258262890622 -2.2879776538584624e-08 0.25881904510254217
  outer loop
    vertex 273.0723813160747 330.4035698132855 374.38251753513174
    vertex 273.2427521955221 324.9035699375867 373.08842178276296
    vertex 273.2427521846294 330.40356993758695 373.08842230961915
  endloop
endfacet
facet normal -0.707106781186567 -6.913562498730582e-08 0.7071067811865247
  outer loop
    vertex 264.7072182786966 330.4035695820063 376.62395621555163
    vertex 263.9126251765998 324.9035696796282 375.5884217827627
    vertex 264.70721828958926 324.90356958200607 376.62395568869545
  endloop
endfacet
facet normal -0.8660254037844499 -4.961118593804323e-08 0.4999999999999781
  outer loop
    vertex 263.9126251765998 324.9035696796282 375.5884217827627
    vertex 264.7072182786966 330.4035695820063 376.62395621555163
    vertex 263.91262516570714 330.40356967962845 375.58842230961886
  endloop
endfacet
facet normal 0.500000000000026 8.39485854457061e-08 -0.8660254037844196
  outer loop
    vertex 270.7427521846295 330.4035703474273 368.75829529069694
    vertex 269.5368474210348 324.9035703928871 368.25879265131755
    vertex 269.5368474101421 330.40357039288733 368.25879317817373
  endloop
endfacet
facet normal 0.25881904510256415 9.304058853757815e-08 -0.9659258262890521
  outer loop
    vertex 269.5368474210348 324.9035703928871 368.25879265131755
    vertex 270.7427521846295 330.4035703474273 368.75829529069694
    vertex 270.7427521955222 324.9035703474269 368.75829476384075
  endloop
endfacet
facet normal 0.9659258262890751 2.6705826553463572e-08 -0.25881904510249387
  outer loop
    vertex 273.07238132696745 324.90357006121326 371.7943265572504
    vertex 273.2427521846294 330.40356993758695 373.08842230961915
    vertex 273.2427521955221 324.9035699375867 373.08842178276296
  endloop
endfacet
facet normal 1.0 1.9805092227298524e-09 3.600979508830934e-14
  outer loop
    vertex 273.2427521846294 330.40356993758695 373.08842230961915
    vertex 273.07238132696745 324.90357006121326 371.7943265572504
    vertex 273.0723813160748 330.40357006121354 371.79432708410656
  endloop
endfacet
facet normal 0.8660254037844524 4.961118593804283e-08 -0.49999999999997385
  outer loop
    vertex 272.57287921444436 324.9035701757399 370.5884217827629
    vertex 273.0723813160748 330.40357006121354 371.79432708410656
    vertex 273.07238132696745 324.90357006121326 371.7943265572504
  endloop
endfacet
facet normal 0.9659258262890771 2.6705826553462884e-08 -0.2588190451024867
  outer loop
    vertex 273.0723813160748 330.40357006121354 371.79432708410656
    vertex 272.57287921444436 324.9035701757399 370.5884217827629
    vertex 272.5728792035517 330.40357017574036 370.58842230961915
  endloop
endfacet
facet normal 0.7071067811865573 6.913562498730672e-08 -0.7071067811865343
  outer loop
    vertex 271.7782861014549 324.9035702733623 369.5528878768302
    vertex 272.5728792035517 330.40357017574036 370.58842230961915
    vertex 272.57287921444436 324.9035701757399 370.5884217827629
  endloop
endfacet
facet normal 0.8660254037844533 4.9611185938042696e-08 -0.49999999999997224
  outer loop
    vertex 272.5728792035517 330.40357017574036 370.58842230961915
    vertex 271.7782861014549 324.9035702733623 369.5528878768302
    vertex 271.7782860905623 330.4035702733625 369.5528884036864
  endloop
endfacet
facet normal 0.7071067811865597 6.913562498730649e-08 -0.707106781186532
  outer loop
    vertex 271.7782860905623 330.4035702733625 369.5528884036864
    vertex 270.7427521955222 324.9035703474269 368.75829476384075
    vertex 270.7427521846295 330.4035703474273 368.75829529069694
  endloop
endfacet
facet normal 0.5000000000000211 8.394858544570635e-08 -0.8660254037844225
  outer loop
    vertex 270.7427521955222 324.9035703474269 368.75829476384075
    vertex 271.7782860905623 330.4035702733625 369.5528884036864
    vertex 271.7782861014549 324.9035702733623 369.5528878768302
  endloop
endfacet
facet normal 1.980509222733292e-09 -0.9999999999999956 -9.579202516850183e-08
  outer loop
    vertex 272.57287921444436 324.9035701757399 370.5884217827629
    vertex 268.242752195522 324.90357019111246 370.33842178276274
    vertex 271.7782861014549 324.9035702733623 369.5528878768302
  endloop
endfacet
facet normal 1.980509222733292e-09 -0.9999999999999956 -9.579202516850183e-08
  outer loop
    vertex 268.242752195522 324.90357019111246 370.33842178276274
    vertex 272.57287921444436 324.9035701757399 370.5884217827629
    vertex 268.95450456955393 324.903570183546 370.4321257604678
  endloop
endfacet
facet normal 1.980509222733292e-09 -0.9999999999999956 -9.579202516850183e-08
  outer loop
    vertex 268.95450456955393 324.903570183546 370.4321257604678
    vertex 272.57287921444436 324.9035701757399 370.5884217827629
    vertex 269.617752195522 324.9035701585429 370.7068519223555
  endloop
endfacet
facet normal 1.980509222733292e-09 -0.9999999999999956 -9.579202516850183e-08
  outer loop
    vertex 269.617752195522 324.9035701585429 370.7068519223555
    vertex 272.57287921444436 324.9035701757399 370.5884217827629
    vertex 273.07238132696745 324.90357006121326 371.7943265572504
  endloop
endfacet
facet normal 1.980509222733292e-09 -0.9999999999999956 -9.579202516850183e-08
  outer loop
    vertex 269.617752195522 324.9035701585429 370.7068519223555
    vertex 273.07238132696745 324.90357006121326 371.7943265572504
    vertex 270.18729584378497 324.9035701178073 371.14387813449974
  endloop
endfacet
facet normal 1.980509222733292e-09 -0.9999999999999956 -9.579202516850183e-08
  outer loop
    vertex 270.18729584378497 324.9035701178073 371.14387813449974
    vertex 273.07238132696745 324.90357006121326 371.7943265572504
    vertex 270.6243220559292 324.9035700641151 371.71342178276274
  endloop
endfacet
facet normal 1.980509222733292e-09 -0.9999999999999956 -9.579202516850183e-08
  outer loop
    vertex 270.6243220559292 324.9035700641151 371.71342178276274
    vertex 273.07238132696745 324.90357006121326 371.7943265572504
    vertex 270.8990482178169 324.90357000112533 372.3766694087308
  endloop
endfacet
facet normal 1.980509222733292e-09 -0.9999999999999956 -9.579202516850183e-08
  outer loop
    vertex 270.8990482178169 324.90357000112533 372.3766694087308
    vertex 273.07238132696745 324.90357006121326 371.7943265572504
    vertex 273.2427521955221 324.9035699375867 373.08842178276296
  endloop
endfacet
facet normal 1.980509222733292e-09 -0.9999999999999956 -9.579202516850183e-08
  outer loop
    vertex 270.8990482178169 324.90357000112533 372.3766694087308
    vertex 273.2427521955221 324.9035699375867 373.08842178276296
    vertex 270.992752195522 324.9035699331307 373.08842178276274
  endloop
endfacet
facet normal 1.980509222733292e-09 -0.9999999999999956 -9.579202516850183e-08
  outer loop
    vertex 270.992752195522 324.9035699331307 373.08842178276274
    vertex 273.2427521955221 324.9035699375867 373.08842178276296
    vertex 270.8990482178169 324.90356986476496 373.80017415679464
  endloop
endfacet
facet normal 1.980509222733292e-09 -0.9999999999999956 -9.579202516850183e-08
  outer loop
    vertex 270.8990482178169 324.90356986476496 373.80017415679464
    vertex 273.2427521955221 324.9035699375867 373.08842178276296
    vertex 273.07238132696733 324.9035698132853 374.38251700827556
  endloop
endfacet
facet normal 1.980509222733292e-09 -0.9999999999999956 -9.579202516850183e-08
  outer loop
    vertex 270.8990482178169 324.90356986476496 373.80017415679464
    vertex 273.07238132696733 324.9035698132853 374.38251700827556
    vertex 270.6243220559292 324.903569800687 374.46342178276274
  endloop
endfacet
facet normal 1.980509222733292e-09 -0.9999999999999956 -9.579202516850183e-08
  outer loop
    vertex 270.6243220559292 324.903569800687 374.46342178276274
    vertex 273.07238132696733 324.9035698132853 374.38251700827556
    vertex 272.5728792144442 324.9035696967799 375.5884217827629
  endloop
endfacet
facet normal 1.980509222733292e-09 -0.9999999999999956 -9.579202516850183e-08
  outer loop
    vertex 270.6243220559292 324.903569800687 374.46342178276274
    vertex 272.5728792144442 324.9035696967799 375.5884217827629
    vertex 270.18729584378497 324.9035697452637 375.03296543102573
  endloop
endfacet
facet normal 1.980509222733292e-09 -0.9999999999999956 -9.579202516850183e-08
  outer loop
    vertex 270.18729584378497 324.9035697452637 375.03296543102573
    vertex 272.5728792144442 324.9035696967799 375.5884217827629
    vertex 269.617752195522 324.90356970227214 375.4699916431699
  endloop
endfacet
facet normal 1.980509222733292e-09 -0.9999999999999956 -9.579202516850183e-08
  outer loop
    vertex 269.617752195522 324.90356970227214 375.4699916431699
    vertex 272.5728792144442 324.9035696967799 375.5884217827629
    vertex 268.95450456955393 324.903569674642 375.74471780505763
  endloop
endfacet
facet normal 1.980509222733292e-09 -0.9999999999999956 -9.579202516850183e-08
  outer loop
    vertex 268.95450456955393 324.903569674642 375.74471780505763
    vertex 272.5728792144442 324.9035696967799 375.5884217827629
    vertex 271.77828610145474 324.90356959601036 376.6239556886956
  endloop
endfacet
facet normal 1.980509222733292e-09 -0.9999999999999956 -9.579202516850183e-08
  outer loop
    vertex 268.95450456955393 324.903569674642 375.74471780505763
    vertex 271.77828610145474 324.90356959601036 376.6239556886956
    vertex 268.242752195522 324.9035696642563 375.83842178276274
  endloop
endfacet
facet normal 1.980509222733292e-09 -0.9999999999999956 -9.579202516850183e-08
  outer loop
    vertex 268.242752195522 324.9035696642563 375.83842178276274
    vertex 271.77828610145474 324.90356959601036 376.6239556886956
    vertex 264.70721828958926 324.90356958200607 376.62395568869545
  endloop
endfacet
facet normal 1.980509222733292e-09 -0.9999999999999956 -9.579202516850183e-08
  outer loop
    vertex 264.70721828958926 324.90356958200607 376.62395568869545
    vertex 271.77828610145474 324.90356959601036 376.6239556886956
    vertex 265.742752195522 324.9035695079412 377.41854880168495
  endloop
endfacet
facet normal 1.980509222733292e-09 -0.9999999999999956 -9.579202516850183e-08
  outer loop
    vertex 265.742752195522 324.9035695079412 377.41854880168495
    vertex 271.77828610145474 324.90356959601036 376.6239556886956
    vertex 270.742752195522 324.9035695178438 377.418548801685
  endloop
endfacet
facet normal 1.980509222733292e-09 -0.9999999999999956 -9.579202516850183e-08
  outer loop
    vertex 265.742752195522 324.9035695079412 377.41854880168495
    vertex 270.742752195522 324.9035695178438 377.418548801685
    vertex 266.9486569700094 324.90356946248124 377.9180509142081
  endloop
endfacet
facet normal 1.980509222733292e-09 -0.9999999999999956 -9.579202516850183e-08
  outer loop
    vertex 266.9486569700094 324.90356946248124 377.9180509142081
    vertex 270.742752195522 324.9035695178438 377.418548801685
    vertex 269.53684742103457 324.90356946760716 377.91805091420815
  endloop
endfacet
facet normal 1.980509222733292e-09 -0.9999999999999956 -9.579202516850183e-08
  outer loop
    vertex 266.9486569700094 324.90356946248124 377.9180509142081
    vertex 269.53684742103457 324.90356946760716 377.91805091420815
    vertex 268.2427521955219 324.903569448724 378.0884217827628
  endloop
endfacet
facet normal 1.980509222733292e-09 -0.9999999999999956 -9.579202516850183e-08
  outer loop
    vertex 269.5368474210348 324.9035703928871 368.25879265131755
    vertex 266.9486569700096 324.90357038776114 368.2587926513175
    vertex 268.2427521955222 324.90357040664435 368.08842178276285
  endloop
endfacet
facet normal 1.980509222733292e-09 -0.9999999999999956 -9.579202516850183e-08
  outer loop
    vertex 266.9486569700096 324.90357038776114 368.2587926513175
    vertex 269.5368474210348 324.9035703928871 368.25879265131755
    vertex 265.7427521955222 324.9035703375244 368.7582947638406
  endloop
endfacet
facet normal 1.980509222733292e-09 -0.9999999999999956 -9.579202516850183e-08
  outer loop
    vertex 265.7427521955222 324.9035703375244 368.7582947638406
    vertex 269.5368474210348 324.9035703928871 368.25879265131755
    vertex 270.7427521955222 324.9035703474269 368.75829476384075
  endloop
endfacet
facet normal 1.980509222733292e-09 -0.9999999999999956 -9.579202516850183e-08
  outer loop
    vertex 265.7427521955222 324.9035703375244 368.7582947638406
    vertex 270.7427521955222 324.9035703474269 368.75829476384075
    vertex 264.70721828958943 324.903570259358 369.55288787683
  endloop
endfacet
facet normal 1.980509222733292e-09 -0.9999999999999956 -9.579202516850183e-08
  outer loop
    vertex 264.70721828958943 324.903570259358 369.55288787683
    vertex 270.7427521955222 324.9035703474269 368.75829476384075
    vertex 271.7782861014549 324.9035702733623 369.5528878768302
  endloop
endfacet
facet normal 1.980509222733292e-09 -0.9999999999999956 -9.579202516850183e-08
  outer loop
    vertex 264.70721828958943 324.903570259358 369.55288787683
    vertex 271.7782861014549 324.9035702733623 369.5528878768302
    vertex 263.91262517659993 324.9035701585882 370.58842178276274
  endloop
endfacet
facet normal 1.980509222733292e-09 -0.9999999999999956 -9.579202516850183e-08
  outer loop
    vertex 263.91262517659993 324.9035701585882 370.58842178276274
    vertex 271.7782861014549 324.9035702733623 369.5528878768302
    vertex 268.242752195522 324.90357019111246 370.33842178276274
  endloop
endfacet
facet normal 1.980509222733292e-09 -0.9999999999999956 -9.579202516850183e-08
  outer loop
    vertex 263.91262517659993 324.9035701585882 370.58842178276274
    vertex 268.242752195522 324.90357019111246 370.33842178276274
    vertex 267.53099982149007 324.9035701807267 370.4321257604678
  endloop
endfacet
facet normal 1.980509222733292e-09 -0.9999999999999956 -9.579202516850183e-08
  outer loop
    vertex 263.91262517659993 324.9035701585882 370.58842178276274
    vertex 267.53099982149007 324.9035701807267 370.4321257604678
    vertex 266.867752195522 324.9035701530965 370.7068519223555
  endloop
endfacet
facet normal 1.980509222733292e-09 -0.9999999999999956 -9.579202516850183e-08
  outer loop
    vertex 263.91262517659993 324.9035701585882 370.58842178276274
    vertex 266.867752195522 324.9035701530965 370.7068519223555
    vertex 263.4131230640768 324.90357004208306 371.7943265572501
  endloop
endfacet
facet normal 1.980509222733292e-09 -0.9999999999999956 -9.579202516850183e-08
  outer loop
    vertex 263.4131230640768 324.90357004208306 371.7943265572501
    vertex 266.867752195522 324.9035701530965 370.7068519223555
    vertex 266.298208547259 324.90357011010497 371.14387813449974
  endloop
endfacet
facet normal 1.980509222733292e-09 -0.9999999999999956 -9.579202516850183e-08
  outer loop
    vertex 263.4131230640768 324.90357004208306 371.7943265572501
    vertex 266.298208547259 324.90357011010497 371.14387813449974
    vertex 265.8611823351148 324.9035700546817 371.71342178276274
  endloop
endfacet
facet normal 1.980509222733292e-09 -0.9999999999999956 -9.579202516850183e-08
  outer loop
    vertex 263.4131230640768 324.90357004208306 371.7943265572501
    vertex 265.8611823351148 324.9035700546817 371.71342178276274
    vertex 265.5864561732271 324.9035699906037 372.3766694087308
  endloop
endfacet
facet normal 1.980509222733292e-09 -0.9999999999999956 -9.579202516850183e-08
  outer loop
    vertex 263.4131230640768 324.90357004208306 371.7943265572501
    vertex 265.5864561732271 324.9035699906037 372.3766694087308
    vertex 263.2427521955221 324.9035699177816 373.0884217827627
  endloop
endfacet
facet normal 1.980509222733292e-09 -0.9999999999999956 -9.579202516850183e-08
  outer loop
    vertex 263.2427521955221 324.9035699177816 373.0884217827627
    vertex 265.5864561732271 324.9035699906037 372.3766694087308
    vertex 265.492752195522 324.903569922238 373.08842178276274
  endloop
endfacet
facet normal 1.980509222733292e-09 -0.9999999999999956 -9.579202516850183e-08
  outer loop
    vertex 263.2427521955221 324.9035699177816 373.0884217827627
    vertex 265.492752195522 324.903569922238 373.08842178276274
    vertex 263.41312306407673 324.90356979415503 374.38251700827533
  endloop
endfacet
facet normal 1.980509222733292e-09 -0.9999999999999956 -9.579202516850183e-08
  outer loop
    vertex 263.41312306407673 324.90356979415503 374.38251700827533
    vertex 265.492752195522 324.903569922238 373.08842178276274
    vertex 265.5864561732271 324.90356985424336 373.80017415679464
  endloop
endfacet
facet normal 1.980509222733292e-09 -0.9999999999999956 -9.579202516850183e-08
  outer loop
    vertex 263.41312306407673 324.90356979415503 374.38251700827533
    vertex 265.5864561732271 324.90356985424336 373.80017415679464
    vertex 265.8611823351148 324.9035697912536 374.46342178276274
  endloop
endfacet
facet normal 1.980509222733292e-09 -0.9999999999999956 -9.579202516850183e-08
  outer loop
    vertex 263.41312306407673 324.90356979415503 374.38251700827533
    vertex 265.8611823351148 324.9035697912536 374.46342178276274
    vertex 263.9126251765998 324.9035696796282 375.5884217827627
  endloop
endfacet
facet normal 1.980509222733292e-09 -0.9999999999999956 -9.579202516850183e-08
  outer loop
    vertex 263.9126251765998 324.9035696796282 375.5884217827627
    vertex 265.8611823351148 324.9035697912536 374.46342178276274
    vertex 266.298208547259 324.9035697375614 375.03296543102573
  endloop
endfacet
facet normal 1.980509222733292e-09 -0.9999999999999956 -9.579202516850183e-08
  outer loop
    vertex 263.9126251765998 324.9035696796282 375.5884217827627
    vertex 266.298208547259 324.9035697375614 375.03296543102573
    vertex 266.867752195522 324.90356969682574 375.4699916431699
  endloop
endfacet
facet normal 1.980509222733292e-09 -0.9999999999999956 -9.579202516850183e-08
  outer loop
    vertex 263.9126251765998 324.9035696796282 375.5884217827627
    vertex 266.867752195522 324.90356969682574 375.4699916431699
    vertex 267.53099982149007 324.90356967182277 375.74471780505763
  endloop
endfacet
facet normal 1.980509222733292e-09 -0.9999999999999956 -9.579202516850183e-08
  outer loop
    vertex 263.9126251765998 324.9035696796282 375.5884217827627
    vertex 267.53099982149007 324.90356967182277 375.74471780505763
    vertex 264.70721828958926 324.90356958200607 376.62395568869545
  endloop
endfacet
facet normal 1.980509222733292e-09 -0.9999999999999956 -9.579202516850183e-08
  outer loop
    vertex 264.70721828958926 324.90356958200607 376.62395568869545
    vertex 267.53099982149007 324.90356967182277 375.74471780505763
    vertex 268.242752195522 324.9035696642563 375.83842178276274
  endloop
endfacet
facet normal -0.9659258262890754 -2.6705826553463436e-08 0.2588190451024925
  outer loop
    vertex 263.41312305318405 330.4035697941553 374.3825175351315
    vertex 263.2427521955221 324.9035699177816 373.0884217827627
    vertex 263.41312306407673 324.90356979415503 374.38251700827533
  endloop
endfacet
facet normal -1.0 -1.9805092227296345e-09 -3.8282128111699294e-14
  outer loop
    vertex 263.2427521955221 324.9035699177816 373.0884217827627
    vertex 263.41312305318405 330.4035697941553 374.3825175351315
    vertex 263.2427521846294 330.40356991778185 373.08842230961886
  endloop
endfacet
facet normal -0.866025403784449 -4.9611185938043384e-08 0.49999999999997957
  outer loop
    vertex 263.91262516570714 330.40356967962845 375.58842230961886
    vertex 263.41312306407673 324.90356979415503 374.38251700827533
    vertex 263.9126251765998 324.9035696796282 375.5884217827627
  endloop
endfacet
facet normal -0.965925826289076 -2.6705826553463284e-08 0.25881904510249093
  outer loop
    vertex 263.41312306407673 324.90356979415503 374.38251700827533
    vertex 263.91262516570714 330.40356967962845 375.58842230961886
    vertex 263.41312305318405 330.4035697941553 374.3825175351315
  endloop
endfacet
facet normal -0.2588190451025241 -9.304058752270793e-08 0.9659258262890629
  outer loop
    vertex 267.5309998333732 318.90356967182237 375.7447172303055
    vertex 268.242752195522 324.9035696642563 375.83842178276274
    vertex 267.53099982149007 324.90356967182277 375.74471780505763
  endloop
endfacet
facet normal -1.7643997593380663e-15 -9.57920282999779e-08 0.9999999999999954
  outer loop
    vertex 268.242752195522 324.9035696642563 375.83842178276274
    vertex 267.5309998333732 318.90356967182237 375.7447172303055
    vertex 268.2427522074051 318.903569664256 375.83842120801063
  endloop
endfacet
facet normal 1.0 1.980508949575112e-09 6.594221322778771e-16
  outer loop
    vertex 270.9927522074051 318.9035699331305 373.08842120801063
    vertex 270.8990482178169 324.90356986476496 373.80017415679464
    vertex 270.89904822970004 318.9035698647647 373.80017358204253
  endloop
endfacet
facet normal 0.9659258262890674 -2.2879776549442918e-08 0.25881904510252257
  outer loop
    vertex 270.8990482178169 324.90356986476496 373.80017415679464
    vertex 270.9927522074051 318.9035699331305 373.08842120801063
    vertex 270.992752195522 324.9035699331307 373.08842178276274
  endloop
endfacet
facet normal -0.8660254037844423 4.6180843087233833e-08 -0.4999999999999918
  outer loop
    vertex 265.8611823351148 324.9035700546817 371.71342178276274
    vertex 266.2982085591421 318.9035701101047 371.1438775597476
    vertex 265.8611823469979 318.90357005468144 371.7134212080106
  endloop
endfacet
facet normal -0.7071067811865489 6.633476148608265e-08 -0.707106781186543
  outer loop
    vertex 266.2982085591421 318.9035701101047 371.1438775597476
    vertex 265.8611823351148 324.9035700546817 371.71342178276274
    vertex 266.298208547259 324.90357011010497 371.14387813449974
  endloop
endfacet
facet normal 0.499999999999998 -8.196807551303125e-08 0.866025403784436
  outer loop
    vertex 269.6177522074051 318.90356970227185 375.4699910684178
    vertex 270.18729584378497 324.9035697452637 375.03296543102573
    vertex 269.617752195522 324.90356970227214 375.4699916431699
  endloop
endfacet
facet normal 0.7071067811865489 -6.633476148608265e-08 0.707106781186543
  outer loop
    vertex 270.18729584378497 324.9035697452637 375.03296543102573
    vertex 269.6177522074051 318.90356970227185 375.4699910684178
    vertex 270.1872958556681 318.9035697452634 375.0329648562736
  endloop
endfacet
facet normal -0.7071067811865503 -6.913562410297306e-08 0.7071067811865414
  outer loop
    vertex 266.298208547259 324.9035697375614 375.03296543102573
    vertex 265.8611823469979 318.90356979125335 374.46342120801063
    vertex 266.2982085591421 318.90356973756104 375.0329648562736
  endloop
endfacet
facet normal -0.8660254037844385 -4.9611185212743484e-08 0.4999999999999977
  outer loop
    vertex 265.8611823469979 318.90356979125335 374.46342120801063
    vertex 266.298208547259 324.9035697375614 375.03296543102573
    vertex 265.8611823351148 324.9035697912536 374.46342178276274
  endloop
endfacet
facet normal 2.1386663749551288e-15 -9.57920282999779e-08 0.9999999999999954
  outer loop
    vertex 268.2427522074051 318.903569664256 375.83842120801063
    vertex 268.95450456955393 324.903569674642 375.74471780505763
    vertex 268.242752195522 324.9035696642563 375.83842178276274
  endloop
endfacet
facet normal 0.25881904510252474 -9.201540065241581e-08 0.9659258262890629
  outer loop
    vertex 268.95450456955393 324.903569674642 375.74471780505763
    vertex 268.2427522074051 318.903569664256 375.83842120801063
    vertex 268.95450458143705 318.90356967464163 375.7447172303055
  endloop
endfacet
facet normal 0.25881904510252757 -9.201540065241572e-08 0.965925826289062
  outer loop
    vertex 268.95450458143705 318.90356967464163 375.7447172303055
    vertex 269.617752195522 324.90356970227214 375.4699916431699
    vertex 268.95450456955393 324.903569674642 375.74471780505763
  endloop
endfacet
facet normal 0.49999999999999667 -8.196807551303133e-08 0.8660254037844366
  outer loop
    vertex 269.617752195522 324.90356970227214 375.4699916431699
    vertex 268.95450458143705 318.90356967464163 375.7447172303055
    vertex 269.6177522074051 318.90356970227185 375.4699910684178
  endloop
endfacet
facet normal -0.965925826289068 -2.6705826036625366e-08 0.2588190451025211
  outer loop
    vertex 265.5864561732271 324.90356985424336 373.80017415679464
    vertex 265.4927522074051 318.9035699222377 373.08842120801063
    vertex 265.5864561851102 318.9035698542431 373.80017358204253
  endloop
endfacet
facet normal -0.9999999999999999 -1.9805089495752038e-09 3.0297773645199425e-16
  outer loop
    vertex 265.4927522074051 318.9035699222377 373.08842120801063
    vertex 265.5864561732271 324.90356985424336 373.80017415679464
    vertex 265.492752195522 324.903569922238 373.08842178276274
  endloop
endfacet
facet normal 1.9804996699982053e-09 -0.9999999999999956 -9.579203134151301e-08
  outer loop
    vertex 268.95450458143705 318.9035701835457 370.4321251857157
    vertex 267.5309998333732 318.90357018072643 370.4321251857157
    vertex 268.2427522074051 318.9035701911122 370.3384212080106
  endloop
endfacet
facet normal 1.9804996699982053e-09 -0.9999999999999956 -9.579203134151301e-08
  outer loop
    vertex 267.5309998333732 318.90357018072643 370.4321251857157
    vertex 268.95450458143705 318.9035701835457 370.4321251857157
    vertex 269.6177522074051 318.9035701585427 370.7068513476034
  endloop
endfacet
facet normal 1.9804996699982053e-09 -0.9999999999999956 -9.579203134151301e-08
  outer loop
    vertex 267.5309998333732 318.90357018072643 370.4321251857157
    vertex 269.6177522074051 318.9035701585427 370.7068513476034
    vertex 266.8677522074051 318.9035701530963 370.7068513476034
  endloop
endfacet
facet normal 1.9804996699982053e-09 -0.9999999999999956 -9.579203134151301e-08
  outer loop
    vertex 266.8677522074051 318.9035701530963 370.7068513476034
    vertex 269.6177522074051 318.9035701585427 370.7068513476034
    vertex 270.1872958556681 318.903570117807 371.1438775597476
  endloop
endfacet
facet normal 1.9804996699982053e-09 -0.9999999999999956 -9.579203134151301e-08
  outer loop
    vertex 266.8677522074051 318.9035701530963 370.7068513476034
    vertex 270.1872958556681 318.903570117807 371.1438775597476
    vertex 266.2982085591421 318.9035701101047 371.1438775597476
  endloop
endfacet
facet normal 1.9804996699982053e-09 -0.9999999999999956 -9.579203134151301e-08
  outer loop
    vertex 266.2982085591421 318.9035701101047 371.1438775597476
    vertex 270.1872958556681 318.903570117807 371.1438775597476
    vertex 270.62432206781233 318.90357006411483 371.7134212080106
  endloop
endfacet
facet normal 1.9804996699982053e-09 -0.9999999999999956 -9.579203134151301e-08
  outer loop
    vertex 266.2982085591421 318.9035701101047 371.1438775597476
    vertex 270.62432206781233 318.90357006411483 371.7134212080106
    vertex 265.8611823469979 318.90357005468144 371.7134212080106
  endloop
endfacet
facet normal 1.9804996699982053e-09 -0.9999999999999956 -9.579203134151301e-08
  outer loop
    vertex 265.8611823469979 318.90357005468144 371.7134212080106
    vertex 270.62432206781233 318.90357006411483 371.7134212080106
    vertex 270.89904822970004 318.9035700011251 372.37666883397867
  endloop
endfacet
facet normal 1.9804996699982053e-09 -0.9999999999999956 -9.579203134151301e-08
  outer loop
    vertex 265.8611823469979 318.90357005468144 371.7134212080106
    vertex 270.89904822970004 318.9035700011251 372.37666883397867
    vertex 265.5864561851102 318.9035699906035 372.37666883397867
  endloop
endfacet
facet normal 1.9804996699982053e-09 -0.9999999999999956 -9.579203134151301e-08
  outer loop
    vertex 265.5864561851102 318.9035699906035 372.37666883397867
    vertex 270.89904822970004 318.9035700011251 372.37666883397867
    vertex 270.9927522074051 318.9035699331305 373.08842120801063
  endloop
endfacet
facet normal 1.9804996699982053e-09 -0.9999999999999956 -9.579203134151301e-08
  outer loop
    vertex 265.5864561851102 318.9035699906035 372.37666883397867
    vertex 270.9927522074051 318.9035699331305 373.08842120801063
    vertex 265.4927522074051 318.9035699222377 373.08842120801063
  endloop
endfacet
facet normal 1.9804996699982053e-09 -0.9999999999999956 -9.579203134151301e-08
  outer loop
    vertex 265.4927522074051 318.9035699222377 373.08842120801063
    vertex 270.9927522074051 318.9035699331305 373.08842120801063
    vertex 270.89904822970004 318.9035698647647 373.80017358204253
  endloop
endfacet
facet normal 1.9804996699982053e-09 -0.9999999999999956 -9.579203134151301e-08
  outer loop
    vertex 265.4927522074051 318.9035699222377 373.08842120801063
    vertex 270.89904822970004 318.9035698647647 373.80017358204253
    vertex 265.5864561851102 318.9035698542431 373.80017358204253
  endloop
endfacet
facet normal 1.9804996699982053e-09 -0.9999999999999956 -9.579203134151301e-08
  outer loop
    vertex 265.5864561851102 318.9035698542431 373.80017358204253
    vertex 270.89904822970004 318.9035698647647 373.80017358204253
    vertex 270.62432206781233 318.90356980068674 374.46342120801063
  endloop
endfacet
facet normal 1.9804996699982053e-09 -0.9999999999999956 -9.579203134151301e-08
  outer loop
    vertex 265.5864561851102 318.9035698542431 373.80017358204253
    vertex 270.62432206781233 318.90356980068674 374.46342120801063
    vertex 265.8611823469979 318.90356979125335 374.46342120801063
  endloop
endfacet
facet normal 1.9804996699982053e-09 -0.9999999999999956 -9.579203134151301e-08
  outer loop
    vertex 265.8611823469979 318.90356979125335 374.46342120801063
    vertex 270.62432206781233 318.90356980068674 374.46342120801063
    vertex 270.1872958556681 318.9035697452634 375.0329648562736
  endloop
endfacet
facet normal 1.9804996699982053e-09 -0.9999999999999956 -9.579203134151301e-08
  outer loop
    vertex 265.8611823469979 318.90356979125335 374.46342120801063
    vertex 270.1872958556681 318.9035697452634 375.0329648562736
    vertex 266.2982085591421 318.90356973756104 375.0329648562736
  endloop
endfacet
facet normal 1.9804996699982053e-09 -0.9999999999999956 -9.579203134151301e-08
  outer loop
    vertex 266.2982085591421 318.90356973756104 375.0329648562736
    vertex 270.1872958556681 318.9035697452634 375.0329648562736
    vertex 269.6177522074051 318.90356970227185 375.4699910684178
  endloop
endfacet
facet normal 1.9804996699982053e-09 -0.9999999999999956 -9.579203134151301e-08
  outer loop
    vertex 266.2982085591421 318.90356973756104 375.0329648562736
    vertex 269.6177522074051 318.90356970227185 375.4699910684178
    vertex 266.8677522074051 318.90356969682546 375.4699910684178
  endloop
endfacet
facet normal 1.9804996699982053e-09 -0.9999999999999956 -9.579203134151301e-08
  outer loop
    vertex 266.8677522074051 318.90356969682546 375.4699910684178
    vertex 269.6177522074051 318.90356970227185 375.4699910684178
    vertex 268.95450458143705 318.90356967464163 375.7447172303055
  endloop
endfacet
facet normal 1.9804996699982053e-09 -0.9999999999999956 -9.579203134151301e-08
  outer loop
    vertex 266.8677522074051 318.90356969682546 375.4699910684178
    vertex 268.95450458143705 318.90356967464163 375.7447172303055
    vertex 267.5309998333732 318.90356967182237 375.7447172303055
  endloop
endfacet
facet normal 1.9804996699982053e-09 -0.9999999999999956 -9.579203134151301e-08
  outer loop
    vertex 267.5309998333732 318.90356967182237 375.7447172303055
    vertex 268.95450458143705 318.90356967464163 375.7447172303055
    vertex 268.2427522074051 318.903569664256 375.83842120801063
  endloop
endfacet
facet normal -0.499999999999998 8.196807551303125e-08 -0.866025403784436
  outer loop
    vertex 266.867752195522 324.9035701530965 370.7068519223555
    vertex 266.2982085591421 318.9035701101047 371.1438775597476
    vertex 266.298208547259 324.90357011010497 371.14387813449974
  endloop
endfacet
facet normal -0.7071067811865489 6.633476148608265e-08 -0.707106781186543
  outer loop
    vertex 266.2982085591421 318.9035701101047 371.1438775597476
    vertex 266.867752195522 324.9035701530965 370.7068519223555
    vertex 266.8677522074051 318.9035701530963 370.7068513476034
  endloop
endfacet
facet normal -0.7071067811865476 -6.913562410297331e-08 0.707106781186544
  outer loop
    vertex 266.2982085591421 318.90356973756104 375.0329648562736
    vertex 266.867752195522 324.90356969682574 375.4699916431699
    vertex 266.298208547259 324.9035697375614 375.03296543102573
  endloop
endfacet
facet normal -0.4999999999999983 -8.394858446260647e-08 0.8660254037844356
  outer loop
    vertex 266.867752195522 324.90356969682574 375.4699916431699
    vertex 266.2982085591421 318.90356973756104 375.0329648562736
    vertex 266.8677522074051 318.90356969682546 375.4699910684178
  endloop
endfacet
facet normal -0.49999999999999606 -8.394858446260653e-08 0.8660254037844368
  outer loop
    vertex 266.8677522074051 318.90356969682546 375.4699910684178
    vertex 267.53099982149007 324.90356967182277 375.74471780505763
    vertex 266.867752195522 324.90356969682574 375.4699916431699
  endloop
endfacet
facet normal -0.25881904510252757 -9.304058752270786e-08 0.965925826289062
  outer loop
    vertex 267.53099982149007 324.90356967182277 375.74471780505763
    vertex 266.8677522074051 318.90356969682546 375.4699910684178
    vertex 267.5309998333732 318.90356967182237 375.7447172303055
  endloop
endfacet
endsolid SAV_SMARTCUBE54
