solid SAV_SMARTCUBE55
facet normal 1.0 0.0 0.0
  outer loop
    vertex 100.83248717541129 43.34678606290954 82.1877978627719
    vertex 100.83248717541133 62.07901910994317 87.17003090980555
    vertex 100.83248717541129 43.34678606290954 102.2377978627719
  endloop
endfacet
facet normal 1.0 0.0 0.0
  outer loop
    vertex 100.83248717541133 62.07901910994317 87.17003090980555
    vertex 100.83248717541129 43.34678606290954 82.1877978627719
    vertex 100.83248717541129 62.59678606290953 86.77273435331078
  endloop
endfacet
facet normal 1.0 0.0 0.0
  outer loop
    vertex 100.83248717541129 62.59678606290953 86.77273435331078
    vertex 100.83248717541129 43.34678606290954 82.1877978627719
    vertex 100.83248717541129 73.34678606290953 82.1877978627719
  endloop
endfacet
facet normal 1.0 0.0 0.0
  outer loop
    vertex 100.83248717541129 43.34678606290954 102.2377978627719
    vertex 100.83248717541133 62.07901910994317 87.17003090980555
    vertex 100.83248717541133 61.68172255344843 87.6877978627719
  endloop
endfacet
facet normal 1.0 0.0 0.0
  outer loop
    vertex 100.83248717541129 43.34678606290954 102.2377978627719
    vertex 100.83248717541133 61.68172255344843 87.6877978627719
    vertex 100.83248717541133 61.431971497186865 88.2907502500156
  endloop
endfacet
facet normal 1.0 0.0 0.0
  outer loop
    vertex 100.83248717541129 43.34678606290954 102.2377978627719
    vertex 100.83248717541133 61.431971497186865 88.2907502500156
    vertex 100.83248717541129 61.34678606290954 88.93779786277189
  endloop
endfacet
facet normal 1.0 0.0 0.0
  outer loop
    vertex 100.83248717541129 62.59678606290953 86.77273435331078
    vertex 100.83248717541129 73.34678606290953 82.1877978627719
    vertex 100.83248717541129 63.19973845015323 86.52298329704921
  endloop
endfacet
facet normal 1.0 0.0 0.0
  outer loop
    vertex 100.83248717541129 63.19973845015323 86.52298329704921
    vertex 100.83248717541129 73.34678606290953 82.1877978627719
    vertex 100.83248717541129 63.84678606290953 86.43779786277187
  endloop
endfacet
facet normal 1.0 0.0 0.0
  outer loop
    vertex 100.83248717541129 63.84678606290953 86.43779786277187
    vertex 100.83248717541129 73.34678606290953 82.1877978627719
    vertex 100.83248717541137 64.49383367566583 86.52298329704921
  endloop
endfacet
facet normal 1.0 0.0 0.0
  outer loop
    vertex 100.83248717541137 64.49383367566583 86.52298329704921
    vertex 100.83248717541129 73.34678606290953 82.1877978627719
    vertex 100.83248717541133 65.09678606290953 86.77273435331078
  endloop
endfacet
facet normal 1.0 0.0 0.0
  outer loop
    vertex 100.83248717541133 65.09678606290953 86.77273435331078
    vertex 100.83248717541129 73.34678606290953 82.1877978627719
    vertex 100.83248717541129 65.61455301587588 87.17003090980555
  endloop
endfacet
facet normal 1.0 0.0 0.0
  outer loop
    vertex 100.83248717541129 65.61455301587588 87.17003090980555
    vertex 100.83248717541129 73.34678606290953 82.1877978627719
    vertex 100.83248717541133 66.01184957237062 87.6877978627719
  endloop
endfacet
facet normal 1.0 0.0 0.0
  outer loop
    vertex 100.83248717541133 66.01184957237062 87.6877978627719
    vertex 100.83248717541129 73.34678606290953 82.1877978627719
    vertex 100.83248717541129 66.2616006286322 88.2907502500156
  endloop
endfacet
facet normal 1.0 0.0 0.0
  outer loop
    vertex 100.83248717541129 66.2616006286322 88.2907502500156
    vertex 100.83248717541129 73.34678606290953 82.1877978627719
    vertex 100.83248717541133 66.34678606290953 88.93779786277189
  endloop
endfacet
facet normal 1.0 0.0 0.0
  outer loop
    vertex 100.83248717541129 43.34678606290954 102.2377978627719
    vertex 100.83248717541133 62.07901910994317 90.70556481573824
    vertex 100.83248717541129 73.34678606290953 102.2377978627719
  endloop
endfacet
facet normal 1.0 0.0 0.0
  outer loop
    vertex 100.83248717541133 62.07901910994317 90.70556481573824
    vertex 100.83248717541129 43.34678606290954 102.2377978627719
    vertex 100.83248717541133 61.68172255344843 90.18779786277189
  endloop
endfacet
facet normal 1.0 0.0 0.0
  outer loop
    vertex 100.83248717541133 61.68172255344843 90.18779786277189
    vertex 100.83248717541129 43.34678606290954 102.2377978627719
    vertex 100.83248717541133 61.431971497186865 89.58484547552818
  endloop
endfacet
facet normal 1.0 0.0 0.0
  outer loop
    vertex 100.83248717541133 61.431971497186865 89.58484547552818
    vertex 100.83248717541129 43.34678606290954 102.2377978627719
    vertex 100.83248717541129 61.34678606290954 88.93779786277189
  endloop
endfacet
facet normal 1.0 0.0 0.0
  outer loop
    vertex 100.83248717541129 73.34678606290953 102.2377978627719
    vertex 100.83248717541133 62.07901910994317 90.70556481573824
    vertex 100.83248717541129 62.59678606290953 91.102861372233
  endloop
endfacet
facet normal 1.0 0.0 0.0
  outer loop
    vertex 100.83248717541129 73.34678606290953 102.2377978627719
    vertex 100.83248717541129 62.59678606290953 91.102861372233
    vertex 100.83248717541129 63.19973845015323 91.35261242849458
  endloop
endfacet
facet normal 1.0 0.0 0.0
  outer loop
    vertex 100.83248717541129 73.34678606290953 102.2377978627719
    vertex 100.83248717541129 63.19973845015323 91.35261242849458
    vertex 100.83248717541129 63.84678606290953 91.43779786277192
  endloop
endfacet
facet normal 1.0 0.0 0.0
  outer loop
    vertex 100.83248717541129 73.34678606290953 102.2377978627719
    vertex 100.83248717541129 63.84678606290953 91.43779786277192
    vertex 100.83248717541137 64.49383367566583 91.35261242849458
  endloop
endfacet
facet normal 1.0 0.0 0.0
  outer loop
    vertex 100.83248717541129 73.34678606290953 102.2377978627719
    vertex 100.83248717541137 64.49383367566583 91.35261242849458
    vertex 100.83248717541133 65.09678606290953 91.102861372233
  endloop
endfacet
facet normal 1.0 0.0 0.0
  outer loop
    vertex 100.83248717541129 73.34678606290953 102.2377978627719
    vertex 100.83248717541133 65.09678606290953 91.102861372233
    vertex 100.83248717541129 65.61455301587588 90.70556481573824
  endloop
endfacet
facet normal 1.0 0.0 0.0
  outer loop
    vertex 100.83248717541129 73.34678606290953 102.2377978627719
    vertex 100.83248717541129 65.61455301587588 90.70556481573824
    vertex 100.83248717541133 66.01184957237062 90.18779786277189
  endloop
endfacet
facet normal 1.0 0.0 0.0
  outer loop
    vertex 100.83248717541129 73.34678606290953 102.2377978627719
    vertex 100.83248717541133 66.01184957237062 90.18779786277189
    vertex 100.83248717541129 66.2616006286322 89.58484547552818
  endloop
endfacet
facet normal 1.0 0.0 0.0
  outer loop
    vertex 100.83248717541129 73.34678606290953 102.2377978627719
    vertex 100.83248717541129 66.2616006286322 89.58484547552818
    vertex 100.83248717541133 66.34678606290953 88.93779786277189
  endloop
endfacet
facet normal 1.0 0.0 0.0
  outer loop
    vertex 100.83248717541129 73.34678606290953 102.2377978627719
    vertex 100.83248717541133 66.34678606290953 88.93779786277189
    vertex 100.83248717541129 73.34678606290953 82.1877978627719
  endloop
endfacet
facet normal 0.0 0.0 -1.0
  outer loop
    vertex 102.83248717541127 73.34678606290953 102.2377978627719
    vertex 100.83248717541129 43.34678606290954 102.2377978627719
    vertex 100.83248717541129 73.34678606290953 102.2377978627719
  endloop
endfacet
facet normal 0.0 0.0 -1.0
  outer loop
    vertex 100.83248717541129 43.34678606290954 102.2377978627719
    vertex 102.83248717541127 73.34678606290953 102.2377978627719
    vertex 102.83248717541127 43.34678606290954 102.2377978627719
  endloop
endfacet
facet normal 0.0 0.0 -1.0
  outer loop
    vertex 100.83248717541129 73.34678606290953 82.1877978627719
    vertex 97.33248717541127 46.84678606290954 82.1877978627719
    vertex 97.33248717541127 73.34678606290953 82.1877978627719
  endloop
endfacet
facet normal 0.0 0.0 -1.0
  outer loop
    vertex 97.33248717541127 46.84678606290954 82.1877978627719
    vertex 100.83248717541129 73.34678606290953 82.1877978627719
    vertex 97.33248717541127 43.34678606290954 82.1877978627719
  endloop
endfacet
facet normal 0.0 0.0 -1.0
  outer loop
    vertex 97.33248717541127 43.34678606290954 82.1877978627719
    vertex 100.83248717541129 73.34678606290953 82.1877978627719
    vertex 100.83248717541129 43.34678606290954 82.1877978627719
  endloop
endfacet
facet normal 0.0 -0.9659258262890684 -0.2588190451025204
  outer loop
    vertex 100.83248717541129 66.2616006286322 89.58484547552818
    vertex 97.33248717541132 66.34678606290953 88.93779786277189
    vertex 100.83248717541133 66.34678606290953 88.93779786277189
  endloop
endfacet
facet normal 0.0 -1.0 0.0
  outer loop
    vertex 97.33248717541132 66.34678606290953 88.93779786277189
    vertex 100.83248717541129 66.2616006286322 89.58484547552818
    vertex 97.33248717541127 66.2616006286322 89.58484547552818
  endloop
endfacet
facet normal 0.0 -1.0 0.0
  outer loop
    vertex 100.83248717541133 66.34678606290953 88.93779786277189
    vertex 97.33248717541127 66.2616006286322 88.2907502500156
    vertex 100.83248717541129 66.2616006286322 88.2907502500156
  endloop
endfacet
facet normal 0.0 -0.9659258262890676 0.2588190451025232
  outer loop
    vertex 97.33248717541127 66.2616006286322 88.2907502500156
    vertex 100.83248717541133 66.34678606290953 88.93779786277189
    vertex 97.33248717541132 66.34678606290953 88.93779786277189
  endloop
endfacet
facet normal 0.0 -0.9659258262890684 0.2588190451025204
  outer loop
    vertex 100.83248717541129 66.2616006286322 88.2907502500156
    vertex 97.33248717541127 66.01184957237062 87.6877978627719
    vertex 100.83248717541133 66.01184957237062 87.6877978627719
  endloop
endfacet
facet normal 0.0 -0.8660254037844379 0.5000000000000013
  outer loop
    vertex 97.33248717541127 66.01184957237062 87.6877978627719
    vertex 100.83248717541129 66.2616006286322 88.2907502500156
    vertex 97.33248717541127 66.2616006286322 88.2907502500156
  endloop
endfacet
facet normal 0.0 -5.801132542065882e-15 1.0
  outer loop
    vertex 100.83248717541129 63.84678606290953 86.43779786277187
    vertex 97.33248717541136 64.49383367566583 86.52298329704921
    vertex 97.33248717541127 63.84678606290953 86.43779786277187
  endloop
endfacet
facet normal 0.0 -0.25881904510252424 0.9659258262890674
  outer loop
    vertex 97.33248717541136 64.49383367566583 86.52298329704921
    vertex 100.83248717541129 63.84678606290953 86.43779786277187
    vertex 100.83248717541137 64.49383367566583 86.52298329704921
  endloop
endfacet
facet normal 1.9201677719461193e-17 -1.0 -1.1390192401548282e-17
  outer loop
    vertex 102.83248717541127 43.34678606290954 103.68779786277193
    vertex 100.83248717541129 43.34678606290954 102.2377978627719
    vertex 102.83248717541127 43.34678606290954 102.2377978627719
  endloop
endfacet
facet normal 1.9201677719461193e-17 -1.0 -1.1390192401548282e-17
  outer loop
    vertex 100.83248717541129 43.34678606290954 102.2377978627719
    vertex 97.33248717541127 43.34678606290954 82.1877978627719
    vertex 100.83248717541129 43.34678606290954 82.1877978627719
  endloop
endfacet
facet normal 1.9201677719461193e-17 -1.0 -1.1390192401548282e-17
  outer loop
    vertex 97.33248717541127 43.34678606290954 82.1877978627719
    vertex 100.83248717541129 43.34678606290954 102.2377978627719
    vertex 80.83248717541127 43.34678606290954 98.68779786277189
  endloop
endfacet
facet normal 1.9201677719461193e-17 -1.0 -1.1390192401548282e-17
  outer loop
    vertex 80.83248717541127 43.34678606290954 98.68779786277189
    vertex 100.83248717541129 43.34678606290954 102.2377978627719
    vertex 80.83248717541127 43.34678606290954 103.68779786277193
  endloop
endfacet
facet normal 1.9201677719461193e-17 -1.0 -1.1390192401548282e-17
  outer loop
    vertex 80.83248717541127 43.34678606290954 103.68779786277193
    vertex 100.83248717541129 43.34678606290954 102.2377978627719
    vertex 102.83248717541127 43.34678606290954 103.68779786277193
  endloop
endfacet
facet normal 0.0 -0.7071067811865572 -0.7071067811865379
  outer loop
    vertex 100.83248717541129 65.61455301587588 90.70556481573824
    vertex 97.33248717541127 66.01184957237062 90.18779786277189
    vertex 100.83248717541133 66.01184957237062 90.18779786277189
  endloop
endfacet
facet normal 0.0 -0.8660254037844379 -0.5000000000000013
  outer loop
    vertex 97.33248717541127 66.01184957237062 90.18779786277189
    vertex 100.83248717541129 65.61455301587588 90.70556481573824
    vertex 97.33248717541127 65.61455301587588 90.70556481573824
  endloop
endfacet
facet normal 0.0 0.258819045102527 0.9659258262890666
  outer loop
    vertex 100.83248717541129 63.19973845015323 86.52298329704921
    vertex 97.33248717541127 63.84678606290953 86.43779786277187
    vertex 97.33248717541127 63.19973845015323 86.52298329704921
  endloop
endfacet
facet normal 0.0 5.7833103222750966e-15 1.0
  outer loop
    vertex 97.33248717541127 63.84678606290953 86.43779786277187
    vertex 100.83248717541129 63.19973845015323 86.52298329704921
    vertex 100.83248717541129 63.84678606290953 86.43779786277187
  endloop
endfacet
facet normal 0.0 0.5000000000000226 0.8660254037844256
  outer loop
    vertex 100.83248717541129 62.59678606290953 86.77273435331078
    vertex 97.33248717541127 63.19973845015323 86.52298329704921
    vertex 97.33248717541127 62.59678606290953 86.77273435331078
  endloop
endfacet
facet normal 0.0 0.258819045102527 0.9659258262890666
  outer loop
    vertex 97.33248717541127 63.19973845015323 86.52298329704921
    vertex 100.83248717541129 62.59678606290953 86.77273435331078
    vertex 100.83248717541129 63.19973845015323 86.52298329704921
  endloop
endfacet
facet normal 0.0 0.7071067811865572 0.7071067811865379
  outer loop
    vertex 97.33248717541132 62.07901910994317 87.17003090980555
    vertex 100.83248717541129 62.59678606290953 86.77273435331078
    vertex 97.33248717541127 62.59678606290953 86.77273435331078
  endloop
endfacet
facet normal 0.0 0.5000000000000226 0.8660254037844256
  outer loop
    vertex 100.83248717541129 62.59678606290953 86.77273435331078
    vertex 97.33248717541132 62.07901910994317 87.17003090980555
    vertex 100.83248717541133 62.07901910994317 87.17003090980555
  endloop
endfacet
facet normal 0.0 0.8660254037844378 0.5000000000000014
  outer loop
    vertex 97.33248717541127 61.68172255344843 87.6877978627719
    vertex 100.83248717541133 62.07901910994317 87.17003090980555
    vertex 97.33248717541132 62.07901910994317 87.17003090980555
  endloop
endfacet
facet normal 0.0 0.7071067811865592 0.7071067811865357
  outer loop
    vertex 100.83248717541133 62.07901910994317 87.17003090980555
    vertex 97.33248717541127 61.68172255344843 87.6877978627719
    vertex 100.83248717541133 61.68172255344843 87.6877978627719
  endloop
endfacet
facet normal 0.0 0.9659258262890684 0.2588190451025204
  outer loop
    vertex 97.33248717541132 61.431971497186865 88.2907502500156
    vertex 100.83248717541133 61.68172255344843 87.6877978627719
    vertex 97.33248717541127 61.68172255344843 87.6877978627719
  endloop
endfacet
facet normal 0.0 0.8660254037844379 0.5000000000000013
  outer loop
    vertex 100.83248717541133 61.68172255344843 87.6877978627719
    vertex 97.33248717541132 61.431971497186865 88.2907502500156
    vertex 100.83248717541133 61.431971497186865 88.2907502500156
  endloop
endfacet
facet normal 0.0 0.9659258262890684 -0.2588190451025204
  outer loop
    vertex 97.33248717541132 61.431971497186865 89.58484547552818
    vertex 100.83248717541129 61.34678606290954 88.93779786277189
    vertex 97.33248717541127 61.34678606290954 88.93779786277189
  endloop
endfacet
facet normal 0.0 1.0 0.0
  outer loop
    vertex 100.83248717541129 61.34678606290954 88.93779786277189
    vertex 97.33248717541132 61.431971497186865 89.58484547552818
    vertex 100.83248717541133 61.431971497186865 89.58484547552818
  endloop
endfacet
facet normal 0.0 1.0 0.0
  outer loop
    vertex 97.33248717541127 61.34678606290954 88.93779786277189
    vertex 100.83248717541133 61.431971497186865 88.2907502500156
    vertex 97.33248717541132 61.431971497186865 88.2907502500156
  endloop
endfacet
facet normal 0.0 0.9659258262890676 0.2588190451025232
  outer loop
    vertex 100.83248717541133 61.431971497186865 88.2907502500156
    vertex 97.33248717541127 61.34678606290954 88.93779786277189
    vertex 100.83248717541129 61.34678606290954 88.93779786277189
  endloop
endfacet
facet normal 0.0 0.8660254037844378 -0.5000000000000014
  outer loop
    vertex 97.33248717541127 61.68172255344843 90.18779786277189
    vertex 100.83248717541133 61.431971497186865 89.58484547552818
    vertex 97.33248717541132 61.431971497186865 89.58484547552818
  endloop
endfacet
facet normal 0.0 0.9659258262890676 -0.2588190451025232
  outer loop
    vertex 100.83248717541133 61.431971497186865 89.58484547552818
    vertex 97.33248717541127 61.68172255344843 90.18779786277189
    vertex 100.83248717541133 61.68172255344843 90.18779786277189
  endloop
endfacet
facet normal 0.0 0.7071067811865572 -0.7071067811865379
  outer loop
    vertex 97.33248717541132 62.07901910994317 90.70556481573824
    vertex 100.83248717541133 61.68172255344843 90.18779786277189
    vertex 97.33248717541127 61.68172255344843 90.18779786277189
  endloop
endfacet
facet normal 0.0 0.8660254037844379 -0.5000000000000013
  outer loop
    vertex 100.83248717541133 61.68172255344843 90.18779786277189
    vertex 97.33248717541132 62.07901910994317 90.70556481573824
    vertex 100.83248717541133 62.07901910994317 90.70556481573824
  endloop
endfacet
facet normal 0.0 0.5000000000000226 -0.8660254037844256
  outer loop
    vertex 100.83248717541129 62.59678606290953 91.102861372233
    vertex 97.33248717541132 62.07901910994317 90.70556481573824
    vertex 97.33248717541127 62.59678606290953 91.102861372233
  endloop
endfacet
facet normal 0.0 0.7071067811865572 -0.7071067811865379
  outer loop
    vertex 97.33248717541132 62.07901910994317 90.70556481573824
    vertex 100.83248717541129 62.59678606290953 91.102861372233
    vertex 100.83248717541133 62.07901910994317 90.70556481573824
  endloop
endfacet
facet normal 0.0 0.258819045102527 -0.9659258262890666
  outer loop
    vertex 100.83248717541129 63.19973845015323 91.35261242849458
    vertex 97.33248717541127 62.59678606290953 91.102861372233
    vertex 97.33248717541127 63.19973845015323 91.35261242849458
  endloop
endfacet
facet normal 0.0 0.5000000000000178 -0.8660254037844285
  outer loop
    vertex 97.33248717541127 62.59678606290953 91.102861372233
    vertex 100.83248717541129 63.19973845015323 91.35261242849458
    vertex 100.83248717541129 62.59678606290953 91.102861372233
  endloop
endfacet
facet normal 0.0 -5.801132542065882e-15 -1.0
  outer loop
    vertex 100.83248717541129 63.84678606290953 91.43779786277192
    vertex 97.33248717541127 63.19973845015323 91.35261242849458
    vertex 97.33248717541127 63.84678606290953 91.43779786277192
  endloop
endfacet
facet normal 0.0 0.258819045102527 -0.9659258262890666
  outer loop
    vertex 97.33248717541127 63.19973845015323 91.35261242849458
    vertex 100.83248717541129 63.84678606290953 91.43779786277192
    vertex 100.83248717541129 63.19973845015323 91.35261242849458
  endloop
endfacet
facet normal 0.0 -0.25881904510252424 -0.9659258262890674
  outer loop
    vertex 97.33248717541136 64.49383367566583 91.35261242849458
    vertex 100.83248717541129 63.84678606290953 91.43779786277192
    vertex 97.33248717541127 63.84678606290953 91.43779786277192
  endloop
endfacet
facet normal 0.0 -5.801132542065882e-15 -1.0
  outer loop
    vertex 100.83248717541129 63.84678606290953 91.43779786277192
    vertex 97.33248717541136 64.49383367566583 91.35261242849458
    vertex 100.83248717541137 64.49383367566583 91.35261242849458
  endloop
endfacet
facet normal 0.0 -0.5000000000000152 -0.8660254037844299
  outer loop
    vertex 100.83248717541133 65.09678606290953 91.102861372233
    vertex 97.33248717541136 64.49383367566583 91.35261242849458
    vertex 97.33248717541132 65.09678606290953 91.102861372233
  endloop
endfacet
facet normal 0.0 -0.25881904510252424 -0.9659258262890674
  outer loop
    vertex 97.33248717541136 64.49383367566583 91.35261242849458
    vertex 100.83248717541133 65.09678606290953 91.102861372233
    vertex 100.83248717541137 64.49383367566583 91.35261242849458
  endloop
endfacet
facet normal 0.0 -0.7071067811865572 -0.7071067811865379
  outer loop
    vertex 100.83248717541129 65.61455301587588 90.70556481573824
    vertex 97.33248717541132 65.09678606290953 91.102861372233
    vertex 97.33248717541127 65.61455301587588 90.70556481573824
  endloop
endfacet
facet normal 0.0 -0.5000000000000252 -0.866025403784424
  outer loop
    vertex 97.33248717541132 65.09678606290953 91.102861372233
    vertex 100.83248717541129 65.61455301587588 90.70556481573824
    vertex 100.83248717541133 65.09678606290953 91.102861372233
  endloop
endfacet
facet normal -1.0 2.3389022957298436e-16 7.76216107188089e-16
  outer loop
    vertex 80.83248717541127 73.34678606290953 103.68779786277193
    vertex 80.83248717541127 43.34678606290954 98.68779786277189
    vertex 80.83248717541127 43.34678606290954 103.68779786277193
  endloop
endfacet
facet normal -1.0 2.3389022957298436e-16 7.76216107188089e-16
  outer loop
    vertex 80.83248717541127 43.34678606290954 98.68779786277189
    vertex 80.83248717541127 73.34678606290953 103.68779786277193
    vertex 80.83248717541127 46.84678606290954 98.68779786277189
  endloop
endfacet
facet normal -1.0 2.3389022957298436e-16 7.76216107188089e-16
  outer loop
    vertex 80.83248717541127 46.84678606290954 98.68779786277189
    vertex 80.83248717541127 73.34678606290953 103.68779786277193
    vertex 80.83248717541127 73.34678606290953 98.68779786277189
  endloop
endfacet
facet normal 0.0 1.0 0.0
  outer loop
    vertex 80.83248717541127 73.34678606290953 103.68779786277193
    vertex 97.33248717541127 73.34678606290953 98.68779786277189
    vertex 80.83248717541127 73.34678606290953 98.68779786277189
  endloop
endfacet
facet normal 0.0 1.0 0.0
  outer loop
    vertex 97.33248717541127 73.34678606290953 98.68779786277189
    vertex 80.83248717541127 73.34678606290953 103.68779786277193
    vertex 100.83248717541129 73.34678606290953 102.2377978627719
  endloop
endfacet
facet normal 0.0 1.0 0.0
  outer loop
    vertex 100.83248717541129 73.34678606290953 102.2377978627719
    vertex 80.83248717541127 73.34678606290953 103.68779786277193
    vertex 102.83248717541127 73.34678606290953 102.2377978627719
  endloop
endfacet
facet normal 0.0 1.0 0.0
  outer loop
    vertex 102.83248717541127 73.34678606290953 102.2377978627719
    vertex 80.83248717541127 73.34678606290953 103.68779786277193
    vertex 102.83248717541127 73.34678606290953 103.68779786277193
  endloop
endfacet
facet normal 0.0 1.0 0.0
  outer loop
    vertex 97.33248717541127 73.34678606290953 98.68779786277189
    vertex 100.83248717541129 73.34678606290953 82.1877978627719
    vertex 97.33248717541127 73.34678606290953 82.1877978627719
  endloop
endfacet
facet normal 0.0 1.0 0.0
  outer loop
    vertex 100.83248717541129 73.34678606290953 82.1877978627719
    vertex 97.33248717541127 73.34678606290953 98.68779786277189
    vertex 100.83248717541129 73.34678606290953 102.2377978627719
  endloop
endfacet
facet normal -1.0 3.168244373710511e-16 -8.208503878124207e-30
  outer loop
    vertex 97.33248717541127 73.34678606290953 98.68779786277189
    vertex 97.33248717541127 46.84678606290954 82.1877978627719
    vertex 97.33248717541127 46.84678606290954 98.68779786277189
  endloop
endfacet
facet normal -1.0 3.168244373710511e-16 -8.208503878124207e-30
  outer loop
    vertex 97.33248717541127 46.84678606290954 82.1877978627719
    vertex 97.33248717541127 73.34678606290953 98.68779786277189
    vertex 97.33248717541127 62.59678606290953 91.102861372233
  endloop
endfacet
facet normal -1.0 3.168244373710511e-16 -8.208503878124207e-30
  outer loop
    vertex 97.33248717541127 46.84678606290954 82.1877978627719
    vertex 97.33248717541127 62.59678606290953 91.102861372233
    vertex 97.33248717541132 62.07901910994317 90.70556481573824
  endloop
endfacet
facet normal -1.0 3.168244373710511e-16 -8.208503878124207e-30
  outer loop
    vertex 97.33248717541127 46.84678606290954 82.1877978627719
    vertex 97.33248717541132 62.07901910994317 90.70556481573824
    vertex 97.33248717541127 61.68172255344843 90.18779786277189
  endloop
endfacet
facet normal -1.0 3.168244373710511e-16 -8.208503878124207e-30
  outer loop
    vertex 97.33248717541127 46.84678606290954 82.1877978627719
    vertex 97.33248717541127 61.68172255344843 90.18779786277189
    vertex 97.33248717541132 61.431971497186865 89.58484547552818
  endloop
endfacet
facet normal -1.0 3.168244373710511e-16 -8.208503878124207e-30
  outer loop
    vertex 97.33248717541127 46.84678606290954 82.1877978627719
    vertex 97.33248717541132 61.431971497186865 89.58484547552818
    vertex 97.33248717541127 61.34678606290954 88.93779786277189
  endloop
endfacet
facet normal -1.0 3.168244373710511e-16 -8.208503878124207e-30
  outer loop
    vertex 97.33248717541127 62.59678606290953 91.102861372233
    vertex 97.33248717541127 73.34678606290953 98.68779786277189
    vertex 97.33248717541127 63.19973845015323 91.35261242849458
  endloop
endfacet
facet normal -1.0 3.168244373710511e-16 -8.208503878124207e-30
  outer loop
    vertex 97.33248717541127 63.19973845015323 91.35261242849458
    vertex 97.33248717541127 73.34678606290953 98.68779786277189
    vertex 97.33248717541127 63.84678606290953 91.43779786277192
  endloop
endfacet
facet normal -1.0 3.168244373710511e-16 -8.208503878124207e-30
  outer loop
    vertex 97.33248717541127 63.84678606290953 91.43779786277192
    vertex 97.33248717541127 73.34678606290953 98.68779786277189
    vertex 97.33248717541136 64.49383367566583 91.35261242849458
  endloop
endfacet
facet normal -1.0 3.168244373710511e-16 -8.208503878124207e-30
  outer loop
    vertex 97.33248717541136 64.49383367566583 91.35261242849458
    vertex 97.33248717541127 73.34678606290953 98.68779786277189
    vertex 97.33248717541132 65.09678606290953 91.102861372233
  endloop
endfacet
facet normal -1.0 3.168244373710511e-16 -8.208503878124207e-30
  outer loop
    vertex 97.33248717541132 65.09678606290953 91.102861372233
    vertex 97.33248717541127 73.34678606290953 98.68779786277189
    vertex 97.33248717541127 65.61455301587588 90.70556481573824
  endloop
endfacet
facet normal -1.0 3.168244373710511e-16 -8.208503878124207e-30
  outer loop
    vertex 97.33248717541127 65.61455301587588 90.70556481573824
    vertex 97.33248717541127 73.34678606290953 98.68779786277189
    vertex 97.33248717541127 66.01184957237062 90.18779786277189
  endloop
endfacet
facet normal -1.0 3.168244373710511e-16 -8.208503878124207e-30
  outer loop
    vertex 97.33248717541127 66.01184957237062 90.18779786277189
    vertex 97.33248717541127 73.34678606290953 98.68779786277189
    vertex 97.33248717541127 66.2616006286322 89.58484547552818
  endloop
endfacet
facet normal -1.0 3.168244373710511e-16 -8.208503878124207e-30
  outer loop
    vertex 97.33248717541127 66.2616006286322 89.58484547552818
    vertex 97.33248717541127 73.34678606290953 98.68779786277189
    vertex 97.33248717541132 66.34678606290953 88.93779786277189
  endloop
endfacet
facet normal -1.0 3.168244373710511e-16 -8.208503878124207e-30
  outer loop
    vertex 97.33248717541127 46.84678606290954 82.1877978627719
    vertex 97.33248717541127 62.59678606290953 86.77273435331078
    vertex 97.33248717541127 73.34678606290953 82.1877978627719
  endloop
endfacet
facet normal -1.0 3.168244373710511e-16 -8.208503878124207e-30
  outer loop
    vertex 97.33248717541127 62.59678606290953 86.77273435331078
    vertex 97.33248717541127 46.84678606290954 82.1877978627719
    vertex 97.33248717541132 62.07901910994317 87.17003090980555
  endloop
endfacet
facet normal -1.0 3.168244373710511e-16 -8.208503878124207e-30
  outer loop
    vertex 97.33248717541132 62.07901910994317 87.17003090980555
    vertex 97.33248717541127 46.84678606290954 82.1877978627719
    vertex 97.33248717541127 61.68172255344843 87.6877978627719
  endloop
endfacet
facet normal -1.0 3.168244373710511e-16 -8.208503878124207e-30
  outer loop
    vertex 97.33248717541127 61.68172255344843 87.6877978627719
    vertex 97.33248717541127 46.84678606290954 82.1877978627719
    vertex 97.33248717541132 61.431971497186865 88.2907502500156
  endloop
endfacet
facet normal -1.0 3.168244373710511e-16 -8.208503878124207e-30
  outer loop
    vertex 97.33248717541132 61.431971497186865 88.2907502500156
    vertex 97.33248717541127 46.84678606290954 82.1877978627719
    vertex 97.33248717541127 61.34678606290954 88.93779786277189
  endloop
endfacet
facet normal -1.0 3.168244373710511e-16 -8.208503878124207e-30
  outer loop
    vertex 97.33248717541127 73.34678606290953 82.1877978627719
    vertex 97.33248717541127 62.59678606290953 86.77273435331078
    vertex 97.33248717541127 63.19973845015323 86.52298329704921
  endloop
endfacet
facet normal -1.0 3.168244373710511e-16 -8.208503878124207e-30
  outer loop
    vertex 97.33248717541127 73.34678606290953 82.1877978627719
    vertex 97.33248717541127 63.19973845015323 86.52298329704921
    vertex 97.33248717541127 63.84678606290953 86.43779786277187
  endloop
endfacet
facet normal -1.0 3.168244373710511e-16 -8.208503878124207e-30
  outer loop
    vertex 97.33248717541127 73.34678606290953 82.1877978627719
    vertex 97.33248717541127 63.84678606290953 86.43779786277187
    vertex 97.33248717541136 64.49383367566583 86.52298329704921
  endloop
endfacet
facet normal -1.0 3.168244373710511e-16 -8.208503878124207e-30
  outer loop
    vertex 97.33248717541127 73.34678606290953 82.1877978627719
    vertex 97.33248717541136 64.49383367566583 86.52298329704921
    vertex 97.33248717541132 65.09678606290953 86.77273435331078
  endloop
endfacet
facet normal -1.0 3.168244373710511e-16 -8.208503878124207e-30
  outer loop
    vertex 97.33248717541127 73.34678606290953 82.1877978627719
    vertex 97.33248717541132 65.09678606290953 86.77273435331078
    vertex 97.33248717541127 65.61455301587588 87.17003090980555
  endloop
endfacet
facet normal -1.0 3.168244373710511e-16 -8.208503878124207e-30
  outer loop
    vertex 97.33248717541127 73.34678606290953 82.1877978627719
    vertex 97.33248717541127 65.61455301587588 87.17003090980555
    vertex 97.33248717541127 66.01184957237062 87.6877978627719
  endloop
endfacet
facet normal -1.0 3.168244373710511e-16 -8.208503878124207e-30
  outer loop
    vertex 97.33248717541127 73.34678606290953 82.1877978627719
    vertex 97.33248717541127 66.01184957237062 87.6877978627719
    vertex 97.33248717541127 66.2616006286322 88.2907502500156
  endloop
endfacet
facet normal -1.0 3.168244373710511e-16 -8.208503878124207e-30
  outer loop
    vertex 97.33248717541127 73.34678606290953 82.1877978627719
    vertex 97.33248717541127 66.2616006286322 88.2907502500156
    vertex 97.33248717541132 66.34678606290953 88.93779786277189
  endloop
endfacet
facet normal -1.0 3.168244373710511e-16 -8.208503878124207e-30
  outer loop
    vertex 97.33248717541127 73.34678606290953 82.1877978627719
    vertex 97.33248717541132 66.34678606290953 88.93779786277189
    vertex 97.33248717541127 73.34678606290953 98.68779786277189
  endloop
endfacet
facet normal 0.0 0.0 -1.0
  outer loop
    vertex 80.83248717541127 73.34678606290953 98.68779786277189
    vertex 88.15844906973463 64.09678606290953 98.68779786277189
    vertex 80.83248717541127 46.84678606290954 98.68779786277189
  endloop
endfacet
facet normal 0.0 0.0 -1.0
  outer loop
    vertex 88.15844906973463 64.09678606290953 98.68779786277189
    vertex 80.83248717541127 73.34678606290953 98.68779786277189
    vertex 88.39682700363146 64.40744623468936 98.68779786277189
  endloop
endfacet
facet normal 0.0 0.0 -1.0
  outer loop
    vertex 88.39682700363146 64.40744623468936 98.68779786277189
    vertex 80.83248717541127 73.34678606290953 98.68779786277189
    vertex 97.33248717541127 73.34678606290953 98.68779786277189
  endloop
endfacet
facet normal 0.0 0.0 -1.0
  outer loop
    vertex 80.83248717541127 46.84678606290954 98.68779786277189
    vertex 88.15844906973463 64.09678606290953 98.68779786277189
    vertex 88.00859843597766 63.735014630563306 98.68779786277189
  endloop
endfacet
facet normal 0.0 0.0 -1.0
  outer loop
    vertex 80.83248717541127 46.84678606290954 98.68779786277189
    vertex 88.00859843597766 63.735014630563306 98.68779786277189
    vertex 87.95748717541133 63.34678606290953 98.68779786277189
  endloop
endfacet
facet normal 0.0 0.0 -1.0
  outer loop
    vertex 88.39682700363146 64.40744623468936 98.68779786277189
    vertex 97.33248717541127 73.34678606290953 98.68779786277189
    vertex 88.70748717541129 64.64582416858617 98.68779786277189
  endloop
endfacet
facet normal 0.0 0.0 -1.0
  outer loop
    vertex 88.70748717541129 64.64582416858617 98.68779786277189
    vertex 97.33248717541127 73.34678606290953 98.68779786277189
    vertex 89.0692586077575 64.79567480234313 98.68779786277189
  endloop
endfacet
facet normal 0.0 0.0 -1.0
  outer loop
    vertex 89.0692586077575 64.79567480234313 98.68779786277189
    vertex 97.33248717541127 73.34678606290953 98.68779786277189
    vertex 89.4574871754113 64.8467860629095 98.68779786277189
  endloop
endfacet
facet normal 0.0 0.0 -1.0
  outer loop
    vertex 89.4574871754113 64.8467860629095 98.68779786277189
    vertex 97.33248717541127 73.34678606290953 98.68779786277189
    vertex 89.84571574306506 64.79567480234313 98.68779786277189
  endloop
endfacet
facet normal 0.0 0.0 -1.0
  outer loop
    vertex 89.84571574306506 64.79567480234313 98.68779786277189
    vertex 97.33248717541127 73.34678606290953 98.68779786277189
    vertex 90.20748717541132 64.6458241685862 98.68779786277189
  endloop
endfacet
facet normal 0.0 0.0 -1.0
  outer loop
    vertex 90.20748717541132 64.6458241685862 98.68779786277189
    vertex 97.33248717541127 73.34678606290953 98.68779786277189
    vertex 90.5181473471911 64.40744623468936 98.68779786277189
  endloop
endfacet
facet normal 0.0 0.0 -1.0
  outer loop
    vertex 90.5181473471911 64.40744623468936 98.68779786277189
    vertex 97.33248717541127 73.34678606290953 98.68779786277189
    vertex 90.75652528108793 64.09678606290953 98.68779786277189
  endloop
endfacet
facet normal 0.0 0.0 -1.0
  outer loop
    vertex 90.75652528108793 64.09678606290953 98.68779786277189
    vertex 97.33248717541127 73.34678606290953 98.68779786277189
    vertex 90.90637591484486 63.735014630563306 98.68779786277189
  endloop
endfacet
facet normal 0.0 0.0 -1.0
  outer loop
    vertex 90.90637591484486 63.735014630563306 98.68779786277189
    vertex 97.33248717541127 73.34678606290953 98.68779786277189
    vertex 90.95748717541132 63.34678606290953 98.68779786277189
  endloop
endfacet
facet normal 0.0 0.0 -1.0
  outer loop
    vertex 80.83248717541127 46.84678606290954 98.68779786277189
    vertex 88.15844906973463 62.59678606290953 98.68779786277189
    vertex 97.33248717541127 46.84678606290954 98.68779786277189
  endloop
endfacet
facet normal 0.0 0.0 -1.0
  outer loop
    vertex 88.15844906973463 62.59678606290953 98.68779786277189
    vertex 80.83248717541127 46.84678606290954 98.68779786277189
    vertex 88.0085984359777 62.958557495255754 98.68779786277189
  endloop
endfacet
facet normal 0.0 0.0 -1.0
  outer loop
    vertex 88.0085984359777 62.958557495255754 98.68779786277189
    vertex 80.83248717541127 46.84678606290954 98.68779786277189
    vertex 87.95748717541133 63.34678606290953 98.68779786277189
  endloop
endfacet
facet normal 0.0 0.0 -1.0
  outer loop
    vertex 97.33248717541127 46.84678606290954 98.68779786277189
    vertex 88.15844906973463 62.59678606290953 98.68779786277189
    vertex 88.39682700363146 62.28612589112971 98.68779786277189
  endloop
endfacet
facet normal 0.0 0.0 -1.0
  outer loop
    vertex 97.33248717541127 46.84678606290954 98.68779786277189
    vertex 88.39682700363146 62.28612589112971 98.68779786277189
    vertex 88.70748717541133 62.04774795723288 98.68779786277189
  endloop
endfacet
facet normal 0.0 0.0 -1.0
  outer loop
    vertex 97.33248717541127 46.84678606290954 98.68779786277189
    vertex 88.70748717541133 62.04774795723288 98.68779786277189
    vertex 89.0692586077575 61.89789732347593 98.68779786277189
  endloop
endfacet
facet normal 0.0 0.0 -1.0
  outer loop
    vertex 97.33248717541127 46.84678606290954 98.68779786277189
    vertex 89.0692586077575 61.89789732347593 98.68779786277189
    vertex 89.4574871754113 61.84678606290951 98.68779786277189
  endloop
endfacet
facet normal 0.0 0.0 -1.0
  outer loop
    vertex 97.33248717541127 46.84678606290954 98.68779786277189
    vertex 89.4574871754113 61.84678606290951 98.68779786277189
    vertex 89.84571574306506 61.89789732347593 98.68779786277189
  endloop
endfacet
facet normal 0.0 0.0 -1.0
  outer loop
    vertex 97.33248717541127 46.84678606290954 98.68779786277189
    vertex 89.84571574306506 61.89789732347593 98.68779786277189
    vertex 90.20748717541136 62.0477479572329 98.68779786277189
  endloop
endfacet
facet normal 0.0 0.0 -1.0
  outer loop
    vertex 97.33248717541127 46.84678606290954 98.68779786277189
    vertex 90.20748717541136 62.0477479572329 98.68779786277189
    vertex 90.5181473471911 62.28612589112971 98.68779786277189
  endloop
endfacet
facet normal 0.0 0.0 -1.0
  outer loop
    vertex 97.33248717541127 46.84678606290954 98.68779786277189
    vertex 90.5181473471911 62.28612589112971 98.68779786277189
    vertex 90.75652528108793 62.59678606290953 98.68779786277189
  endloop
endfacet
facet normal 0.0 0.0 -1.0
  outer loop
    vertex 97.33248717541127 46.84678606290954 98.68779786277189
    vertex 90.75652528108793 62.59678606290953 98.68779786277189
    vertex 90.9063759148449 62.958557495255754 98.68779786277189
  endloop
endfacet
facet normal 0.0 0.0 -1.0
  outer loop
    vertex 97.33248717541127 46.84678606290954 98.68779786277189
    vertex 90.9063759148449 62.958557495255754 98.68779786277189
    vertex 90.95748717541132 63.34678606290953 98.68779786277189
  endloop
endfacet
facet normal 0.0 0.0 -1.0
  outer loop
    vertex 97.33248717541127 46.84678606290954 98.68779786277189
    vertex 90.95748717541132 63.34678606290953 98.68779786277189
    vertex 97.33248717541127 73.34678606290953 98.68779786277189
  endloop
endfacet
facet normal 0.0 -0.25881904510252424 0.9659258262890674
  outer loop
    vertex 97.33248717541136 64.49383367566583 86.52298329704921
    vertex 100.83248717541133 65.09678606290953 86.77273435331078
    vertex 97.33248717541132 65.09678606290953 86.77273435331078
  endloop
endfacet
facet normal 0.0 -0.5000000000000152 0.8660254037844299
  outer loop
    vertex 100.83248717541133 65.09678606290953 86.77273435331078
    vertex 97.33248717541136 64.49383367566583 86.52298329704921
    vertex 100.83248717541137 64.49383367566583 86.52298329704921
  endloop
endfacet
facet normal 0.0 -0.5000000000000252 0.866025403784424
  outer loop
    vertex 97.33248717541132 65.09678606290953 86.77273435331078
    vertex 100.83248717541129 65.61455301587588 87.17003090980555
    vertex 97.33248717541127 65.61455301587588 87.17003090980555
  endloop
endfacet
facet normal 0.0 -0.7071067811865572 0.7071067811865379
  outer loop
    vertex 100.83248717541129 65.61455301587588 87.17003090980555
    vertex 97.33248717541132 65.09678606290953 86.77273435331078
    vertex 100.83248717541133 65.09678606290953 86.77273435331078
  endloop
endfacet
facet normal 0.0 -0.8660254037844378 0.5000000000000014
  outer loop
    vertex 100.83248717541133 66.01184957237062 87.6877978627719
    vertex 97.33248717541127 65.61455301587588 87.17003090980555
    vertex 100.83248717541129 65.61455301587588 87.17003090980555
  endloop
endfacet
facet normal 0.0 -0.7071067811865592 0.7071067811865357
  outer loop
    vertex 97.33248717541127 65.61455301587588 87.17003090980555
    vertex 100.83248717541133 66.01184957237062 87.6877978627719
    vertex 97.33248717541127 66.01184957237062 87.6877978627719
  endloop
endfacet
facet normal 0.0 -0.8660254037844378 -0.5000000000000014
  outer loop
    vertex 100.83248717541133 66.01184957237062 90.18779786277189
    vertex 97.33248717541127 66.2616006286322 89.58484547552818
    vertex 100.83248717541129 66.2616006286322 89.58484547552818
  endloop
endfacet
facet normal 0.0 -0.9659258262890676 -0.2588190451025232
  outer loop
    vertex 97.33248717541127 66.2616006286322 89.58484547552818
    vertex 100.83248717541133 66.01184957237062 90.18779786277189
    vertex 97.33248717541127 66.01184957237062 90.18779786277189
  endloop
endfacet
facet normal 0.0 0.0 1.0
  outer loop
    vertex 80.83248717541127 43.34678606290954 103.68779786277193
    vertex 88.15844906973463 62.59678606290953 103.68779786277197
    vertex 80.83248717541127 73.34678606290953 103.68779786277193
  endloop
endfacet
facet normal 0.0 0.0 1.0
  outer loop
    vertex 88.15844906973463 62.59678606290953 103.68779786277197
    vertex 80.83248717541127 43.34678606290954 103.68779786277193
    vertex 102.83248717541127 43.34678606290954 103.68779786277193
  endloop
endfacet
facet normal 0.0 0.0 1.0
  outer loop
    vertex 80.83248717541127 73.34678606290953 103.68779786277193
    vertex 88.15844906973463 62.59678606290953 103.68779786277197
    vertex 88.0085984359777 62.958557495255754 103.68779786277197
  endloop
endfacet
facet normal 0.0 0.0 1.0
  outer loop
    vertex 80.83248717541127 73.34678606290953 103.68779786277193
    vertex 88.0085984359777 62.958557495255754 103.68779786277197
    vertex 87.95748717541133 63.34678606290953 103.68779786277197
  endloop
endfacet
facet normal 0.0 0.0 1.0
  outer loop
    vertex 88.15844906973463 62.59678606290953 103.68779786277197
    vertex 102.83248717541127 43.34678606290954 103.68779786277193
    vertex 88.39682700363146 62.28612589112971 103.68779786277197
  endloop
endfacet
facet normal 0.0 0.0 1.0
  outer loop
    vertex 88.39682700363146 62.28612589112971 103.68779786277197
    vertex 102.83248717541127 43.34678606290954 103.68779786277193
    vertex 88.70748717541133 62.04774795723288 103.68779786277197
  endloop
endfacet
facet normal 0.0 0.0 1.0
  outer loop
    vertex 88.70748717541133 62.04774795723288 103.68779786277197
    vertex 102.83248717541127 43.34678606290954 103.68779786277193
    vertex 89.0692586077575 61.89789732347593 103.68779786277197
  endloop
endfacet
facet normal 0.0 0.0 1.0
  outer loop
    vertex 89.0692586077575 61.89789732347593 103.68779786277197
    vertex 102.83248717541127 43.34678606290954 103.68779786277193
    vertex 89.4574871754113 61.84678606290951 103.68779786277197
  endloop
endfacet
facet normal 0.0 0.0 1.0
  outer loop
    vertex 89.4574871754113 61.84678606290951 103.68779786277197
    vertex 102.83248717541127 43.34678606290954 103.68779786277193
    vertex 89.84571574306506 61.89789732347593 103.68779786277197
  endloop
endfacet
facet normal 0.0 0.0 1.0
  outer loop
    vertex 89.84571574306506 61.89789732347593 103.68779786277197
    vertex 102.83248717541127 43.34678606290954 103.68779786277193
    vertex 90.20748717541136 62.0477479572329 103.68779786277197
  endloop
endfacet
facet normal 0.0 0.0 1.0
  outer loop
    vertex 90.20748717541136 62.0477479572329 103.68779786277197
    vertex 102.83248717541127 43.34678606290954 103.68779786277193
    vertex 90.5181473471911 62.28612589112971 103.68779786277197
  endloop
endfacet
facet normal 0.0 0.0 1.0
  outer loop
    vertex 90.5181473471911 62.28612589112971 103.68779786277197
    vertex 102.83248717541127 43.34678606290954 103.68779786277193
    vertex 90.75652528108793 62.59678606290953 103.68779786277197
  endloop
endfacet
facet normal 0.0 0.0 1.0
  outer loop
    vertex 90.75652528108793 62.59678606290953 103.68779786277197
    vertex 102.83248717541127 43.34678606290954 103.68779786277193
    vertex 90.9063759148449 62.958557495255754 103.68779786277197
  endloop
endfacet
facet normal 0.0 0.0 1.0
  outer loop
    vertex 90.9063759148449 62.958557495255754 103.68779786277197
    vertex 102.83248717541127 43.34678606290954 103.68779786277193
    vertex 90.95748717541132 63.34678606290953 103.68779786277197
  endloop
endfacet
facet normal 0.0 0.0 1.0
  outer loop
    vertex 80.83248717541127 73.34678606290953 103.68779786277193
    vertex 88.70748717541129 64.64582416858617 103.68779786277197
    vertex 102.83248717541127 73.34678606290953 103.68779786277193
  endloop
endfacet
facet normal 0.0 0.0 1.0
  outer loop
    vertex 88.70748717541129 64.64582416858617 103.68779786277197
    vertex 80.83248717541127 73.34678606290953 103.68779786277193
    vertex 88.39682700363146 64.40744623468936 103.68779786277197
  endloop
endfacet
facet normal 0.0 0.0 1.0
  outer loop
    vertex 88.39682700363146 64.40744623468936 103.68779786277197
    vertex 80.83248717541127 73.34678606290953 103.68779786277193
    vertex 88.15844906973463 64.09678606290953 103.68779786277197
  endloop
endfacet
facet normal 0.0 0.0 1.0
  outer loop
    vertex 88.15844906973463 64.09678606290953 103.68779786277197
    vertex 80.83248717541127 73.34678606290953 103.68779786277193
    vertex 88.00859843597766 63.735014630563306 103.68779786277197
  endloop
endfacet
facet normal 0.0 0.0 1.0
  outer loop
    vertex 88.00859843597766 63.735014630563306 103.68779786277197
    vertex 80.83248717541127 73.34678606290953 103.68779786277193
    vertex 87.95748717541133 63.34678606290953 103.68779786277197
  endloop
endfacet
facet normal 0.0 0.0 1.0
  outer loop
    vertex 102.83248717541127 73.34678606290953 103.68779786277193
    vertex 88.70748717541129 64.64582416858617 103.68779786277197
    vertex 89.0692586077575 64.79567480234313 103.68779786277197
  endloop
endfacet
facet normal 0.0 0.0 1.0
  outer loop
    vertex 102.83248717541127 73.34678606290953 103.68779786277193
    vertex 89.0692586077575 64.79567480234313 103.68779786277197
    vertex 89.4574871754113 64.8467860629095 103.68779786277197
  endloop
endfacet
facet normal 0.0 0.0 1.0
  outer loop
    vertex 102.83248717541127 73.34678606290953 103.68779786277193
    vertex 89.4574871754113 64.8467860629095 103.68779786277197
    vertex 89.84571574306506 64.79567480234313 103.68779786277197
  endloop
endfacet
facet normal 0.0 0.0 1.0
  outer loop
    vertex 102.83248717541127 73.34678606290953 103.68779786277193
    vertex 89.84571574306506 64.79567480234313 103.68779786277197
    vertex 90.20748717541132 64.6458241685862 103.68779786277197
  endloop
endfacet
facet normal 0.0 0.0 1.0
  outer loop
    vertex 102.83248717541127 73.34678606290953 103.68779786277193
    vertex 90.20748717541132 64.6458241685862 103.68779786277197
    vertex 90.5181473471911 64.40744623468936 103.68779786277197
  endloop
endfacet
facet normal 0.0 0.0 1.0
  outer loop
    vertex 102.83248717541127 73.34678606290953 103.68779786277193
    vertex 90.5181473471911 64.40744623468936 103.68779786277197
    vertex 90.75652528108793 64.09678606290953 103.68779786277197
  endloop
endfacet
facet normal 0.0 0.0 1.0
  outer loop
    vertex 102.83248717541127 73.34678606290953 103.68779786277193
    vertex 90.75652528108793 64.09678606290953 103.68779786277197
    vertex 90.90637591484486 63.735014630563306 103.68779786277197
  endloop
endfacet
facet normal 0.0 0.0 1.0
  outer loop
    vertex 102.83248717541127 73.34678606290953 103.68779786277193
    vertex 90.90637591484486 63.735014630563306 103.68779786277197
    vertex 90.95748717541132 63.34678606290953 103.68779786277197
  endloop
endfacet
facet normal 0.0 0.0 1.0
  outer loop
    vertex 102.83248717541127 73.34678606290953 103.68779786277193
    vertex 90.95748717541132 63.34678606290953 103.68779786277197
    vertex 102.83248717541127 43.34678606290954 103.68779786277193
  endloop
endfacet
facet normal 1.0 0.0 0.0
  outer loop
    vertex 102.83248717541127 73.34678606290953 102.2377978627719
    vertex 102.83248717541127 43.34678606290954 103.68779786277193
    vertex 102.83248717541127 43.34678606290954 102.2377978627719
  endloop
endfacet
facet normal 1.0 0.0 0.0
  outer loop
    vertex 102.83248717541127 43.34678606290954 103.68779786277193
    vertex 102.83248717541127 73.34678606290953 102.2377978627719
    vertex 102.83248717541127 73.34678606290953 103.68779786277193
  endloop
endfacet
facet normal -0.4999999999999992 0.866025403784439 0.0
  outer loop
    vertex 90.20748717541136 62.0477479572329 103.68779786277197
    vertex 90.5181473471911 62.28612589112971 98.68779786277189
    vertex 90.20748717541136 62.0477479572329 98.68779786277189
  endloop
endfacet
facet normal -0.7071067811865425 0.7071067811865526 0.0
  outer loop
    vertex 90.5181473471911 62.28612589112971 98.68779786277189
    vertex 90.20748717541136 62.0477479572329 103.68779786277197
    vertex 90.5181473471911 62.28612589112971 103.68779786277197
  endloop
endfacet
facet normal -0.8660254037844389 0.4999999999999997 0.0
  outer loop
    vertex 90.75652528108793 62.59678606290953 103.68779786277197
    vertex 90.5181473471911 62.28612589112971 98.68779786277189
    vertex 90.5181473471911 62.28612589112971 103.68779786277197
  endloop
endfacet
facet normal -0.7071067811865425 0.7071067811865526 0.0
  outer loop
    vertex 90.5181473471911 62.28612589112971 98.68779786277189
    vertex 90.75652528108793 62.59678606290953 103.68779786277197
    vertex 90.75652528108793 62.59678606290953 98.68779786277189
  endloop
endfacet
facet normal -0.9659258262890686 0.2588190451025196 0.0
  outer loop
    vertex 90.9063759148449 62.958557495255754 103.68779786277197
    vertex 90.75652528108793 62.59678606290953 98.68779786277189
    vertex 90.75652528108793 62.59678606290953 103.68779786277197
  endloop
endfacet
facet normal -0.8660254037844389 0.4999999999999997 0.0
  outer loop
    vertex 90.75652528108793 62.59678606290953 98.68779786277189
    vertex 90.9063759148449 62.958557495255754 103.68779786277197
    vertex 90.9063759148449 62.958557495255754 98.68779786277189
  endloop
endfacet
facet normal -1.0 0.0 0.0
  outer loop
    vertex 90.95748717541132 63.34678606290953 103.68779786277197
    vertex 90.9063759148449 62.958557495255754 98.68779786277189
    vertex 90.9063759148449 62.958557495255754 103.68779786277197
  endloop
endfacet
facet normal -0.9659258262890686 0.2588190451025196 0.0
  outer loop
    vertex 90.9063759148449 62.958557495255754 98.68779786277189
    vertex 90.95748717541132 63.34678606290953 103.68779786277197
    vertex 90.95748717541132 63.34678606290953 98.68779786277189
  endloop
endfacet
facet normal -0.9659258262890685 -0.2588190451025195 0.0
  outer loop
    vertex 90.90637591484486 63.735014630563306 103.68779786277197
    vertex 90.95748717541132 63.34678606290953 98.68779786277189
    vertex 90.95748717541132 63.34678606290953 103.68779786277197
  endloop
endfacet
facet normal -1.0 0.0 0.0
  outer loop
    vertex 90.95748717541132 63.34678606290953 98.68779786277189
    vertex 90.90637591484486 63.735014630563306 103.68779786277197
    vertex 90.90637591484486 63.735014630563306 98.68779786277189
  endloop
endfacet
facet normal -0.8660254037844389 -0.4999999999999998 0.0
  outer loop
    vertex 90.75652528108793 64.09678606290953 103.68779786277197
    vertex 90.90637591484486 63.735014630563306 98.68779786277189
    vertex 90.90637591484486 63.735014630563306 103.68779786277197
  endloop
endfacet
facet normal -0.9659258262890685 -0.2588190451025195 0.0
  outer loop
    vertex 90.90637591484486 63.735014630563306 98.68779786277189
    vertex 90.75652528108793 64.09678606290953 103.68779786277197
    vertex 90.75652528108793 64.09678606290953 98.68779786277189
  endloop
endfacet
facet normal -0.7071067811865425 -0.7071067811865526 0.0
  outer loop
    vertex 90.5181473471911 64.40744623468936 103.68779786277197
    vertex 90.75652528108793 64.09678606290953 98.68779786277189
    vertex 90.75652528108793 64.09678606290953 103.68779786277197
  endloop
endfacet
facet normal -0.8660254037844389 -0.4999999999999998 0.0
  outer loop
    vertex 90.75652528108793 64.09678606290953 98.68779786277189
    vertex 90.5181473471911 64.40744623468936 103.68779786277197
    vertex 90.5181473471911 64.40744623468936 98.68779786277189
  endloop
endfacet
facet normal -0.7071067811865425 -0.7071067811865526 0.0
  outer loop
    vertex 90.5181473471911 64.40744623468936 103.68779786277197
    vertex 90.20748717541132 64.6458241685862 98.68779786277189
    vertex 90.5181473471911 64.40744623468936 98.68779786277189
  endloop
endfacet
facet normal -0.4999999999999992 -0.866025403784439 0.0
  outer loop
    vertex 90.20748717541132 64.6458241685862 98.68779786277189
    vertex 90.5181473471911 64.40744623468936 103.68779786277197
    vertex 90.20748717541132 64.6458241685862 103.68779786277197
  endloop
endfacet
facet normal -0.4999999999999992 -0.866025403784439 0.0
  outer loop
    vertex 90.20748717541132 64.6458241685862 103.68779786277197
    vertex 89.84571574306506 64.79567480234313 98.68779786277189
    vertex 90.20748717541132 64.6458241685862 98.68779786277189
  endloop
endfacet
facet normal -0.25881904510252596 -0.965925826289067 0.0
  outer loop
    vertex 89.84571574306506 64.79567480234313 98.68779786277189
    vertex 90.20748717541132 64.6458241685862 103.68779786277197
    vertex 89.84571574306506 64.79567480234313 103.68779786277197
  endloop
endfacet
facet normal -0.25881904510252596 -0.965925826289067 0.0
  outer loop
    vertex 89.84571574306506 64.79567480234313 103.68779786277197
    vertex 89.4574871754113 64.8467860629095 98.68779786277189
    vertex 89.84571574306506 64.79567480234313 98.68779786277189
  endloop
endfacet
facet normal -9.44577648938571e-16 -1.0 0.0
  outer loop
    vertex 89.4574871754113 64.8467860629095 98.68779786277189
    vertex 89.84571574306506 64.79567480234313 103.68779786277197
    vertex 89.4574871754113 64.8467860629095 103.68779786277197
  endloop
endfacet
facet normal -9.44577648938571e-16 -1.0 0.0
  outer loop
    vertex 89.4574871754113 64.8467860629095 103.68779786277197
    vertex 89.0692586077575 64.79567480234313 98.68779786277189
    vertex 89.4574871754113 64.8467860629095 98.68779786277189
  endloop
endfacet
facet normal 0.25881904510252773 -0.9659258262890664 0.0
  outer loop
    vertex 89.0692586077575 64.79567480234313 98.68779786277189
    vertex 89.4574871754113 64.8467860629095 103.68779786277197
    vertex 89.0692586077575 64.79567480234313 103.68779786277197
  endloop
endfacet
facet normal 0.25881904510252773 -0.9659258262890664 0.0
  outer loop
    vertex 89.0692586077575 64.79567480234313 103.68779786277197
    vertex 88.70748717541129 64.64582416858617 98.68779786277189
    vertex 89.0692586077575 64.79567480234313 98.68779786277189
  endloop
endfacet
facet normal 0.5000000000000018 -0.8660254037844376 0.0
  outer loop
    vertex 88.70748717541129 64.64582416858617 98.68779786277189
    vertex 89.0692586077575 64.79567480234313 103.68779786277197
    vertex 88.70748717541129 64.64582416858617 103.68779786277197
  endloop
endfacet
facet normal 0.5000000000000018 -0.8660254037844376 0.0
  outer loop
    vertex 88.70748717541129 64.64582416858617 103.68779786277197
    vertex 88.39682700363146 64.40744623468936 98.68779786277189
    vertex 88.70748717541129 64.64582416858617 98.68779786277189
  endloop
endfacet
facet normal 0.7071067811865425 -0.7071067811865526 0.0
  outer loop
    vertex 88.39682700363146 64.40744623468936 98.68779786277189
    vertex 88.70748717541129 64.64582416858617 103.68779786277197
    vertex 88.39682700363146 64.40744623468936 103.68779786277197
  endloop
endfacet
facet normal 0.7071067811865425 -0.7071067811865526 0.0
  outer loop
    vertex 88.39682700363146 64.40744623468936 98.68779786277189
    vertex 88.15844906973463 64.09678606290953 103.68779786277197
    vertex 88.15844906973463 64.09678606290953 98.68779786277189
  endloop
endfacet
facet normal 0.8660254037844389 -0.4999999999999997 0.0
  outer loop
    vertex 88.15844906973463 64.09678606290953 103.68779786277197
    vertex 88.39682700363146 64.40744623468936 98.68779786277189
    vertex 88.39682700363146 64.40744623468936 103.68779786277197
  endloop
endfacet
facet normal 0.8660254037844389 -0.4999999999999997 0.0
  outer loop
    vertex 88.15844906973463 64.09678606290953 98.68779786277189
    vertex 88.00859843597766 63.735014630563306 103.68779786277197
    vertex 88.00859843597766 63.735014630563306 98.68779786277189
  endloop
endfacet
facet normal 0.9659258262890686 -0.2588190451025196 0.0
  outer loop
    vertex 88.00859843597766 63.735014630563306 103.68779786277197
    vertex 88.15844906973463 64.09678606290953 98.68779786277189
    vertex 88.15844906973463 64.09678606290953 103.68779786277197
  endloop
endfacet
facet normal 0.9659258262890686 -0.2588190451025196 0.0
  outer loop
    vertex 88.00859843597766 63.735014630563306 98.68779786277189
    vertex 87.95748717541133 63.34678606290953 103.68779786277197
    vertex 87.95748717541133 63.34678606290953 98.68779786277189
  endloop
endfacet
facet normal 1.0 7.119976806621877e-15 0.0
  outer loop
    vertex 87.95748717541133 63.34678606290953 103.68779786277197
    vertex 88.00859843597766 63.735014630563306 98.68779786277189
    vertex 88.00859843597766 63.735014630563306 103.68779786277197
  endloop
endfacet
facet normal 1.0 7.119976806621877e-15 0.0
  outer loop
    vertex 87.95748717541133 63.34678606290953 98.68779786277189
    vertex 88.0085984359777 62.958557495255754 103.68779786277197
    vertex 88.0085984359777 62.958557495255754 98.68779786277189
  endloop
endfacet
facet normal 0.9659258262890685 0.25881904510251996 0.0
  outer loop
    vertex 88.0085984359777 62.958557495255754 103.68779786277197
    vertex 87.95748717541133 63.34678606290953 98.68779786277189
    vertex 87.95748717541133 63.34678606290953 103.68779786277197
  endloop
endfacet
facet normal 0.9659258262890685 0.25881904510251996 0.0
  outer loop
    vertex 88.0085984359777 62.958557495255754 98.68779786277189
    vertex 88.15844906973463 62.59678606290953 103.68779786277197
    vertex 88.15844906973463 62.59678606290953 98.68779786277189
  endloop
endfacet
facet normal 0.866025403784442 0.4999999999999939 0.0
  outer loop
    vertex 88.15844906973463 62.59678606290953 103.68779786277197
    vertex 88.0085984359777 62.958557495255754 98.68779786277189
    vertex 88.0085984359777 62.958557495255754 103.68779786277197
  endloop
endfacet
facet normal 0.866025403784442 0.4999999999999939 0.0
  outer loop
    vertex 88.15844906973463 62.59678606290953 98.68779786277189
    vertex 88.39682700363146 62.28612589112971 103.68779786277197
    vertex 88.39682700363146 62.28612589112971 98.68779786277189
  endloop
endfacet
facet normal 0.7071067811865425 0.7071067811865526 0.0
  outer loop
    vertex 88.39682700363146 62.28612589112971 103.68779786277197
    vertex 88.15844906973463 62.59678606290953 98.68779786277189
    vertex 88.15844906973463 62.59678606290953 103.68779786277197
  endloop
endfacet
facet normal 0.7071067811865425 0.7071067811865526 0.0
  outer loop
    vertex 88.39682700363146 62.28612589112971 103.68779786277197
    vertex 88.70748717541133 62.04774795723288 98.68779786277189
    vertex 88.39682700363146 62.28612589112971 98.68779786277189
  endloop
endfacet
facet normal 0.4999999999999992 0.866025403784439 0.0
  outer loop
    vertex 88.70748717541133 62.04774795723288 98.68779786277189
    vertex 88.39682700363146 62.28612589112971 103.68779786277197
    vertex 88.70748717541133 62.04774795723288 103.68779786277197
  endloop
endfacet
facet normal 0.4999999999999992 0.866025403784439 0.0
  outer loop
    vertex 88.70748717541133 62.04774795723288 103.68779786277197
    vertex 89.0692586077575 61.89789732347593 98.68779786277189
    vertex 88.70748717541133 62.04774795723288 98.68779786277189
  endloop
endfacet
facet normal 0.25881904510252596 0.965925826289067 0.0
  outer loop
    vertex 89.0692586077575 61.89789732347593 98.68779786277189
    vertex 88.70748717541133 62.04774795723288 103.68779786277197
    vertex 89.0692586077575 61.89789732347593 103.68779786277197
  endloop
endfacet
facet normal 0.25881904510252596 0.965925826289067 0.0
  outer loop
    vertex 89.0692586077575 61.89789732347593 103.68779786277197
    vertex 89.4574871754113 61.84678606290951 98.68779786277189
    vertex 89.0692586077575 61.89789732347593 98.68779786277189
  endloop
endfacet
facet normal 0.0 1.0 0.0
  outer loop
    vertex 89.4574871754113 61.84678606290951 98.68779786277189
    vertex 89.0692586077575 61.89789732347593 103.68779786277197
    vertex 89.4574871754113 61.84678606290951 103.68779786277197
  endloop
endfacet
facet normal 0.0 1.0 0.0
  outer loop
    vertex 89.4574871754113 61.84678606290951 103.68779786277197
    vertex 89.84571574306506 61.89789732347593 98.68779786277189
    vertex 89.4574871754113 61.84678606290951 98.68779786277189
  endloop
endfacet
facet normal -0.25881904510252596 0.965925826289067 0.0
  outer loop
    vertex 89.84571574306506 61.89789732347593 98.68779786277189
    vertex 89.4574871754113 61.84678606290951 103.68779786277197
    vertex 89.84571574306506 61.89789732347593 103.68779786277197
  endloop
endfacet
facet normal -0.25881904510252596 0.965925826289067 0.0
  outer loop
    vertex 89.84571574306506 61.89789732347593 103.68779786277197
    vertex 90.20748717541136 62.0477479572329 98.68779786277189
    vertex 89.84571574306506 61.89789732347593 98.68779786277189
  endloop
endfacet
facet normal -0.4999999999999992 0.866025403784439 0.0
  outer loop
    vertex 90.20748717541136 62.0477479572329 98.68779786277189
    vertex 89.84571574306506 61.89789732347593 103.68779786277197
    vertex 90.20748717541136 62.0477479572329 103.68779786277197
  endloop
endfacet
facet normal -2.018587317536314e-18 1.0 0.0
  outer loop
    vertex 97.33248717541127 46.84678606290954 98.68779786277189
    vertex 97.33248717541127 46.84678606290954 82.1877978627719
    vertex 80.83248717541127 46.84678606290954 98.68779786277189
  endloop
endfacet
facet normal -0.7071067811865476 -2.447798175115424e-15 -0.7071067811865476
  outer loop
    vertex 80.83248717541127 46.84678606290954 98.68779786277189
    vertex 97.33248717541127 43.34678606290954 82.1877978627719
    vertex 80.83248717541127 43.34678606290954 98.68779786277189
  endloop
endfacet
facet normal -0.7071067811865476 -2.447798175115424e-15 -0.7071067811865476
  outer loop
    vertex 97.33248717541127 43.34678606290954 82.1877978627719
    vertex 80.83248717541127 46.84678606290954 98.68779786277189
    vertex 97.33248717541127 46.84678606290954 82.1877978627719
  endloop
endfacet
endsolid SAV_SMARTCUBE55
