solid SAV_SMARTCUBE65
facet normal -1.0 0.0 0.0
  outer loop
    vertex 80.83248717541132 243.34678606290956 103.69836699742288
    vertex 80.83248717541132 223.34678606290956 98.69836699742285
    vertex 80.83248717541132 223.34678606290956 103.69836699742288
  endloop
endfacet
facet normal -1.0 0.0 0.0
  outer loop
    vertex 80.83248717541132 223.34678606290956 98.69836699742285
    vertex 80.83248717541132 243.34678606290956 103.69836699742288
    vertex 80.83248717541132 243.34678606290956 98.69836699742285
  endloop
endfacet
facet normal 0.0 -1.0 0.0
  outer loop
    vertex 104.6824871754113 223.34678606290956 79.78843299742285
    vertex 102.68248717541131 223.34678606290956 81.78843299742283
    vertex 97.3324871754113 223.34678606290956 79.78843299742285
  endloop
endfacet
facet normal 0.0 -1.0 0.0
  outer loop
    vertex 102.68248717541131 223.34678606290956 81.78843299742283
    vertex 104.6824871754113 223.34678606290956 79.78843299742285
    vertex 104.6824871754113 223.34678606290956 84.19836699742291
  endloop
endfacet
facet normal 0.0 -1.0 0.0
  outer loop
    vertex 102.68248717541131 223.34678606290956 81.78843299742283
    vertex 104.6824871754113 223.34678606290956 84.19836699742291
    vertex 102.68248717541131 223.34678606290956 84.19836699742291
  endloop
endfacet
facet normal 0.0 -1.0 0.0
  outer loop
    vertex 123.23248717541125 223.34678606290956 98.3483669974229
    vertex 121.23248717541128 223.34678606290956 100.34836699742289
    vertex 118.83248717541132 223.34678606290956 98.3483669974229
  endloop
endfacet
facet normal 0.0 -1.0 0.0
  outer loop
    vertex 121.23248717541128 223.34678606290956 100.34836699742289
    vertex 123.23248717541125 223.34678606290956 98.3483669974229
    vertex 123.23248717541125 223.34678606290956 104.19836699742288
  endloop
endfacet
facet normal 0.0 -1.0 0.0
  outer loop
    vertex 121.23248717541128 223.34678606290956 100.34836699742289
    vertex 123.23248717541125 223.34678606290956 104.19836699742288
    vertex 121.23248717541128 223.34678606290956 102.19836699742287
  endloop
endfacet
facet normal 0.0 -1.0 0.0
  outer loop
    vertex 121.23248717541128 223.34678606290956 102.19836699742287
    vertex 123.23248717541125 223.34678606290956 104.19836699742288
    vertex 100.83248717541132 223.34678606290956 102.19836699742287
  endloop
endfacet
facet normal 0.0 -1.0 0.0
  outer loop
    vertex 100.83248717541132 223.34678606290956 102.19836699742287
    vertex 123.23248717541125 223.34678606290956 104.19836699742288
    vertex 89.45748717541127 223.34678606290956 103.69836699742285
  endloop
endfacet
facet normal 0.0 -1.0 0.0
  outer loop
    vertex 89.45748717541127 223.34678606290956 103.69836699742285
    vertex 123.23248717541125 223.34678606290956 104.19836699742288
    vertex 89.45748717541127 223.34678606290956 104.19836699742285
  endloop
endfacet
facet normal 0.0 -1.0 0.0
  outer loop
    vertex 97.3324871754113 223.34678606290956 79.78843299742285
    vertex 100.83248717541132 223.34678606290956 81.78843299742283
    vertex 97.3324871754113 223.34678606290956 98.69836699742285
  endloop
endfacet
facet normal 0.0 -1.0 0.0
  outer loop
    vertex 100.83248717541132 223.34678606290956 81.78843299742283
    vertex 97.3324871754113 223.34678606290956 79.78843299742285
    vertex 102.68248717541131 223.34678606290956 81.78843299742283
  endloop
endfacet
facet normal 0.0 -1.0 0.0
  outer loop
    vertex 97.3324871754113 223.34678606290956 98.69836699742285
    vertex 100.83248717541132 223.34678606290956 81.78843299742283
    vertex 100.83248717541132 223.34678606290956 102.19836699742287
  endloop
endfacet
facet normal 0.0 -1.0 0.0
  outer loop
    vertex 97.3324871754113 223.34678606290956 98.69836699742285
    vertex 100.83248717541132 223.34678606290956 102.19836699742287
    vertex 80.83248717541132 223.34678606290956 98.69836699742285
  endloop
endfacet
facet normal 0.0 -1.0 0.0
  outer loop
    vertex 80.83248717541132 223.34678606290956 98.69836699742285
    vertex 100.83248717541132 223.34678606290956 102.19836699742287
    vertex 80.83248717541132 223.34678606290956 103.69836699742288
  endloop
endfacet
facet normal 0.0 -1.0 0.0
  outer loop
    vertex 80.83248717541132 223.34678606290956 103.69836699742288
    vertex 100.83248717541132 223.34678606290956 102.19836699742287
    vertex 89.45748717541127 223.34678606290956 103.69836699742285
  endloop
endfacet
facet normal 0.0 -1.0 0.0
  outer loop
    vertex 118.83248717541132 223.34678606290956 100.34836699742289
    vertex 118.83248717541132 223.34678606290956 98.3483669974229
    vertex 121.23248717541128 223.34678606290956 100.34836699742289
  endloop
endfacet
facet normal 0.0 1.0 0.0
  outer loop
    vertex 80.83248717541132 243.34678606290956 103.69836699742288
    vertex 97.3324871754113 243.34678606290956 98.69836699742285
    vertex 80.83248717541132 243.34678606290956 98.69836699742285
  endloop
endfacet
facet normal 0.0 1.0 0.0
  outer loop
    vertex 97.3324871754113 243.34678606290956 98.69836699742285
    vertex 80.83248717541132 243.34678606290956 103.69836699742288
    vertex 100.83248717541132 243.34678606290956 102.19836699742287
  endloop
endfacet
facet normal 0.0 1.0 0.0
  outer loop
    vertex 100.83248717541132 243.34678606290956 102.19836699742287
    vertex 80.83248717541132 243.34678606290956 103.69836699742288
    vertex 121.23248717541132 243.34678606290956 102.19836699742287
  endloop
endfacet
facet normal 0.0 1.0 0.0
  outer loop
    vertex 121.23248717541132 243.34678606290956 102.19836699742287
    vertex 80.83248717541132 243.34678606290956 103.69836699742288
    vertex 89.45748717541129 243.34678606290956 103.69836699742285
  endloop
endfacet
facet normal 0.0 1.0 0.0
  outer loop
    vertex 118.83248717541129 243.34678606290956 100.34836699742289
    vertex 123.23248717541131 243.34678606290956 98.3483669974229
    vertex 118.83248717541129 243.34678606290956 98.3483669974229
  endloop
endfacet
facet normal 0.0 1.0 0.0
  outer loop
    vertex 123.23248717541131 243.34678606290956 98.3483669974229
    vertex 118.83248717541129 243.34678606290956 100.34836699742289
    vertex 121.23248717541132 243.34678606290956 100.34836699742289
  endloop
endfacet
facet normal 0.0 1.0 0.0
  outer loop
    vertex 123.23248717541131 243.34678606290956 98.3483669974229
    vertex 121.23248717541132 243.34678606290956 100.34836699742289
    vertex 123.23248717541131 243.34678606290956 104.19836699742288
  endloop
endfacet
facet normal 0.0 1.0 0.0
  outer loop
    vertex 123.23248717541131 243.34678606290956 104.19836699742288
    vertex 121.23248717541132 243.34678606290956 100.34836699742289
    vertex 121.23248717541132 243.34678606290956 102.19836699742287
  endloop
endfacet
facet normal 0.0 1.0 0.0
  outer loop
    vertex 123.23248717541131 243.34678606290956 104.19836699742288
    vertex 121.23248717541132 243.34678606290956 102.19836699742287
    vertex 89.45748717541129 243.34678606290956 103.69836699742285
  endloop
endfacet
facet normal 0.0 1.0 0.0
  outer loop
    vertex 123.23248717541131 243.34678606290956 104.19836699742288
    vertex 89.45748717541129 243.34678606290956 103.69836699742285
    vertex 89.45748717541129 243.34678606290956 104.19836699742285
  endloop
endfacet
facet normal 0.0 1.0 0.0
  outer loop
    vertex 97.3324871754113 243.34678606290956 79.78843299742285
    vertex 100.83248717541132 243.34678606290956 81.78843299742283
    vertex 104.6824871754113 243.34678606290956 79.78843299742285
  endloop
endfacet
facet normal 0.0 1.0 0.0
  outer loop
    vertex 100.83248717541132 243.34678606290956 81.78843299742283
    vertex 97.3324871754113 243.34678606290956 79.78843299742285
    vertex 97.3324871754113 243.34678606290956 98.69836699742285
  endloop
endfacet
facet normal 0.0 1.0 0.0
  outer loop
    vertex 100.83248717541132 243.34678606290956 81.78843299742283
    vertex 97.3324871754113 243.34678606290956 98.69836699742285
    vertex 100.83248717541132 243.34678606290956 102.19836699742287
  endloop
endfacet
facet normal 0.0 1.0 0.0
  outer loop
    vertex 104.6824871754113 243.34678606290956 79.78843299742285
    vertex 102.68248717541131 243.34678606290956 81.78843299742283
    vertex 104.6824871754113 243.34678606290956 84.19836699742291
  endloop
endfacet
facet normal 0.0 1.0 0.0
  outer loop
    vertex 102.68248717541131 243.34678606290956 81.78843299742283
    vertex 104.6824871754113 243.34678606290956 79.78843299742285
    vertex 100.83248717541132 243.34678606290956 81.78843299742283
  endloop
endfacet
facet normal 0.0 1.0 0.0
  outer loop
    vertex 104.6824871754113 243.34678606290956 84.19836699742291
    vertex 102.68248717541131 243.34678606290956 81.78843299742283
    vertex 102.68248717541131 243.34678606290956 84.19836699742291
  endloop
endfacet
facet normal 0.0 0.0 -1.0
  outer loop
    vertex 80.83248717541132 243.34678606290956 98.69836699742285
    vertex 88.15844906973462 234.09678606290964 98.69836699742285
    vertex 80.83248717541132 223.34678606290956 98.69836699742285
  endloop
endfacet
facet normal 0.0 0.0 -1.0
  outer loop
    vertex 88.15844906973462 234.09678606290964 98.69836699742285
    vertex 80.83248717541132 243.34678606290956 98.69836699742285
    vertex 88.39682700363149 234.40744623468942 98.69836699742285
  endloop
endfacet
facet normal 0.0 0.0 -1.0
  outer loop
    vertex 88.39682700363149 234.40744623468942 98.69836699742285
    vertex 80.83248717541132 243.34678606290956 98.69836699742285
    vertex 97.3324871754113 243.34678606290956 98.69836699742285
  endloop
endfacet
facet normal 0.0 0.0 -1.0
  outer loop
    vertex 80.83248717541132 223.34678606290956 98.69836699742285
    vertex 88.15844906973462 234.09678606290964 98.69836699742285
    vertex 88.00859843597769 233.73501463056337 98.69836699742285
  endloop
endfacet
facet normal 0.0 0.0 -1.0
  outer loop
    vertex 80.83248717541132 223.34678606290956 98.69836699742285
    vertex 88.00859843597769 233.73501463056337 98.69836699742285
    vertex 87.95748717541127 233.3467860629096 98.69836699742285
  endloop
endfacet
facet normal 0.0 0.0 -1.0
  outer loop
    vertex 88.39682700363149 234.40744623468942 98.69836699742285
    vertex 97.3324871754113 243.34678606290956 98.69836699742285
    vertex 88.70748717541129 234.64582416858624 98.69836699742285
  endloop
endfacet
facet normal 0.0 0.0 -1.0
  outer loop
    vertex 88.70748717541129 234.64582416858624 98.69836699742285
    vertex 97.3324871754113 243.34678606290956 98.69836699742285
    vertex 89.06925860775749 234.79567480234317 98.69836699742285
  endloop
endfacet
facet normal 0.0 0.0 -1.0
  outer loop
    vertex 89.06925860775749 234.79567480234317 98.69836699742285
    vertex 97.3324871754113 243.34678606290956 98.69836699742285
    vertex 89.45748717541129 234.8467860629096 98.69836699742285
  endloop
endfacet
facet normal 0.0 0.0 -1.0
  outer loop
    vertex 89.45748717541129 234.8467860629096 98.69836699742285
    vertex 97.3324871754113 243.34678606290956 98.69836699742285
    vertex 89.84571574306509 234.79567480234317 98.69836699742285
  endloop
endfacet
facet normal 0.0 0.0 -1.0
  outer loop
    vertex 89.84571574306509 234.79567480234317 98.69836699742285
    vertex 97.3324871754113 243.34678606290956 98.69836699742285
    vertex 90.2074871754113 234.64582416858624 98.69836699742285
  endloop
endfacet
facet normal 0.0 0.0 -1.0
  outer loop
    vertex 90.2074871754113 234.64582416858624 98.69836699742285
    vertex 97.3324871754113 243.34678606290956 98.69836699742285
    vertex 90.51814734719113 234.40744623468942 98.69836699742285
  endloop
endfacet
facet normal 0.0 0.0 -1.0
  outer loop
    vertex 90.51814734719113 234.40744623468942 98.69836699742285
    vertex 97.3324871754113 243.34678606290956 98.69836699742285
    vertex 90.75652528108796 234.0967860629096 98.69836699742285
  endloop
endfacet
facet normal 0.0 0.0 -1.0
  outer loop
    vertex 90.75652528108796 234.0967860629096 98.69836699742285
    vertex 97.3324871754113 243.34678606290956 98.69836699742285
    vertex 90.90637591484494 233.73501463056343 98.69836699742285
  endloop
endfacet
facet normal 0.0 0.0 -1.0
  outer loop
    vertex 90.90637591484494 233.73501463056343 98.69836699742285
    vertex 97.3324871754113 243.34678606290956 98.69836699742285
    vertex 90.95748717541132 233.34678606290962 98.69836699742285
  endloop
endfacet
facet normal 0.0 0.0 -1.0
  outer loop
    vertex 80.83248717541132 223.34678606290956 98.69836699742285
    vertex 88.39682700363144 232.28612589112973 98.69836699742285
    vertex 97.3324871754113 223.34678606290956 98.69836699742285
  endloop
endfacet
facet normal 0.0 0.0 -1.0
  outer loop
    vertex 88.39682700363144 232.28612589112973 98.69836699742285
    vertex 80.83248717541132 223.34678606290956 98.69836699742285
    vertex 88.15844906973462 232.59678606290962 98.69836699742285
  endloop
endfacet
facet normal 0.0 0.0 -1.0
  outer loop
    vertex 88.15844906973462 232.59678606290962 98.69836699742285
    vertex 80.83248717541132 223.34678606290956 98.69836699742285
    vertex 88.00859843597769 232.95855749525577 98.69836699742285
  endloop
endfacet
facet normal 0.0 0.0 -1.0
  outer loop
    vertex 88.00859843597769 232.95855749525577 98.69836699742285
    vertex 80.83248717541132 223.34678606290956 98.69836699742285
    vertex 87.95748717541127 233.3467860629096 98.69836699742285
  endloop
endfacet
facet normal 0.0 0.0 -1.0
  outer loop
    vertex 97.3324871754113 223.34678606290956 98.69836699742285
    vertex 88.39682700363144 232.28612589112973 98.69836699742285
    vertex 88.70748717541129 232.0477479572329 98.69836699742285
  endloop
endfacet
facet normal 0.0 0.0 -1.0
  outer loop
    vertex 97.3324871754113 223.34678606290956 98.69836699742285
    vertex 88.70748717541129 232.0477479572329 98.69836699742285
    vertex 89.06925860775749 231.89789732347597 98.69836699742285
  endloop
endfacet
facet normal 0.0 0.0 -1.0
  outer loop
    vertex 97.3324871754113 223.34678606290956 98.69836699742285
    vertex 89.06925860775749 231.89789732347597 98.69836699742285
    vertex 89.45748717541129 231.84678606290956 98.69836699742285
  endloop
endfacet
facet normal 0.0 0.0 -1.0
  outer loop
    vertex 97.3324871754113 223.34678606290956 98.69836699742285
    vertex 89.45748717541129 231.84678606290956 98.69836699742285
    vertex 89.84571574306504 231.89789732347597 98.69836699742285
  endloop
endfacet
facet normal 0.0 0.0 -1.0
  outer loop
    vertex 97.3324871754113 223.34678606290956 98.69836699742285
    vertex 89.84571574306504 231.89789732347597 98.69836699742285
    vertex 90.2074871754113 232.0477479572329 98.69836699742285
  endloop
endfacet
facet normal 0.0 0.0 -1.0
  outer loop
    vertex 97.3324871754113 223.34678606290956 98.69836699742285
    vertex 90.2074871754113 232.0477479572329 98.69836699742285
    vertex 90.51814734719113 232.28612589112973 98.69836699742285
  endloop
endfacet
facet normal 0.0 0.0 -1.0
  outer loop
    vertex 97.3324871754113 223.34678606290956 98.69836699742285
    vertex 90.51814734719113 232.28612589112973 98.69836699742285
    vertex 90.75652528108796 232.59678606290956 98.69836699742285
  endloop
endfacet
facet normal 0.0 0.0 -1.0
  outer loop
    vertex 97.3324871754113 223.34678606290956 98.69836699742285
    vertex 90.75652528108796 232.59678606290956 98.69836699742285
    vertex 90.90637591484494 232.95855749525583 98.69836699742285
  endloop
endfacet
facet normal 0.0 0.0 -1.0
  outer loop
    vertex 97.3324871754113 223.34678606290956 98.69836699742285
    vertex 90.90637591484494 232.95855749525583 98.69836699742285
    vertex 90.95748717541132 233.34678606290962 98.69836699742285
  endloop
endfacet
facet normal 0.0 0.0 -1.0
  outer loop
    vertex 97.3324871754113 223.34678606290956 98.69836699742285
    vertex 90.95748717541132 233.34678606290962 98.69836699742285
    vertex 97.3324871754113 243.34678606290956 98.69836699742285
  endloop
endfacet
facet normal 1.0 0.0 0.0
  outer loop
    vertex 100.83248717541132 243.34678606290956 81.78843299742283
    vertex 100.83248717541132 223.34678606290956 102.19836699742287
    vertex 100.83248717541132 223.34678606290956 81.78843299742283
  endloop
endfacet
facet normal 1.0 0.0 0.0
  outer loop
    vertex 100.83248717541132 223.34678606290956 102.19836699742287
    vertex 100.83248717541132 243.34678606290956 81.78843299742283
    vertex 100.83248717541132 243.34678606290956 102.19836699742287
  endloop
endfacet
facet normal 0.0 0.0 -1.0
  outer loop
    vertex 121.23248717541132 243.34678606290956 102.19836699742287
    vertex 100.83248717541132 223.34678606290956 102.19836699742287
    vertex 100.83248717541132 243.34678606290956 102.19836699742287
  endloop
endfacet
facet normal 0.0 0.0 -1.0
  outer loop
    vertex 100.83248717541132 223.34678606290956 102.19836699742287
    vertex 121.23248717541132 243.34678606290956 102.19836699742287
    vertex 121.23248717541128 223.34678606290956 102.19836699742287
  endloop
endfacet
facet normal -1.0 0.0 0.0
  outer loop
    vertex 97.3324871754113 243.34678606290956 98.69836699742285
    vertex 97.3324871754113 223.34678606290956 79.78843299742285
    vertex 97.3324871754113 223.34678606290956 98.69836699742285
  endloop
endfacet
facet normal -1.0 0.0 0.0
  outer loop
    vertex 97.3324871754113 223.34678606290956 79.78843299742285
    vertex 97.3324871754113 243.34678606290956 98.69836699742285
    vertex 97.3324871754113 243.34678606290956 79.78843299742285
  endloop
endfacet
facet normal 0.0 0.0 1.0
  outer loop
    vertex 118.83248717541132 223.34678606290956 100.34836699742289
    vertex 121.23248717541132 243.34678606290956 100.34836699742289
    vertex 118.83248717541129 243.34678606290956 100.34836699742289
  endloop
endfacet
facet normal 0.0 0.0 1.0
  outer loop
    vertex 121.23248717541132 243.34678606290956 100.34836699742289
    vertex 118.83248717541132 223.34678606290956 100.34836699742289
    vertex 121.23248717541128 223.34678606290956 100.34836699742289
  endloop
endfacet
facet normal -1.0 0.0 0.0
  outer loop
    vertex 118.83248717541129 243.34678606290956 100.34836699742289
    vertex 118.83248717541132 223.34678606290956 98.3483669974229
    vertex 118.83248717541132 223.34678606290956 100.34836699742289
  endloop
endfacet
facet normal -1.0 0.0 0.0
  outer loop
    vertex 118.83248717541132 223.34678606290956 98.3483669974229
    vertex 118.83248717541129 243.34678606290956 100.34836699742289
    vertex 118.83248717541129 243.34678606290956 98.3483669974229
  endloop
endfacet
facet normal -1.0 0.0 0.0
  outer loop
    vertex 102.68248717541131 243.34678606290956 84.19836699742291
    vertex 102.68248717541131 223.34678606290956 81.78843299742283
    vertex 102.68248717541131 223.34678606290956 84.19836699742291
  endloop
endfacet
facet normal -1.0 0.0 0.0
  outer loop
    vertex 102.68248717541131 223.34678606290956 81.78843299742283
    vertex 102.68248717541131 243.34678606290956 84.19836699742291
    vertex 102.68248717541131 243.34678606290956 81.78843299742283
  endloop
endfacet
facet normal -1.0 0.0 0.0
  outer loop
    vertex 121.23248717541132 243.34678606290956 102.19836699742287
    vertex 121.23248717541128 223.34678606290956 100.34836699742289
    vertex 121.23248717541128 223.34678606290956 102.19836699742287
  endloop
endfacet
facet normal -1.0 0.0 0.0
  outer loop
    vertex 121.23248717541128 223.34678606290956 100.34836699742289
    vertex 121.23248717541132 243.34678606290956 102.19836699742287
    vertex 121.23248717541132 243.34678606290956 100.34836699742289
  endloop
endfacet
facet normal 1.0 0.0 0.0
  outer loop
    vertex 104.6824871754113 243.34678606290956 79.78843299742285
    vertex 104.6824871754113 223.34678606290956 84.19836699742291
    vertex 104.6824871754113 223.34678606290956 79.78843299742285
  endloop
endfacet
facet normal 1.0 0.0 0.0
  outer loop
    vertex 104.6824871754113 223.34678606290956 84.19836699742291
    vertex 104.6824871754113 243.34678606290956 79.78843299742285
    vertex 104.6824871754113 243.34678606290956 84.19836699742291
  endloop
endfacet
facet normal 0.0 0.0 1.0
  outer loop
    vertex 102.68248717541131 223.34678606290956 81.78843299742283
    vertex 100.83248717541132 243.34678606290956 81.78843299742283
    vertex 100.83248717541132 223.34678606290956 81.78843299742283
  endloop
endfacet
facet normal 0.0 0.0 1.0
  outer loop
    vertex 100.83248717541132 243.34678606290956 81.78843299742283
    vertex 102.68248717541131 223.34678606290956 81.78843299742283
    vertex 102.68248717541131 243.34678606290956 81.78843299742283
  endloop
endfacet
facet normal 0.0 0.0 1.0
  outer loop
    vertex 104.6824871754113 223.34678606290956 84.19836699742291
    vertex 102.68248717541131 243.34678606290956 84.19836699742291
    vertex 102.68248717541131 223.34678606290956 84.19836699742291
  endloop
endfacet
facet normal 0.0 0.0 1.0
  outer loop
    vertex 102.68248717541131 243.34678606290956 84.19836699742291
    vertex 104.6824871754113 223.34678606290956 84.19836699742291
    vertex 104.6824871754113 243.34678606290956 84.19836699742291
  endloop
endfacet
facet normal 0.0 0.0 -1.0
  outer loop
    vertex 104.6824871754113 243.34678606290956 79.78843299742285
    vertex 97.3324871754113 223.34678606290956 79.78843299742285
    vertex 97.3324871754113 243.34678606290956 79.78843299742285
  endloop
endfacet
facet normal 0.0 0.0 -1.0
  outer loop
    vertex 97.3324871754113 223.34678606290956 79.78843299742285
    vertex 104.6824871754113 243.34678606290956 79.78843299742285
    vertex 104.6824871754113 223.34678606290956 79.78843299742285
  endloop
endfacet
facet normal 1.0 0.0 0.0
  outer loop
    vertex 123.23248717541131 243.34678606290956 98.3483669974229
    vertex 123.23248717541125 223.34678606290956 104.19836699742288
    vertex 123.23248717541125 223.34678606290956 98.3483669974229
  endloop
endfacet
facet normal 1.0 0.0 0.0
  outer loop
    vertex 123.23248717541125 223.34678606290956 104.19836699742288
    vertex 123.23248717541131 243.34678606290956 98.3483669974229
    vertex 123.23248717541131 243.34678606290956 104.19836699742288
  endloop
endfacet
facet normal 0.0 0.0 -1.0
  outer loop
    vertex 123.23248717541131 243.34678606290956 98.3483669974229
    vertex 118.83248717541132 223.34678606290956 98.3483669974229
    vertex 118.83248717541129 243.34678606290956 98.3483669974229
  endloop
endfacet
facet normal 0.0 0.0 -1.0
  outer loop
    vertex 118.83248717541132 223.34678606290956 98.3483669974229
    vertex 123.23248717541131 243.34678606290956 98.3483669974229
    vertex 123.23248717541125 223.34678606290956 98.3483669974229
  endloop
endfacet
facet normal 0.7933533402912485 0.6087614290087033 0.0
  outer loop
    vertex 88.15844906973462 232.59678606290962 98.69836699742285
    vertex 88.39682700363144 232.28612589112973 103.69836699742284
    vertex 88.39682700363144 232.28612589112973 98.69836699742285
  endloop
endfacet
facet normal 0.7933533402912485 0.6087614290087033 0.0
  outer loop
    vertex 88.39682700363144 232.28612589112973 103.69836699742284
    vertex 88.15844906973462 232.59678606290962 98.69836699742285
    vertex 88.15844906973462 232.59678606290962 103.69836699742284
  endloop
endfacet
facet normal 0.9238795325112812 0.3826834323651033 0.0
  outer loop
    vertex 88.00859843597769 232.95855749525577 98.69836699742285
    vertex 88.15844906973462 232.59678606290962 103.69836699742284
    vertex 88.15844906973462 232.59678606290962 98.69836699742285
  endloop
endfacet
facet normal 0.9238795325112812 0.3826834323651033 0.0
  outer loop
    vertex 88.15844906973462 232.59678606290962 103.69836699742284
    vertex 88.00859843597769 232.95855749525577 98.69836699742285
    vertex 88.00859843597769 232.95855749525577 103.69836699742284
  endloop
endfacet
facet normal 0.9914448613738105 0.13052619222005224 0.0
  outer loop
    vertex 87.95748717541127 233.3467860629096 98.69836699742285
    vertex 88.00859843597769 232.95855749525577 103.69836699742284
    vertex 88.00859843597769 232.95855749525577 98.69836699742285
  endloop
endfacet
facet normal 0.9914448613738105 0.13052619222005224 0.0
  outer loop
    vertex 88.00859843597769 232.95855749525577 103.69836699742284
    vertex 87.95748717541127 233.3467860629096 98.69836699742285
    vertex 87.95748717541127 233.3467860629096 103.69836699742284
  endloop
endfacet
facet normal 0.9914448613738103 -0.1305261922200522 0.0
  outer loop
    vertex 88.00859843597769 233.73501463056337 98.69836699742285
    vertex 87.95748717541127 233.3467860629096 103.69836699742284
    vertex 87.95748717541127 233.3467860629096 98.69836699742285
  endloop
endfacet
facet normal 0.9914448613738103 -0.1305261922200522 0.0
  outer loop
    vertex 87.95748717541127 233.3467860629096 103.69836699742284
    vertex 88.00859843597769 233.73501463056337 98.69836699742285
    vertex 88.00859843597769 233.73501463056337 103.69836699742284
  endloop
endfacet
facet normal 0.9238795325112812 -0.3826834323651033 0.0
  outer loop
    vertex 88.15844906973462 234.09678606290964 98.69836699742285
    vertex 88.00859843597769 233.73501463056337 103.69836699742284
    vertex 88.00859843597769 233.73501463056337 98.69836699742285
  endloop
endfacet
facet normal 0.9238795325112812 -0.3826834323651033 0.0
  outer loop
    vertex 88.00859843597769 233.73501463056337 103.69836699742284
    vertex 88.15844906973462 234.09678606290964 98.69836699742285
    vertex 88.15844906973462 234.09678606290964 103.69836699742284
  endloop
endfacet
facet normal 0.7933533402912485 -0.6087614290087033 0.0
  outer loop
    vertex 88.39682700363149 234.40744623468942 98.69836699742285
    vertex 88.15844906973462 234.09678606290964 103.69836699742284
    vertex 88.15844906973462 234.09678606290964 98.69836699742285
  endloop
endfacet
facet normal 0.7933533402912485 -0.6087614290087033 0.0
  outer loop
    vertex 88.15844906973462 234.09678606290964 103.69836699742284
    vertex 88.39682700363149 234.40744623468942 98.69836699742285
    vertex 88.39682700363149 234.40744623468942 103.69836699742284
  endloop
endfacet
facet normal 0.6087614290086991 -0.7933533402912517 0.0
  outer loop
    vertex 88.70748717541129 234.64582416858624 103.69836699742284
    vertex 88.39682700363149 234.40744623468942 98.69836699742285
    vertex 88.70748717541129 234.64582416858624 98.69836699742285
  endloop
endfacet
facet normal 0.6087614290086991 -0.7933533402912517 0.0
  outer loop
    vertex 88.39682700363149 234.40744623468942 98.69836699742285
    vertex 88.70748717541129 234.64582416858624 103.69836699742284
    vertex 88.39682700363149 234.40744623468942 103.69836699742284
  endloop
endfacet
facet normal 0.38268343236505115 -0.9238795325113027 0.0
  outer loop
    vertex 89.06925860775749 234.79567480234317 103.69836699742284
    vertex 88.70748717541129 234.64582416858624 98.69836699742285
    vertex 89.06925860775749 234.79567480234317 98.69836699742285
  endloop
endfacet
facet normal 0.38268343236505115 -0.9238795325113027 0.0
  outer loop
    vertex 88.70748717541129 234.64582416858624 98.69836699742285
    vertex 89.06925860775749 234.79567480234317 103.69836699742284
    vertex 88.70748717541129 234.64582416858624 103.69836699742284
  endloop
endfacet
facet normal 0.1305261922201003 -0.9914448613738042 0.0
  outer loop
    vertex 89.45748717541129 234.8467860629096 103.69836699742284
    vertex 89.06925860775749 234.79567480234317 98.69836699742285
    vertex 89.45748717541129 234.8467860629096 98.69836699742285
  endloop
endfacet
facet normal 0.1305261922201003 -0.9914448613738042 0.0
  outer loop
    vertex 89.06925860775749 234.79567480234317 98.69836699742285
    vertex 89.45748717541129 234.8467860629096 103.69836699742284
    vertex 89.06925860775749 234.79567480234317 103.69836699742284
  endloop
endfacet
facet normal -0.13052619222010028 -0.9914448613738039 0.0
  outer loop
    vertex 89.84571574306509 234.79567480234317 103.69836699742284
    vertex 89.45748717541129 234.8467860629096 98.69836699742285
    vertex 89.84571574306509 234.79567480234317 98.69836699742285
  endloop
endfacet
facet normal -0.13052619222010028 -0.9914448613738039 0.0
  outer loop
    vertex 89.45748717541129 234.8467860629096 98.69836699742285
    vertex 89.84571574306509 234.79567480234317 103.69836699742284
    vertex 89.45748717541129 234.8467860629096 103.69836699742284
  endloop
endfacet
facet normal -0.38268343236505115 -0.9238795325113027 0.0
  outer loop
    vertex 90.2074871754113 234.64582416858624 103.69836699742284
    vertex 89.84571574306509 234.79567480234317 98.69836699742285
    vertex 90.2074871754113 234.64582416858624 98.69836699742285
  endloop
endfacet
facet normal -0.38268343236505115 -0.9238795325113027 0.0
  outer loop
    vertex 89.84571574306509 234.79567480234317 98.69836699742285
    vertex 90.2074871754113 234.64582416858624 103.69836699742284
    vertex 89.84571574306509 234.79567480234317 103.69836699742284
  endloop
endfacet
facet normal -0.6087614290086991 -0.7933533402912517 0.0
  outer loop
    vertex 90.51814734719113 234.40744623468942 103.69836699742284
    vertex 90.2074871754113 234.64582416858624 98.69836699742285
    vertex 90.51814734719113 234.40744623468942 98.69836699742285
  endloop
endfacet
facet normal -0.6087614290086991 -0.7933533402912517 0.0
  outer loop
    vertex 90.2074871754113 234.64582416858624 98.69836699742285
    vertex 90.51814734719113 234.40744623468942 103.69836699742284
    vertex 90.2074871754113 234.64582416858624 103.69836699742284
  endloop
endfacet
facet normal -0.7933533402912485 -0.6087614290087033 0.0
  outer loop
    vertex 90.51814734719113 234.40744623468942 103.69836699742284
    vertex 90.75652528108796 234.0967860629096 98.69836699742285
    vertex 90.75652528108796 234.0967860629096 103.69836699742284
  endloop
endfacet
facet normal -0.7933533402912485 -0.6087614290087033 0.0
  outer loop
    vertex 90.75652528108796 234.0967860629096 98.69836699742285
    vertex 90.51814734719113 234.40744623468942 103.69836699742284
    vertex 90.51814734719113 234.40744623468942 98.69836699742285
  endloop
endfacet
facet normal -0.9238795325112812 -0.3826834323651033 0.0
  outer loop
    vertex 90.75652528108796 234.0967860629096 103.69836699742284
    vertex 90.90637591484494 233.73501463056343 98.69836699742285
    vertex 90.90637591484494 233.73501463056343 103.69836699742284
  endloop
endfacet
facet normal -0.9238795325112812 -0.3826834323651033 0.0
  outer loop
    vertex 90.90637591484494 233.73501463056343 98.69836699742285
    vertex 90.75652528108796 234.0967860629096 103.69836699742284
    vertex 90.75652528108796 234.0967860629096 98.69836699742285
  endloop
endfacet
facet normal -0.9914448613738105 -0.13052619222005224 0.0
  outer loop
    vertex 90.90637591484494 233.73501463056343 103.69836699742284
    vertex 90.95748717541132 233.34678606290962 98.69836699742285
    vertex 90.95748717541132 233.34678606290962 103.69836699742284
  endloop
endfacet
facet normal -0.9914448613738105 -0.13052619222005224 0.0
  outer loop
    vertex 90.95748717541132 233.34678606290962 98.69836699742285
    vertex 90.90637591484494 233.73501463056343 103.69836699742284
    vertex 90.90637591484494 233.73501463056343 98.69836699742285
  endloop
endfacet
facet normal -0.9914448613738103 0.1305261922200522 0.0
  outer loop
    vertex 90.95748717541132 233.34678606290962 103.69836699742284
    vertex 90.90637591484494 232.95855749525583 98.69836699742285
    vertex 90.90637591484494 232.95855749525583 103.69836699742284
  endloop
endfacet
facet normal -0.9914448613738103 0.1305261922200522 0.0
  outer loop
    vertex 90.90637591484494 232.95855749525583 98.69836699742285
    vertex 90.95748717541132 233.34678606290962 103.69836699742284
    vertex 90.95748717541132 233.34678606290962 98.69836699742285
  endloop
endfacet
facet normal -0.9238795325112812 0.3826834323651033 0.0
  outer loop
    vertex 90.90637591484494 232.95855749525583 103.69836699742284
    vertex 90.75652528108796 232.59678606290956 98.69836699742285
    vertex 90.75652528108796 232.59678606290956 103.69836699742284
  endloop
endfacet
facet normal -0.9238795325112812 0.3826834323651033 0.0
  outer loop
    vertex 90.75652528108796 232.59678606290956 98.69836699742285
    vertex 90.90637591484494 232.95855749525583 103.69836699742284
    vertex 90.90637591484494 232.95855749525583 98.69836699742285
  endloop
endfacet
facet normal -0.7933533402912485 0.6087614290087033 0.0
  outer loop
    vertex 90.75652528108796 232.59678606290956 103.69836699742284
    vertex 90.51814734719113 232.28612589112973 98.69836699742285
    vertex 90.51814734719113 232.28612589112973 103.69836699742284
  endloop
endfacet
facet normal -0.7933533402912485 0.6087614290087033 0.0
  outer loop
    vertex 90.51814734719113 232.28612589112973 98.69836699742285
    vertex 90.75652528108796 232.59678606290956 103.69836699742284
    vertex 90.75652528108796 232.59678606290956 98.69836699742285
  endloop
endfacet
facet normal -0.6087614290086991 0.7933533402912517 0.0
  outer loop
    vertex 90.2074871754113 232.0477479572329 103.69836699742284
    vertex 90.51814734719113 232.28612589112973 98.69836699742285
    vertex 90.2074871754113 232.0477479572329 98.69836699742285
  endloop
endfacet
facet normal -0.6087614290086991 0.7933533402912517 0.0
  outer loop
    vertex 90.51814734719113 232.28612589112973 98.69836699742285
    vertex 90.2074871754113 232.0477479572329 103.69836699742284
    vertex 90.51814734719113 232.28612589112973 103.69836699742284
  endloop
endfacet
facet normal -0.38268343236505115 0.9238795325113027 0.0
  outer loop
    vertex 89.84571574306504 231.89789732347597 103.69836699742284
    vertex 90.2074871754113 232.0477479572329 98.69836699742285
    vertex 89.84571574306504 231.89789732347597 98.69836699742285
  endloop
endfacet
facet normal -0.38268343236505115 0.9238795325113027 0.0
  outer loop
    vertex 90.2074871754113 232.0477479572329 98.69836699742285
    vertex 89.84571574306504 231.89789732347597 103.69836699742284
    vertex 90.2074871754113 232.0477479572329 103.69836699742284
  endloop
endfacet
facet normal -0.1305261922201003 0.9914448613738042 0.0
  outer loop
    vertex 89.45748717541129 231.84678606290956 103.69836699742284
    vertex 89.84571574306504 231.89789732347597 98.69836699742285
    vertex 89.45748717541129 231.84678606290956 98.69836699742285
  endloop
endfacet
facet normal -0.1305261922201003 0.9914448613738042 0.0
  outer loop
    vertex 89.84571574306504 231.89789732347597 98.69836699742285
    vertex 89.45748717541129 231.84678606290956 103.69836699742284
    vertex 89.84571574306504 231.89789732347597 103.69836699742284
  endloop
endfacet
facet normal 0.13052619222009842 0.9914448613738043 0.0
  outer loop
    vertex 89.06925860775749 231.89789732347597 103.69836699742284
    vertex 89.45748717541129 231.84678606290956 98.69836699742285
    vertex 89.06925860775749 231.89789732347597 98.69836699742285
  endloop
endfacet
facet normal 0.13052619222009842 0.9914448613738043 0.0
  outer loop
    vertex 89.45748717541129 231.84678606290956 98.69836699742285
    vertex 89.06925860775749 231.89789732347597 103.69836699742284
    vertex 89.45748717541129 231.84678606290956 103.69836699742284
  endloop
endfacet
facet normal 0.38268343236505625 0.9238795325113007 0.0
  outer loop
    vertex 88.70748717541129 232.0477479572329 103.69836699742284
    vertex 89.06925860775749 231.89789732347597 98.69836699742285
    vertex 88.70748717541129 232.0477479572329 98.69836699742285
  endloop
endfacet
facet normal 0.38268343236505625 0.9238795325113007 0.0
  outer loop
    vertex 89.06925860775749 231.89789732347597 98.69836699742285
    vertex 88.70748717541129 232.0477479572329 103.69836699742284
    vertex 89.06925860775749 231.89789732347597 103.69836699742284
  endloop
endfacet
facet normal 0.6087614290086991 0.7933533402912517 0.0
  outer loop
    vertex 88.39682700363144 232.28612589112973 103.69836699742284
    vertex 88.70748717541129 232.0477479572329 98.69836699742285
    vertex 88.39682700363144 232.28612589112973 98.69836699742285
  endloop
endfacet
facet normal 0.6087614290086991 0.7933533402912517 0.0
  outer loop
    vertex 88.70748717541129 232.0477479572329 98.69836699742285
    vertex 88.39682700363144 232.28612589112973 103.69836699742284
    vertex 88.70748717541129 232.0477479572329 103.69836699742284
  endloop
endfacet
facet normal -0.9931644857060656 -0.1167231953478241 -3.299201436870806e-16
  outer loop
    vertex 97.6372495751106 235.69797054733652 104.19836699742288
    vertex 97.9135761754113 233.3467860629096 103.69836699742288
    vertex 97.9135761754113 233.3467860629096 104.19836699742288
  endloop
endfacet
facet normal -0.9931644857060656 -0.1167231953478241 -3.299201436870806e-16
  outer loop
    vertex 97.9135761754113 233.3467860629096 103.69836699742288
    vertex 97.6372495751106 235.69797054733652 104.19836699742288
    vertex 97.6372495751106 235.69797054733652 103.69836699742288
  endloop
endfacet
facet normal -0.28010900467685096 0.959968200254021 -3.4015938217321654e-16
  outer loop
    vertex 89.45748717541127 223.34678606290956 104.19836699742285
    vertex 91.73008388065485 224.0099067797929 103.69836699742288
    vertex 89.45748717541127 223.34678606290956 103.69836699742285
  endloop
endfacet
facet normal -0.28010900467685096 0.959968200254021 -3.4015938217321654e-16
  outer loop
    vertex 91.73008388065485 224.0099067797929 103.69836699742288
    vertex 89.45748717541127 223.34678606290956 104.19836699742285
    vertex 91.73008388065485 224.0099067797929 104.19836699742288
  endloop
endfacet
facet normal -0.93903978488527 -0.3438084966992902 -2.538403559752184e-16
  outer loop
    vertex 96.82332880499885 237.9210220199355 104.19836699742288
    vertex 97.6372495751106 235.69797054733652 103.69836699742288
    vertex 97.6372495751106 235.69797054733652 104.19836699742288
  endloop
endfacet
facet normal -0.93903978488527 -0.3438084966992902 -2.538403559752184e-16
  outer loop
    vertex 97.6372495751106 235.69797054733652 103.69836699742288
    vertex 96.82332880499885 237.9210220199355 104.19836699742288
    vertex 96.82332880499885 237.9210220199355 103.69836699742288
  endloop
endfacet
facet normal -0.4950456892057509 0.8688669435528106 -3.9517302113077996e-16
  outer loop
    vertex 91.73008388065485 224.0099067797929 104.19836699742288
    vertex 93.78701050873549 225.18186143614122 103.69836699742288
    vertex 91.73008388065485 224.0099067797929 103.69836699742288
  endloop
endfacet
facet normal -0.4950456892057509 0.8688669435528106 -3.9517302113077996e-16
  outer loop
    vertex 93.78701050873549 225.18186143614122 103.69836699742288
    vertex 91.73008388065485 224.0099067797929 104.19836699742288
    vertex 93.78701050873549 225.18186143614122 104.19836699742288
  endloop
endfacet
facet normal -3.7807461984285235e-16 2.4887965826782053e-16 1.0
  outer loop
    vertex 89.45748717541127 223.34678606290956 103.69836699742285
    vertex 80.83248717541132 243.34678606290956 103.69836699742288
    vertex 80.83248717541132 223.34678606290956 103.69836699742288
  endloop
endfacet
facet normal -3.7807461984285235e-16 2.4887965826782053e-16 1.0
  outer loop
    vertex 80.83248717541132 243.34678606290956 103.69836699742288
    vertex 89.45748717541127 223.34678606290956 103.69836699742285
    vertex 88.00859843597769 232.95855749525577 103.69836699742284
  endloop
endfacet
facet normal -3.7807461984285235e-16 2.4887965826782053e-16 1.0
  outer loop
    vertex 80.83248717541132 243.34678606290956 103.69836699742288
    vertex 88.00859843597769 232.95855749525577 103.69836699742284
    vertex 87.95748717541127 233.3467860629096 103.69836699742284
  endloop
endfacet
facet normal -3.7807461984285235e-16 2.4887965826782053e-16 1.0
  outer loop
    vertex 88.00859843597769 232.95855749525577 103.69836699742284
    vertex 89.45748717541127 223.34678606290956 103.69836699742285
    vertex 88.15844906973462 232.59678606290962 103.69836699742284
  endloop
endfacet
facet normal -3.7807461984285235e-16 2.4887965826782053e-16 1.0
  outer loop
    vertex 88.15844906973462 232.59678606290962 103.69836699742284
    vertex 89.45748717541127 223.34678606290956 103.69836699742285
    vertex 88.39682700363144 232.28612589112973 103.69836699742284
  endloop
endfacet
facet normal -3.7807461984285235e-16 2.4887965826782053e-16 1.0
  outer loop
    vertex 88.39682700363144 232.28612589112973 103.69836699742284
    vertex 89.45748717541127 223.34678606290956 103.69836699742285
    vertex 88.70748717541129 232.0477479572329 103.69836699742284
  endloop
endfacet
facet normal -3.7807461984285235e-16 2.4887965826782053e-16 1.0
  outer loop
    vertex 88.70748717541129 232.0477479572329 103.69836699742284
    vertex 89.45748717541127 223.34678606290956 103.69836699742285
    vertex 89.06925860775749 231.89789732347597 103.69836699742284
  endloop
endfacet
facet normal -3.7807461984285235e-16 2.4887965826782053e-16 1.0
  outer loop
    vertex 89.06925860775749 231.89789732347597 103.69836699742284
    vertex 89.45748717541127 223.34678606290956 103.69836699742285
    vertex 89.45748717541129 231.84678606290956 103.69836699742284
  endloop
endfacet
facet normal -3.7807461984285235e-16 2.4887965826782053e-16 1.0
  outer loop
    vertex 89.45748717541129 231.84678606290956 103.69836699742284
    vertex 89.45748717541127 223.34678606290956 103.69836699742285
    vertex 91.73008388065485 224.0099067797929 103.69836699742288
  endloop
endfacet
facet normal -3.7807461984285235e-16 2.4887965826782053e-16 1.0
  outer loop
    vertex 89.45748717541129 231.84678606290956 103.69836699742284
    vertex 91.73008388065485 224.0099067797929 103.69836699742288
    vertex 89.84571574306504 231.89789732347597 103.69836699742284
  endloop
endfacet
facet normal -3.7807461984285235e-16 2.4887965826782053e-16 1.0
  outer loop
    vertex 89.84571574306504 231.89789732347597 103.69836699742284
    vertex 91.73008388065485 224.0099067797929 103.69836699742288
    vertex 90.2074871754113 232.0477479572329 103.69836699742284
  endloop
endfacet
facet normal -3.7807461984285235e-16 2.4887965826782053e-16 1.0
  outer loop
    vertex 90.2074871754113 232.0477479572329 103.69836699742284
    vertex 91.73008388065485 224.0099067797929 103.69836699742288
    vertex 90.51814734719113 232.28612589112973 103.69836699742284
  endloop
endfacet
facet normal -3.7807461984285235e-16 2.4887965826782053e-16 1.0
  outer loop
    vertex 90.51814734719113 232.28612589112973 103.69836699742284
    vertex 91.73008388065485 224.0099067797929 103.69836699742288
    vertex 90.75652528108796 232.59678606290956 103.69836699742284
  endloop
endfacet
facet normal -3.7807461984285235e-16 2.4887965826782053e-16 1.0
  outer loop
    vertex 90.75652528108796 232.59678606290956 103.69836699742284
    vertex 91.73008388065485 224.0099067797929 103.69836699742288
    vertex 90.90637591484494 232.95855749525583 103.69836699742284
  endloop
endfacet
facet normal -3.7807461984285235e-16 2.4887965826782053e-16 1.0
  outer loop
    vertex 90.90637591484494 232.95855749525583 103.69836699742284
    vertex 91.73008388065485 224.0099067797929 103.69836699742288
    vertex 90.95748717541132 233.34678606290962 103.69836699742284
  endloop
endfacet
facet normal -3.7807461984285235e-16 2.4887965826782053e-16 1.0
  outer loop
    vertex 80.83248717541132 243.34678606290956 103.69836699742288
    vertex 88.00859843597769 233.73501463056337 103.69836699742284
    vertex 89.45748717541129 243.34678606290956 103.69836699742285
  endloop
endfacet
facet normal -3.7807461984285235e-16 2.4887965826782053e-16 1.0
  outer loop
    vertex 88.00859843597769 233.73501463056337 103.69836699742284
    vertex 80.83248717541132 243.34678606290956 103.69836699742288
    vertex 87.95748717541127 233.3467860629096 103.69836699742284
  endloop
endfacet
facet normal -3.7807461984285235e-16 2.4887965826782053e-16 1.0
  outer loop
    vertex 89.45748717541129 243.34678606290956 103.69836699742285
    vertex 88.00859843597769 233.73501463056337 103.69836699742284
    vertex 88.15844906973462 234.09678606290964 103.69836699742284
  endloop
endfacet
facet normal -3.7807461984285235e-16 2.4887965826782053e-16 1.0
  outer loop
    vertex 89.45748717541129 243.34678606290956 103.69836699742285
    vertex 88.15844906973462 234.09678606290964 103.69836699742284
    vertex 88.39682700363149 234.40744623468942 103.69836699742284
  endloop
endfacet
facet normal -3.7807461984285235e-16 2.4887965826782053e-16 1.0
  outer loop
    vertex 89.45748717541129 243.34678606290956 103.69836699742285
    vertex 88.39682700363149 234.40744623468942 103.69836699742284
    vertex 88.70748717541129 234.64582416858624 103.69836699742284
  endloop
endfacet
facet normal -3.7807461984285235e-16 2.4887965826782053e-16 1.0
  outer loop
    vertex 89.45748717541129 243.34678606290956 103.69836699742285
    vertex 88.70748717541129 234.64582416858624 103.69836699742284
    vertex 89.06925860775749 234.79567480234317 103.69836699742284
  endloop
endfacet
facet normal -3.7807461984285235e-16 2.4887965826782053e-16 1.0
  outer loop
    vertex 89.45748717541129 243.34678606290956 103.69836699742285
    vertex 89.06925860775749 234.79567480234317 103.69836699742284
    vertex 89.45748717541129 234.8467860629096 103.69836699742284
  endloop
endfacet
facet normal -3.7807461984285235e-16 2.4887965826782053e-16 1.0
  outer loop
    vertex 89.45748717541129 243.34678606290956 103.69836699742285
    vertex 89.45748717541129 234.8467860629096 103.69836699742284
    vertex 89.84571574306509 234.79567480234317 103.69836699742284
  endloop
endfacet
facet normal -3.7807461984285235e-16 2.4887965826782053e-16 1.0
  outer loop
    vertex 89.45748717541129 243.34678606290956 103.69836699742285
    vertex 89.84571574306509 234.79567480234317 103.69836699742284
    vertex 91.73008388065486 242.68366534602626 103.69836699742285
  endloop
endfacet
facet normal -3.7807461984285235e-16 2.4887965826782053e-16 1.0
  outer loop
    vertex 91.73008388065486 242.68366534602626 103.69836699742285
    vertex 89.84571574306509 234.79567480234317 103.69836699742284
    vertex 90.2074871754113 234.64582416858624 103.69836699742284
  endloop
endfacet
facet normal -3.7807461984285235e-16 2.4887965826782053e-16 1.0
  outer loop
    vertex 91.73008388065486 242.68366534602626 103.69836699742285
    vertex 90.2074871754113 234.64582416858624 103.69836699742284
    vertex 90.51814734719113 234.40744623468942 103.69836699742284
  endloop
endfacet
facet normal -3.7807461984285235e-16 2.4887965826782053e-16 1.0
  outer loop
    vertex 91.73008388065486 242.68366534602626 103.69836699742285
    vertex 90.51814734719113 234.40744623468942 103.69836699742284
    vertex 90.75652528108796 234.0967860629096 103.69836699742284
  endloop
endfacet
facet normal -3.7807461984285235e-16 2.4887965826782053e-16 1.0
  outer loop
    vertex 91.73008388065486 242.68366534602626 103.69836699742285
    vertex 90.75652528108796 234.0967860629096 103.69836699742284
    vertex 90.90637591484494 233.73501463056343 103.69836699742284
  endloop
endfacet
facet normal -3.7807461984285235e-16 2.4887965826782053e-16 1.0
  outer loop
    vertex 91.73008388065486 242.68366534602626 103.69836699742285
    vertex 90.90637591484494 233.73501463056343 103.69836699742284
    vertex 90.95748717541132 233.34678606290962 103.69836699742284
  endloop
endfacet
facet normal -3.7807461984285235e-16 2.4887965826782053e-16 1.0
  outer loop
    vertex 91.73008388065486 242.68366534602626 103.69836699742285
    vertex 90.95748717541132 233.34678606290962 103.69836699742284
    vertex 91.73008388065485 224.0099067797929 103.69836699742288
  endloop
endfacet
facet normal -3.7807461984285235e-16 2.4887965826782053e-16 1.0
  outer loop
    vertex 91.73008388065486 242.68366534602626 103.69836699742285
    vertex 91.73008388065485 224.0099067797929 103.69836699742288
    vertex 93.78701050873549 225.18186143614122 103.69836699742288
  endloop
endfacet
facet normal -3.7807461984285235e-16 2.4887965826782053e-16 1.0
  outer loop
    vertex 91.73008388065486 242.68366534602626 103.69836699742285
    vertex 93.78701050873549 225.18186143614122 103.69836699742288
    vertex 93.7870105087355 241.5117106896779 103.69836699742288
  endloop
endfacet
facet normal -3.7807461984285235e-16 2.4887965826782053e-16 1.0
  outer loop
    vertex 93.7870105087355 241.5117106896779 103.69836699742288
    vertex 93.78701050873549 225.18186143614122 103.69836699742288
    vertex 95.51617028217326 226.79878176434804 103.69836699742288
  endloop
endfacet
facet normal -3.7807461984285235e-16 2.4887965826782053e-16 1.0
  outer loop
    vertex 93.7870105087355 241.5117106896779 103.69836699742288
    vertex 95.51617028217326 226.79878176434804 103.69836699742288
    vertex 95.51617028217328 239.8947903614711 103.69836699742288
  endloop
endfacet
facet normal -3.7807461984285235e-16 2.4887965826782053e-16 1.0
  outer loop
    vertex 95.51617028217328 239.8947903614711 103.69836699742288
    vertex 95.51617028217326 226.79878176434804 103.69836699742288
    vertex 96.82332880499885 228.77255010588362 103.69836699742288
  endloop
endfacet
facet normal -3.7807461984285235e-16 2.4887965826782053e-16 1.0
  outer loop
    vertex 95.51617028217328 239.8947903614711 103.69836699742288
    vertex 96.82332880499885 228.77255010588362 103.69836699742288
    vertex 96.82332880499885 237.9210220199355 103.69836699742288
  endloop
endfacet
facet normal -3.7807461984285235e-16 2.4887965826782053e-16 1.0
  outer loop
    vertex 96.82332880499885 237.9210220199355 103.69836699742288
    vertex 96.82332880499885 228.77255010588362 103.69836699742288
    vertex 97.6372495751106 230.99560157848262 103.69836699742288
  endloop
endfacet
facet normal -3.7807461984285235e-16 2.4887965826782053e-16 1.0
  outer loop
    vertex 96.82332880499885 237.9210220199355 103.69836699742288
    vertex 97.6372495751106 230.99560157848262 103.69836699742288
    vertex 97.6372495751106 235.69797054733652 103.69836699742288
  endloop
endfacet
facet normal -3.7807461984285235e-16 2.4887965826782053e-16 1.0
  outer loop
    vertex 97.6372495751106 235.69797054733652 103.69836699742288
    vertex 97.6372495751106 230.99560157848262 103.69836699742288
    vertex 97.9135761754113 233.3467860629096 103.69836699742288
  endloop
endfacet
facet normal -0.8337400288271748 -0.5521571916866262 -1.639269752169535e-16
  outer loop
    vertex 95.51617028217328 239.8947903614711 104.19836699742288
    vertex 96.82332880499885 237.9210220199355 103.69836699742288
    vertex 96.82332880499885 237.9210220199355 104.19836699742288
  endloop
endfacet
facet normal -0.8337400288271748 -0.5521571916866262 -1.639269752169535e-16
  outer loop
    vertex 96.82332880499885 237.9210220199355 103.69836699742288
    vertex 95.51617028217328 239.8947903614711 104.19836699742288
    vertex 95.51617028217328 239.8947903614711 103.69836699742288
  endloop
endfacet
facet normal -0.6830037612223361 0.7304148561989564 -4.286508300732978e-16
  outer loop
    vertex 93.78701050873549 225.18186143614122 104.19836699742288
    vertex 95.51617028217326 226.79878176434804 103.69836699742288
    vertex 93.78701050873549 225.18186143614122 103.69836699742288
  endloop
endfacet
facet normal -0.6830037612223361 0.7304148561989564 -4.286508300732978e-16
  outer loop
    vertex 95.51617028217326 226.79878176434804 103.69836699742288
    vertex 93.78701050873549 225.18186143614122 104.19836699742288
    vertex 95.51617028217326 226.79878176434804 104.19836699742288
  endloop
endfacet
facet normal -0.6830037612223259 -0.730414856198966 -6.508003046422094e-17
  outer loop
    vertex 95.51617028217328 239.8947903614711 104.19836699742288
    vertex 93.7870105087355 241.5117106896779 103.69836699742288
    vertex 95.51617028217328 239.8947903614711 103.69836699742288
  endloop
endfacet
facet normal -0.6830037612223259 -0.730414856198966 -6.508003046422094e-17
  outer loop
    vertex 93.7870105087355 241.5117106896779 103.69836699742288
    vertex 95.51617028217328 239.8947903614711 104.19836699742288
    vertex 93.7870105087355 241.5117106896779 104.19836699742288
  endloop
endfacet
facet normal -0.8337400288271668 0.5521571916866383 -4.3876836157112745e-16
  outer loop
    vertex 96.82332880499885 228.77255010588362 104.19836699742288
    vertex 95.51617028217326 226.79878176434804 103.69836699742288
    vertex 95.51617028217326 226.79878176434804 104.19836699742288
  endloop
endfacet
facet normal -0.8337400288271668 0.5521571916866383 -4.3876836157112745e-16
  outer loop
    vertex 95.51617028217326 226.79878176434804 103.69836699742288
    vertex 96.82332880499885 228.77255010588362 104.19836699742288
    vertex 96.82332880499885 228.77255010588362 103.69836699742288
  endloop
endfacet
facet normal -0.49504568920576536 -0.8688669435528026 3.7313594852470854e-17
  outer loop
    vertex 93.7870105087355 241.5117106896779 103.69836699742288
    vertex 91.73008388065486 242.68366534602626 104.19836699742285
    vertex 91.73008388065486 242.68366534602626 103.69836699742285
  endloop
endfacet
facet normal -0.49504568920576536 -0.8688669435528026 3.7313594852470854e-17
  outer loop
    vertex 91.73008388065486 242.68366534602626 104.19836699742285
    vertex 93.7870105087355 241.5117106896779 103.69836699742288
    vertex 93.7870105087355 241.5117106896779 104.19836699742288
  endloop
endfacet
facet normal -0.9390397848852723 0.34380849669928404 -4.2497423831140246e-16
  outer loop
    vertex 97.6372495751106 230.99560157848262 104.19836699742288
    vertex 96.82332880499885 228.77255010588362 103.69836699742288
    vertex 96.82332880499885 228.77255010588362 104.19836699742288
  endloop
endfacet
facet normal -0.9390397848852723 0.34380849669928404 -4.2497423831140246e-16
  outer loop
    vertex 96.82332880499885 228.77255010588362 103.69836699742288
    vertex 97.6372495751106 230.99560157848262 104.19836699742288
    vertex 97.6372495751106 230.99560157848262 103.69836699742288
  endloop
endfacet
facet normal -0.2801090046768334 -0.959968200254026 1.3767373308118156e-16
  outer loop
    vertex 91.73008388065486 242.68366534602626 104.19836699742285
    vertex 89.45748717541129 243.34678606290956 103.69836699742285
    vertex 91.73008388065486 242.68366534602626 103.69836699742285
  endloop
endfacet
facet normal -0.2801090046768334 -0.959968200254026 1.3767373308118156e-16
  outer loop
    vertex 89.45748717541129 243.34678606290956 103.69836699742285
    vertex 91.73008388065486 242.68366534602626 104.19836699742285
    vertex 89.45748717541129 243.34678606290956 104.19836699742285
  endloop
endfacet
facet normal -0.9931644857060656 0.1167231953478241 -3.8802020162726973e-16
  outer loop
    vertex 97.9135761754113 233.3467860629096 104.19836699742288
    vertex 97.6372495751106 230.99560157848262 103.69836699742288
    vertex 97.6372495751106 230.99560157848262 104.19836699742288
  endloop
endfacet
facet normal -0.9931644857060656 0.1167231953478241 -3.8802020162726973e-16
  outer loop
    vertex 97.6372495751106 230.99560157848262 103.69836699742288
    vertex 97.9135761754113 233.3467860629096 104.19836699742288
    vertex 97.9135761754113 233.3467860629096 103.69836699742288
  endloop
endfacet
facet normal -3.6144080645611714e-16 2.4887965826782033e-16 1.0
  outer loop
    vertex 123.23248717541125 223.34678606290956 104.19836699742288
    vertex 91.73008388065485 224.0099067797929 104.19836699742288
    vertex 89.45748717541127 223.34678606290956 104.19836699742285
  endloop
endfacet
facet normal -3.6144080645611714e-16 2.4887965826782033e-16 1.0
  outer loop
    vertex 91.73008388065485 224.0099067797929 104.19836699742288
    vertex 123.23248717541125 223.34678606290956 104.19836699742288
    vertex 93.78701050873549 225.18186143614122 104.19836699742288
  endloop
endfacet
facet normal -3.6144080645611714e-16 2.4887965826782033e-16 1.0
  outer loop
    vertex 93.78701050873549 225.18186143614122 104.19836699742288
    vertex 123.23248717541125 223.34678606290956 104.19836699742288
    vertex 95.51617028217326 226.79878176434804 104.19836699742288
  endloop
endfacet
facet normal -3.6144080645611714e-16 2.4887965826782033e-16 1.0
  outer loop
    vertex 95.51617028217326 226.79878176434804 104.19836699742288
    vertex 123.23248717541125 223.34678606290956 104.19836699742288
    vertex 96.82332880499885 228.77255010588362 104.19836699742288
  endloop
endfacet
facet normal -3.6144080645611714e-16 2.4887965826782033e-16 1.0
  outer loop
    vertex 96.82332880499885 228.77255010588362 104.19836699742288
    vertex 123.23248717541125 223.34678606290956 104.19836699742288
    vertex 97.6372495751106 230.99560157848262 104.19836699742288
  endloop
endfacet
facet normal -3.6144080645611714e-16 2.4887965826782033e-16 1.0
  outer loop
    vertex 97.6372495751106 230.99560157848262 104.19836699742288
    vertex 123.23248717541125 223.34678606290956 104.19836699742288
    vertex 97.9135761754113 233.3467860629096 104.19836699742288
  endloop
endfacet
facet normal -3.6144080645611714e-16 2.4887965826782033e-16 1.0
  outer loop
    vertex 91.73008388065486 242.68366534602626 104.19836699742285
    vertex 123.23248717541131 243.34678606290956 104.19836699742288
    vertex 89.45748717541129 243.34678606290956 104.19836699742285
  endloop
endfacet
facet normal -3.6144080645611714e-16 2.4887965826782033e-16 1.0
  outer loop
    vertex 123.23248717541131 243.34678606290956 104.19836699742288
    vertex 91.73008388065486 242.68366534602626 104.19836699742285
    vertex 93.7870105087355 241.5117106896779 104.19836699742288
  endloop
endfacet
facet normal -3.6144080645611714e-16 2.4887965826782033e-16 1.0
  outer loop
    vertex 123.23248717541131 243.34678606290956 104.19836699742288
    vertex 93.7870105087355 241.5117106896779 104.19836699742288
    vertex 95.51617028217328 239.8947903614711 104.19836699742288
  endloop
endfacet
facet normal -3.6144080645611714e-16 2.4887965826782033e-16 1.0
  outer loop
    vertex 123.23248717541131 243.34678606290956 104.19836699742288
    vertex 95.51617028217328 239.8947903614711 104.19836699742288
    vertex 96.82332880499885 237.9210220199355 104.19836699742288
  endloop
endfacet
facet normal -3.6144080645611714e-16 2.4887965826782033e-16 1.0
  outer loop
    vertex 123.23248717541131 243.34678606290956 104.19836699742288
    vertex 96.82332880499885 237.9210220199355 104.19836699742288
    vertex 97.6372495751106 235.69797054733652 104.19836699742288
  endloop
endfacet
facet normal -3.6144080645611714e-16 2.4887965826782033e-16 1.0
  outer loop
    vertex 123.23248717541131 243.34678606290956 104.19836699742288
    vertex 97.6372495751106 235.69797054733652 104.19836699742288
    vertex 97.9135761754113 233.3467860629096 104.19836699742288
  endloop
endfacet
facet normal -3.6144080645611714e-16 2.4887965826782033e-16 1.0
  outer loop
    vertex 123.23248717541131 243.34678606290956 104.19836699742288
    vertex 97.9135761754113 233.3467860629096 104.19836699742288
    vertex 123.23248717541125 223.34678606290956 104.19836699742288
  endloop
endfacet
endsolid SAV_SMARTCUBE65
