solid SAV_SMARTCUBE55
facet normal -1.0 7.382983113757291e-14 0.0
  outer loop
    vertex 260.8324871754135 73.346786062911 102.2377978627719
    vertex 260.8324871754113 43.34678606291101 82.1877978627719
    vertex 260.8324871754113 43.34678606291101 102.2377978627719
  endloop
endfacet
facet normal -1.0 7.382983113757291e-14 0.0
  outer loop
    vertex 260.8324871754113 43.34678606291101 82.1877978627719
    vertex 260.8324871754135 73.346786062911 102.2377978627719
    vertex 260.83248717541267 62.07901910994463 90.70556481573826
  endloop
endfacet
facet normal -1.0 7.382983113757291e-14 0.0
  outer loop
    vertex 260.8324871754113 43.34678606291101 82.1877978627719
    vertex 260.83248717541267 62.07901910994463 90.70556481573826
    vertex 260.8324871754126 61.6817225534499 90.18779786277189
  endloop
endfacet
facet normal -1.0 7.382983113757291e-14 0.0
  outer loop
    vertex 260.8324871754113 43.34678606291101 82.1877978627719
    vertex 260.8324871754126 61.6817225534499 90.18779786277189
    vertex 260.83248717541255 61.43197149718833 89.5848454755282
  endloop
endfacet
facet normal -1.0 7.382983113757291e-14 0.0
  outer loop
    vertex 260.8324871754113 43.34678606291101 82.1877978627719
    vertex 260.83248717541255 61.43197149718833 89.5848454755282
    vertex 260.8324871754126 61.346786062911 88.9377978627719
  endloop
endfacet
facet normal -1.0 7.382983113757291e-14 0.0
  outer loop
    vertex 260.83248717541267 62.07901910994463 90.70556481573826
    vertex 260.8324871754135 73.346786062911 102.2377978627719
    vertex 260.8324871754127 62.596786062911 91.10286137223301
  endloop
endfacet
facet normal -1.0 7.382983113757291e-14 0.0
  outer loop
    vertex 260.8324871754127 62.596786062911 91.10286137223301
    vertex 260.8324871754135 73.346786062911 102.2377978627719
    vertex 260.8324871754127 63.1997384501547 91.3526124284946
  endloop
endfacet
facet normal -1.0 7.382983113757291e-14 0.0
  outer loop
    vertex 260.8324871754127 63.1997384501547 91.3526124284946
    vertex 260.8324871754135 73.346786062911 102.2377978627719
    vertex 260.8324871754128 63.846786062910994 91.43779786277193
  endloop
endfacet
facet normal -1.0 7.382983113757291e-14 0.0
  outer loop
    vertex 260.8324871754128 63.846786062910994 91.43779786277193
    vertex 260.8324871754135 73.346786062911 102.2377978627719
    vertex 260.8324871754127 64.49383367566729 91.3526124284946
  endloop
endfacet
facet normal -1.0 7.382983113757291e-14 0.0
  outer loop
    vertex 260.8324871754127 64.49383367566729 91.3526124284946
    vertex 260.8324871754135 73.346786062911 102.2377978627719
    vertex 260.83248717541284 65.096786062911 91.10286137223301
  endloop
endfacet
facet normal -1.0 7.382983113757291e-14 0.0
  outer loop
    vertex 260.83248717541284 65.096786062911 91.10286137223301
    vertex 260.8324871754135 73.346786062911 102.2377978627719
    vertex 260.83248717541295 65.61455301587736 90.70556481573826
  endloop
endfacet
facet normal -1.0 7.382983113757291e-14 0.0
  outer loop
    vertex 260.83248717541295 65.61455301587736 90.70556481573826
    vertex 260.8324871754135 73.346786062911 102.2377978627719
    vertex 260.83248717541295 66.01184957237209 90.18779786277189
  endloop
endfacet
facet normal -1.0 7.382983113757291e-14 0.0
  outer loop
    vertex 260.83248717541295 66.01184957237209 90.18779786277189
    vertex 260.8324871754135 73.346786062911 102.2377978627719
    vertex 260.83248717541295 66.26160062863366 89.5848454755282
  endloop
endfacet
facet normal -1.0 7.382983113757291e-14 0.0
  outer loop
    vertex 260.83248717541295 66.26160062863366 89.5848454755282
    vertex 260.8324871754135 73.346786062911 102.2377978627719
    vertex 260.83248717541295 66.346786062911 88.9377978627719
  endloop
endfacet
facet normal -1.0 7.382983113757291e-14 0.0
  outer loop
    vertex 260.8324871754113 43.34678606291101 82.1877978627719
    vertex 260.8324871754127 62.596786062911 86.7727343533108
    vertex 260.8324871754135 73.346786062911 82.1877978627719
  endloop
endfacet
facet normal -1.0 7.382983113757291e-14 0.0
  outer loop
    vertex 260.8324871754127 62.596786062911 86.7727343533108
    vertex 260.8324871754113 43.34678606291101 82.1877978627719
    vertex 260.83248717541267 62.07901910994463 87.17003090980556
  endloop
endfacet
facet normal -1.0 7.382983113757291e-14 0.0
  outer loop
    vertex 260.83248717541267 62.07901910994463 87.17003090980556
    vertex 260.8324871754113 43.34678606291101 82.1877978627719
    vertex 260.8324871754126 61.6817225534499 87.68779786277192
  endloop
endfacet
facet normal -1.0 7.382983113757291e-14 0.0
  outer loop
    vertex 260.8324871754126 61.6817225534499 87.68779786277192
    vertex 260.8324871754113 43.34678606291101 82.1877978627719
    vertex 260.83248717541255 61.43197149718833 88.29075025001562
  endloop
endfacet
facet normal -1.0 7.382983113757291e-14 0.0
  outer loop
    vertex 260.83248717541255 61.43197149718833 88.29075025001562
    vertex 260.8324871754113 43.34678606291101 82.1877978627719
    vertex 260.8324871754126 61.346786062911 88.9377978627719
  endloop
endfacet
facet normal -1.0 7.382983113757291e-14 0.0
  outer loop
    vertex 260.8324871754135 73.346786062911 82.1877978627719
    vertex 260.8324871754127 62.596786062911 86.7727343533108
    vertex 260.8324871754127 63.1997384501547 86.52298329704922
  endloop
endfacet
facet normal -1.0 7.382983113757291e-14 0.0
  outer loop
    vertex 260.8324871754135 73.346786062911 82.1877978627719
    vertex 260.8324871754127 63.1997384501547 86.52298329704922
    vertex 260.8324871754128 63.846786062910994 86.43779786277189
  endloop
endfacet
facet normal -1.0 7.382983113757291e-14 0.0
  outer loop
    vertex 260.8324871754135 73.346786062911 82.1877978627719
    vertex 260.8324871754128 63.846786062910994 86.43779786277189
    vertex 260.8324871754127 64.49383367566729 86.52298329704922
  endloop
endfacet
facet normal -1.0 7.382983113757291e-14 0.0
  outer loop
    vertex 260.8324871754135 73.346786062911 82.1877978627719
    vertex 260.8324871754127 64.49383367566729 86.52298329704922
    vertex 260.83248717541284 65.096786062911 86.7727343533108
  endloop
endfacet
facet normal -1.0 7.382983113757291e-14 0.0
  outer loop
    vertex 260.8324871754135 73.346786062911 82.1877978627719
    vertex 260.83248717541284 65.096786062911 86.7727343533108
    vertex 260.83248717541295 65.61455301587736 87.17003090980556
  endloop
endfacet
facet normal -1.0 7.382983113757291e-14 0.0
  outer loop
    vertex 260.8324871754135 73.346786062911 82.1877978627719
    vertex 260.83248717541295 65.61455301587736 87.17003090980556
    vertex 260.83248717541295 66.01184957237209 87.68779786277192
  endloop
endfacet
facet normal -1.0 7.382983113757291e-14 0.0
  outer loop
    vertex 260.8324871754135 73.346786062911 82.1877978627719
    vertex 260.83248717541295 66.01184957237209 87.68779786277192
    vertex 260.83248717541295 66.26160062863366 88.29075025001562
  endloop
endfacet
facet normal -1.0 7.382983113757291e-14 0.0
  outer loop
    vertex 260.8324871754135 73.346786062911 82.1877978627719
    vertex 260.83248717541295 66.26160062863366 88.29075025001562
    vertex 260.83248717541295 66.346786062911 88.9377978627719
  endloop
endfacet
facet normal -1.0 7.382983113757291e-14 0.0
  outer loop
    vertex 260.8324871754135 73.346786062911 82.1877978627719
    vertex 260.83248717541295 66.346786062911 88.9377978627719
    vertex 260.8324871754135 73.346786062911 102.2377978627719
  endloop
endfacet
facet normal -0.0 0.0 -1.0
  outer loop
    vertex 258.8324871754135 73.34678606291115 102.2377978627719
    vertex 260.8324871754113 43.34678606291101 102.2377978627719
    vertex 258.8324871754113 43.34678606291115 102.2377978627719
  endloop
endfacet
facet normal -0.0 0.0 -1.0
  outer loop
    vertex 260.8324871754113 43.34678606291101 102.2377978627719
    vertex 258.8324871754135 73.34678606291115 102.2377978627719
    vertex 260.8324871754135 73.346786062911 102.2377978627719
  endloop
endfacet
facet normal -0.0 0.0 -1.0
  outer loop
    vertex 260.8324871754135 73.346786062911 82.1877978627719
    vertex 264.3324871754113 43.346786062910745 82.1877978627719
    vertex 260.8324871754113 43.34678606291101 82.1877978627719
  endloop
endfacet
facet normal -0.0 0.0 -1.0
  outer loop
    vertex 264.3324871754113 43.346786062910745 82.1877978627719
    vertex 260.8324871754135 73.346786062911 82.1877978627719
    vertex 264.3324871754135 73.34678606291074 82.1877978627719
  endloop
endfacet
facet normal -0.0 0.0 -1.0
  outer loop
    vertex 264.3324871754113 43.346786062910745 82.1877978627719
    vertex 264.3324871754135 73.34678606291074 82.1877978627719
    vertex 264.3324871754116 46.846786062910745 82.1877978627719
  endloop
endfacet
facet normal -7.131414064634247e-14 -0.965925826289068 -0.2588190451025219
  outer loop
    vertex 264.332487175413 66.2616006286334 89.5848454755282
    vertex 260.83248717541295 66.346786062911 88.9377978627719
    vertex 264.332487175413 66.34678606291074 88.9377978627719
  endloop
endfacet
facet normal -7.382983113757291e-14 -1.0 0.0
  outer loop
    vertex 260.83248717541295 66.346786062911 88.9377978627719
    vertex 264.332487175413 66.2616006286334 89.5848454755282
    vertex 260.83248717541295 66.26160062863366 89.5848454755282
  endloop
endfacet
facet normal -7.382983113757291e-14 -1.0 0.0
  outer loop
    vertex 264.332487175413 66.34678606291074 88.9377978627719
    vertex 260.83248717541295 66.26160062863366 88.29075025001562
    vertex 264.332487175413 66.2616006286334 88.29075025001562
  endloop
endfacet
facet normal -7.131414064634249e-14 -0.9659258262890681 0.2588190451025217
  outer loop
    vertex 260.83248717541295 66.26160062863366 88.29075025001562
    vertex 264.332487175413 66.34678606291074 88.9377978627719
    vertex 260.83248717541295 66.346786062911 88.9377978627719
  endloop
endfacet
facet normal -7.131414064634247e-14 -0.965925826289068 0.2588190451025219
  outer loop
    vertex 264.332487175413 66.2616006286334 88.29075025001562
    vertex 260.83248717541295 66.01184957237209 87.68779786277192
    vertex 264.332487175413 66.01184957237183 87.68779786277192
  endloop
endfacet
facet normal -6.393850932225345e-14 -0.8660254037844379 0.5000000000000012
  outer loop
    vertex 260.83248717541295 66.01184957237209 87.68779786277192
    vertex 264.332487175413 66.2616006286334 88.29075025001562
    vertex 260.83248717541295 66.26160062863366 88.29075025001562
  endloop
endfacet
facet normal -4.548710811770077e-28 -6.16648804778739e-15 1.0
  outer loop
    vertex 260.8324871754128 63.846786062910994 86.43779786277189
    vertex 264.3324871754128 64.49383367566703 86.52298329704922
    vertex 260.8324871754127 64.49383367566729 86.52298329704922
  endloop
endfacet
facet normal -1.910856639510722e-14 -0.25881904510252407 0.9659258262890674
  outer loop
    vertex 264.3324871754128 64.49383367566703 86.52298329704922
    vertex 260.8324871754128 63.846786062910994 86.43779786277189
    vertex 264.3324871754128 63.84678606291074 86.43779786277189
  endloop
endfacet
facet normal -7.384903281529237e-14 -1.0 -1.1390192401548282e-17
  outer loop
    vertex 280.8324871754113 43.34678606290953 98.6877978627719
    vertex 260.8324871754113 43.34678606291101 82.1877978627719
    vertex 264.3324871754113 43.346786062910745 82.1877978627719
  endloop
endfacet
facet normal -7.384903281529237e-14 -1.0 -1.1390192401548282e-17
  outer loop
    vertex 260.8324871754113 43.34678606291101 82.1877978627719
    vertex 280.8324871754113 43.34678606290953 98.6877978627719
    vertex 260.8324871754113 43.34678606291101 102.2377978627719
  endloop
endfacet
facet normal -7.384903281529237e-14 -1.0 -1.1390192401548282e-17
  outer loop
    vertex 260.8324871754113 43.34678606291101 102.2377978627719
    vertex 280.8324871754113 43.34678606290953 98.6877978627719
    vertex 280.8324871754113 43.34678606290953 103.68779786277193
  endloop
endfacet
facet normal -7.384903281529237e-14 -1.0 -1.1390192401548282e-17
  outer loop
    vertex 260.8324871754113 43.34678606291101 102.2377978627719
    vertex 280.8324871754113 43.34678606290953 103.68779786277193
    vertex 258.8324871754113 43.34678606291115 102.2377978627719
  endloop
endfacet
facet normal -7.384903281529237e-14 -1.0 -1.1390192401548282e-17
  outer loop
    vertex 258.8324871754113 43.34678606291115 102.2377978627719
    vertex 280.8324871754113 43.34678606290953 103.68779786277193
    vertex 258.8324871754113 43.34678606291115 103.68779786277193
  endloop
endfacet
facet normal -5.2205574251236466e-14 -0.7071067811865603 -0.7071067811865346
  outer loop
    vertex 264.33248717541295 65.61455301587709 90.70556481573826
    vertex 260.83248717541295 66.01184957237209 90.18779786277189
    vertex 264.332487175413 66.01184957237183 90.18779786277189
  endloop
endfacet
facet normal -6.393850932225345e-14 -0.8660254037844379 -0.5000000000000012
  outer loop
    vertex 260.83248717541295 66.01184957237209 90.18779786277189
    vertex 264.33248717541295 65.61455301587709 90.70556481573826
    vertex 260.83248717541295 65.61455301587736 90.70556481573826
  endloop
endfacet
facet normal 1.9108566395107453e-14 0.25881904510252723 0.9659258262890666
  outer loop
    vertex 264.3324871754128 63.199738450154435 86.52298329704922
    vertex 260.8324871754128 63.846786062910994 86.43779786277189
    vertex 260.8324871754127 63.1997384501547 86.52298329704922
  endloop
endfacet
facet normal -4.548710811770077e-28 -6.16648804778739e-15 1.0
  outer loop
    vertex 260.8324871754128 63.846786062910994 86.43779786277189
    vertex 264.3324871754128 63.199738450154435 86.52298329704922
    vertex 264.3324871754128 63.84678606291074 86.43779786277189
  endloop
endfacet
facet normal 3.691491556878792e-14 0.5000000000000199 0.8660254037844273
  outer loop
    vertex 264.3324871754127 62.59678606291074 86.7727343533108
    vertex 260.8324871754127 63.1997384501547 86.52298329704922
    vertex 260.8324871754127 62.596786062911 86.7727343533108
  endloop
endfacet
facet normal 1.9108566395107427e-14 0.2588190451025269 0.9659258262890666
  outer loop
    vertex 260.8324871754127 63.1997384501547 86.52298329704922
    vertex 264.3324871754127 62.59678606291074 86.7727343533108
    vertex 264.3324871754128 63.199738450154435 86.52298329704922
  endloop
endfacet
facet normal 5.220557425123632e-14 0.7071067811865582 0.7071067811865369
  outer loop
    vertex 264.33248717541267 62.079019109944376 87.17003090980556
    vertex 260.8324871754127 62.596786062911 86.7727343533108
    vertex 260.83248717541267 62.07901910994463 87.17003090980556
  endloop
endfacet
facet normal 3.6914915568787976e-14 0.5000000000000205 0.8660254037844267
  outer loop
    vertex 260.8324871754127 62.596786062911 86.7727343533108
    vertex 264.33248717541267 62.079019109944376 87.17003090980556
    vertex 264.3324871754127 62.59678606291074 86.7727343533108
  endloop
endfacet
facet normal 6.393850932225355e-14 0.8660254037844393 0.49999999999999906
  outer loop
    vertex 260.8324871754126 61.6817225534499 87.68779786277192
    vertex 264.33248717541267 62.079019109944376 87.17003090980556
    vertex 260.83248717541267 62.07901910994463 87.17003090980556
  endloop
endfacet
facet normal 5.220557425123632e-14 0.7071067811865582 0.7071067811865369
  outer loop
    vertex 264.33248717541267 62.079019109944376 87.17003090980556
    vertex 260.8324871754126 61.6817225534499 87.68779786277192
    vertex 264.33248717541267 61.68172255344964 87.68779786277192
  endloop
endfacet
facet normal 7.131414064634249e-14 0.965925826289068 0.258819045102522
  outer loop
    vertex 260.83248717541255 61.43197149718833 88.29075025001562
    vertex 264.33248717541267 61.68172255344964 87.68779786277192
    vertex 260.8324871754126 61.6817225534499 87.68779786277192
  endloop
endfacet
facet normal 6.393850932225334e-14 0.8660254037844365 0.5000000000000039
  outer loop
    vertex 264.33248717541267 61.68172255344964 87.68779786277192
    vertex 260.83248717541255 61.43197149718833 88.29075025001562
    vertex 264.33248717541255 61.43197149718807 88.29075025001562
  endloop
endfacet
facet normal 7.131414064634249e-14 0.965925826289068 -0.258819045102522
  outer loop
    vertex 260.83248717541255 61.43197149718833 89.5848454755282
    vertex 264.3324871754126 61.34678606291074 88.9377978627719
    vertex 260.8324871754126 61.346786062911 88.9377978627719
  endloop
endfacet
facet normal 7.382983113757291e-14 1.0 0.0
  outer loop
    vertex 264.3324871754126 61.34678606291074 88.9377978627719
    vertex 260.83248717541255 61.43197149718833 89.5848454755282
    vertex 264.33248717541255 61.43197149718807 89.5848454755282
  endloop
endfacet
facet normal 7.382983113757291e-14 1.0 0.0
  outer loop
    vertex 260.8324871754126 61.346786062911 88.9377978627719
    vertex 264.33248717541255 61.43197149718807 88.29075025001562
    vertex 260.83248717541255 61.43197149718833 88.29075025001562
  endloop
endfacet
facet normal 7.131414064634248e-14 0.9659258262890681 0.2588190451025216
  outer loop
    vertex 264.33248717541255 61.43197149718807 88.29075025001562
    vertex 260.8324871754126 61.346786062911 88.9377978627719
    vertex 264.3324871754126 61.34678606291074 88.9377978627719
  endloop
endfacet
facet normal 6.393850932225355e-14 0.8660254037844393 -0.49999999999999906
  outer loop
    vertex 260.8324871754126 61.6817225534499 90.18779786277189
    vertex 264.33248717541255 61.43197149718807 89.5848454755282
    vertex 260.83248717541255 61.43197149718833 89.5848454755282
  endloop
endfacet
facet normal 7.131414064634248e-14 0.9659258262890681 -0.2588190451025216
  outer loop
    vertex 264.33248717541255 61.43197149718807 89.5848454755282
    vertex 260.8324871754126 61.6817225534499 90.18779786277189
    vertex 264.33248717541267 61.68172255344964 90.18779786277189
  endloop
endfacet
facet normal 5.2205574251236315e-14 0.7071067811865582 -0.7071067811865369
  outer loop
    vertex 260.83248717541267 62.07901910994463 90.70556481573826
    vertex 264.33248717541267 61.68172255344964 90.18779786277189
    vertex 260.8324871754126 61.6817225534499 90.18779786277189
  endloop
endfacet
facet normal 6.393850932225334e-14 0.8660254037844365 -0.5000000000000039
  outer loop
    vertex 264.33248717541267 61.68172255344964 90.18779786277189
    vertex 260.83248717541267 62.07901910994463 90.70556481573826
    vertex 264.33248717541267 62.079019109944376 90.70556481573826
  endloop
endfacet
facet normal 3.6914915568787976e-14 0.5000000000000205 -0.8660254037844267
  outer loop
    vertex 260.8324871754127 62.596786062911 91.10286137223301
    vertex 264.33248717541267 62.079019109944376 90.70556481573826
    vertex 260.83248717541267 62.07901910994463 90.70556481573826
  endloop
endfacet
facet normal 5.220557425123632e-14 0.7071067811865582 -0.7071067811865369
  outer loop
    vertex 264.33248717541267 62.079019109944376 90.70556481573826
    vertex 260.8324871754127 62.596786062911 91.10286137223301
    vertex 264.3324871754127 62.59678606291074 91.10286137223301
  endloop
endfacet
facet normal 1.9108566395107427e-14 0.2588190451025269 -0.9659258262890666
  outer loop
    vertex 260.8324871754127 63.1997384501547 91.3526124284946
    vertex 264.3324871754127 62.59678606291074 91.10286137223301
    vertex 260.8324871754127 62.596786062911 91.10286137223301
  endloop
endfacet
facet normal 3.691491556878792e-14 0.5000000000000199 -0.8660254037844273
  outer loop
    vertex 264.3324871754127 62.59678606291074 91.10286137223301
    vertex 260.8324871754127 63.1997384501547 91.3526124284946
    vertex 264.3324871754128 63.199738450154435 91.3526124284946
  endloop
endfacet
facet normal -4.548710811770077e-28 -6.16648804778739e-15 -1.0
  outer loop
    vertex 260.8324871754128 63.846786062910994 91.43779786277193
    vertex 264.3324871754128 63.199738450154435 91.3526124284946
    vertex 260.8324871754127 63.1997384501547 91.3526124284946
  endloop
endfacet
facet normal 1.9108566395107453e-14 0.25881904510252723 -0.9659258262890666
  outer loop
    vertex 264.3324871754128 63.199738450154435 91.3526124284946
    vertex 260.8324871754128 63.846786062910994 91.43779786277193
    vertex 264.3324871754128 63.84678606291074 91.43779786277193
  endloop
endfacet
facet normal -1.910856639510722e-14 -0.25881904510252407 -0.9659258262890674
  outer loop
    vertex 264.3324871754128 64.49383367566703 91.3526124284946
    vertex 260.8324871754128 63.846786062910994 91.43779786277193
    vertex 260.8324871754127 64.49383367566729 91.3526124284946
  endloop
endfacet
facet normal -4.548710811770077e-28 -6.16648804778739e-15 -1.0
  outer loop
    vertex 260.8324871754128 63.846786062910994 91.43779786277193
    vertex 264.3324871754128 64.49383367566703 91.3526124284946
    vertex 264.3324871754128 63.84678606291074 91.43779786277193
  endloop
endfacet
facet normal -3.6914915568787547e-14 -0.5000000000000148 -0.86602540378443
  outer loop
    vertex 260.83248717541284 65.096786062911 91.10286137223301
    vertex 264.3324871754128 64.49383367566703 91.3526124284946
    vertex 260.8324871754127 64.49383367566729 91.3526124284946
  endloop
endfacet
facet normal -1.910856639510722e-14 -0.25881904510252407 -0.9659258262890674
  outer loop
    vertex 264.3324871754128 64.49383367566703 91.3526124284946
    vertex 260.83248717541284 65.096786062911 91.10286137223301
    vertex 264.33248717541284 65.09678606291074 91.10286137223301
  endloop
endfacet
facet normal -5.220557425123617e-14 -0.7071067811865562 -0.7071067811865387
  outer loop
    vertex 260.83248717541295 65.61455301587736 90.70556481573826
    vertex 264.33248717541284 65.09678606291074 91.10286137223301
    vertex 260.83248717541284 65.096786062911 91.10286137223301
  endloop
endfacet
facet normal -3.691491556878835e-14 -0.5000000000000255 -0.8660254037844238
  outer loop
    vertex 264.33248717541284 65.09678606291074 91.10286137223301
    vertex 260.83248717541295 65.61455301587736 90.70556481573826
    vertex 264.33248717541295 65.61455301587709 90.70556481573826
  endloop
endfacet
facet normal 1.0 -7.359594090799993e-14 7.76216107188089e-16
  outer loop
    vertex 280.8324871754116 46.84678606290952 98.6877978627719
    vertex 280.8324871754113 43.34678606290953 103.68779786277193
    vertex 280.8324871754113 43.34678606290953 98.6877978627719
  endloop
endfacet
facet normal 1.0 -7.359594090799993e-14 7.76216107188089e-16
  outer loop
    vertex 280.8324871754113 43.34678606290953 103.68779786277193
    vertex 280.8324871754116 46.84678606290952 98.6877978627719
    vertex 280.8324871754135 73.34678606290953 103.68779786277193
  endloop
endfacet
facet normal 1.0 -7.359594090799993e-14 7.76216107188089e-16
  outer loop
    vertex 280.8324871754135 73.34678606290953 103.68779786277193
    vertex 280.8324871754116 46.84678606290952 98.6877978627719
    vertex 280.8324871754135 73.34678606290953 98.6877978627719
  endloop
endfacet
facet normal 7.382983113757291e-14 1.0 0.0
  outer loop
    vertex 258.8324871754135 73.34678606291115 103.68779786277193
    vertex 260.8324871754135 73.346786062911 102.2377978627719
    vertex 258.8324871754135 73.34678606291115 102.2377978627719
  endloop
endfacet
facet normal 7.382983113757291e-14 1.0 0.0
  outer loop
    vertex 260.8324871754135 73.346786062911 102.2377978627719
    vertex 264.3324871754135 73.34678606291074 82.1877978627719
    vertex 260.8324871754135 73.346786062911 82.1877978627719
  endloop
endfacet
facet normal 7.382983113757291e-14 1.0 0.0
  outer loop
    vertex 264.3324871754135 73.34678606291074 82.1877978627719
    vertex 260.8324871754135 73.346786062911 102.2377978627719
    vertex 264.3324871754135 73.34678606291074 98.6877978627719
  endloop
endfacet
facet normal 7.382983113757291e-14 1.0 0.0
  outer loop
    vertex 264.3324871754135 73.34678606291074 98.6877978627719
    vertex 260.8324871754135 73.346786062911 102.2377978627719
    vertex 280.8324871754135 73.34678606290953 98.6877978627719
  endloop
endfacet
facet normal 7.382983113757291e-14 1.0 0.0
  outer loop
    vertex 280.8324871754135 73.34678606290953 98.6877978627719
    vertex 260.8324871754135 73.346786062911 102.2377978627719
    vertex 280.8324871754135 73.34678606290953 103.68779786277193
  endloop
endfacet
facet normal 7.382983113757291e-14 1.0 0.0
  outer loop
    vertex 280.8324871754135 73.34678606290953 103.68779786277193
    vertex 260.8324871754135 73.346786062911 102.2377978627719
    vertex 258.8324871754135 73.34678606291115 103.68779786277193
  endloop
endfacet
facet normal 1.0 -7.351300670020186e-14 -8.208503878124207e-30
  outer loop
    vertex 264.3324871754116 46.846786062910745 82.1877978627719
    vertex 264.3324871754127 62.59678606291074 86.7727343533108
    vertex 264.3324871754116 46.846786062910745 98.6877978627719
  endloop
endfacet
facet normal 1.0 -7.351300670020186e-14 -8.208503878124207e-30
  outer loop
    vertex 264.3324871754127 62.59678606291074 86.7727343533108
    vertex 264.3324871754116 46.846786062910745 82.1877978627719
    vertex 264.3324871754135 73.34678606291074 82.1877978627719
  endloop
endfacet
facet normal 1.0 -7.351300670020186e-14 -8.208503878124207e-30
  outer loop
    vertex 264.3324871754116 46.846786062910745 98.6877978627719
    vertex 264.3324871754127 62.59678606291074 86.7727343533108
    vertex 264.33248717541267 62.079019109944376 87.17003090980556
  endloop
endfacet
facet normal 1.0 -7.351300670020186e-14 -8.208503878124207e-30
  outer loop
    vertex 264.3324871754116 46.846786062910745 98.6877978627719
    vertex 264.33248717541267 62.079019109944376 87.17003090980556
    vertex 264.33248717541267 61.68172255344964 87.68779786277192
  endloop
endfacet
facet normal 1.0 -7.351300670020186e-14 -8.208503878124207e-30
  outer loop
    vertex 264.3324871754116 46.846786062910745 98.6877978627719
    vertex 264.33248717541267 61.68172255344964 87.68779786277192
    vertex 264.33248717541255 61.43197149718807 88.29075025001562
  endloop
endfacet
facet normal 1.0 -7.351300670020186e-14 -8.208503878124207e-30
  outer loop
    vertex 264.3324871754116 46.846786062910745 98.6877978627719
    vertex 264.33248717541255 61.43197149718807 88.29075025001562
    vertex 264.3324871754126 61.34678606291074 88.9377978627719
  endloop
endfacet
facet normal 1.0 -7.351300670020186e-14 -8.208503878124207e-30
  outer loop
    vertex 264.3324871754127 62.59678606291074 86.7727343533108
    vertex 264.3324871754135 73.34678606291074 82.1877978627719
    vertex 264.3324871754128 63.199738450154435 86.52298329704922
  endloop
endfacet
facet normal 1.0 -7.351300670020186e-14 -8.208503878124207e-30
  outer loop
    vertex 264.3324871754128 63.199738450154435 86.52298329704922
    vertex 264.3324871754135 73.34678606291074 82.1877978627719
    vertex 264.3324871754128 63.84678606291074 86.43779786277189
  endloop
endfacet
facet normal 1.0 -7.351300670020186e-14 -8.208503878124207e-30
  outer loop
    vertex 264.3324871754128 63.84678606291074 86.43779786277189
    vertex 264.3324871754135 73.34678606291074 82.1877978627719
    vertex 264.3324871754128 64.49383367566703 86.52298329704922
  endloop
endfacet
facet normal 1.0 -7.351300670020186e-14 -8.208503878124207e-30
  outer loop
    vertex 264.3324871754128 64.49383367566703 86.52298329704922
    vertex 264.3324871754135 73.34678606291074 82.1877978627719
    vertex 264.33248717541284 65.09678606291074 86.7727343533108
  endloop
endfacet
facet normal 1.0 -7.351300670020186e-14 -8.208503878124207e-30
  outer loop
    vertex 264.33248717541284 65.09678606291074 86.7727343533108
    vertex 264.3324871754135 73.34678606291074 82.1877978627719
    vertex 264.33248717541295 65.61455301587709 87.17003090980556
  endloop
endfacet
facet normal 1.0 -7.351300670020186e-14 -8.208503878124207e-30
  outer loop
    vertex 264.33248717541295 65.61455301587709 87.17003090980556
    vertex 264.3324871754135 73.34678606291074 82.1877978627719
    vertex 264.332487175413 66.01184957237183 87.68779786277192
  endloop
endfacet
facet normal 1.0 -7.351300670020186e-14 -8.208503878124207e-30
  outer loop
    vertex 264.332487175413 66.01184957237183 87.68779786277192
    vertex 264.3324871754135 73.34678606291074 82.1877978627719
    vertex 264.332487175413 66.2616006286334 88.29075025001562
  endloop
endfacet
facet normal 1.0 -7.351300670020186e-14 -8.208503878124207e-30
  outer loop
    vertex 264.332487175413 66.2616006286334 88.29075025001562
    vertex 264.3324871754135 73.34678606291074 82.1877978627719
    vertex 264.332487175413 66.34678606291074 88.9377978627719
  endloop
endfacet
facet normal 1.0 -7.351300670020186e-14 -8.208503878124207e-30
  outer loop
    vertex 264.3324871754116 46.846786062910745 98.6877978627719
    vertex 264.3324871754127 62.59678606291074 91.10286137223301
    vertex 264.3324871754135 73.34678606291074 98.6877978627719
  endloop
endfacet
facet normal 1.0 -7.351300670020186e-14 -8.208503878124207e-30
  outer loop
    vertex 264.3324871754127 62.59678606291074 91.10286137223301
    vertex 264.3324871754116 46.846786062910745 98.6877978627719
    vertex 264.33248717541267 62.079019109944376 90.70556481573826
  endloop
endfacet
facet normal 1.0 -7.351300670020186e-14 -8.208503878124207e-30
  outer loop
    vertex 264.33248717541267 62.079019109944376 90.70556481573826
    vertex 264.3324871754116 46.846786062910745 98.6877978627719
    vertex 264.33248717541267 61.68172255344964 90.18779786277189
  endloop
endfacet
facet normal 1.0 -7.351300670020186e-14 -8.208503878124207e-30
  outer loop
    vertex 264.33248717541267 61.68172255344964 90.18779786277189
    vertex 264.3324871754116 46.846786062910745 98.6877978627719
    vertex 264.33248717541255 61.43197149718807 89.5848454755282
  endloop
endfacet
facet normal 1.0 -7.351300670020186e-14 -8.208503878124207e-30
  outer loop
    vertex 264.33248717541255 61.43197149718807 89.5848454755282
    vertex 264.3324871754116 46.846786062910745 98.6877978627719
    vertex 264.3324871754126 61.34678606291074 88.9377978627719
  endloop
endfacet
facet normal 1.0 -7.351300670020186e-14 -8.208503878124207e-30
  outer loop
    vertex 264.3324871754135 73.34678606291074 98.6877978627719
    vertex 264.3324871754127 62.59678606291074 91.10286137223301
    vertex 264.3324871754128 63.199738450154435 91.3526124284946
  endloop
endfacet
facet normal 1.0 -7.351300670020186e-14 -8.208503878124207e-30
  outer loop
    vertex 264.3324871754135 73.34678606291074 98.6877978627719
    vertex 264.3324871754128 63.199738450154435 91.3526124284946
    vertex 264.3324871754128 63.84678606291074 91.43779786277193
  endloop
endfacet
facet normal 1.0 -7.351300670020186e-14 -8.208503878124207e-30
  outer loop
    vertex 264.3324871754135 73.34678606291074 98.6877978627719
    vertex 264.3324871754128 63.84678606291074 91.43779786277193
    vertex 264.3324871754128 64.49383367566703 91.3526124284946
  endloop
endfacet
facet normal 1.0 -7.351300670020186e-14 -8.208503878124207e-30
  outer loop
    vertex 264.3324871754135 73.34678606291074 98.6877978627719
    vertex 264.3324871754128 64.49383367566703 91.3526124284946
    vertex 264.33248717541284 65.09678606291074 91.10286137223301
  endloop
endfacet
facet normal 1.0 -7.351300670020186e-14 -8.208503878124207e-30
  outer loop
    vertex 264.3324871754135 73.34678606291074 98.6877978627719
    vertex 264.33248717541284 65.09678606291074 91.10286137223301
    vertex 264.33248717541295 65.61455301587709 90.70556481573826
  endloop
endfacet
facet normal 1.0 -7.351300670020186e-14 -8.208503878124207e-30
  outer loop
    vertex 264.3324871754135 73.34678606291074 98.6877978627719
    vertex 264.33248717541295 65.61455301587709 90.70556481573826
    vertex 264.332487175413 66.01184957237183 90.18779786277189
  endloop
endfacet
facet normal 1.0 -7.351300670020186e-14 -8.208503878124207e-30
  outer loop
    vertex 264.3324871754135 73.34678606291074 98.6877978627719
    vertex 264.332487175413 66.01184957237183 90.18779786277189
    vertex 264.332487175413 66.2616006286334 89.5848454755282
  endloop
endfacet
facet normal 1.0 -7.351300670020186e-14 -8.208503878124207e-30
  outer loop
    vertex 264.3324871754135 73.34678606291074 98.6877978627719
    vertex 264.332487175413 66.2616006286334 89.5848454755282
    vertex 264.332487175413 66.34678606291074 88.9377978627719
  endloop
endfacet
facet normal 1.0 -7.351300670020186e-14 -8.208503878124207e-30
  outer loop
    vertex 264.3324871754135 73.34678606291074 98.6877978627719
    vertex 264.332487175413 66.34678606291074 88.9377978627719
    vertex 264.3324871754135 73.34678606291074 82.1877978627719
  endloop
endfacet
facet normal -0.0 0.0 -1.0
  outer loop
    vertex 264.3324871754135 73.34678606291074 98.6877978627719
    vertex 270.7585984359792 63.735014630564045 98.6877978627719
    vertex 270.7074871754128 63.34678606291026 98.6877978627719
  endloop
endfacet
facet normal -0.0 0.0 -1.0
  outer loop
    vertex 270.7585984359792 63.735014630564045 98.6877978627719
    vertex 264.3324871754135 73.34678606291074 98.6877978627719
    vertex 270.9084490697362 64.09678606291025 98.6877978627719
  endloop
endfacet
facet normal -0.0 0.0 -1.0
  outer loop
    vertex 270.9084490697362 64.09678606291025 98.6877978627719
    vertex 264.3324871754135 73.34678606291074 98.6877978627719
    vertex 271.146827003633 64.40744623469006 98.6877978627719
  endloop
endfacet
facet normal -0.0 0.0 -1.0
  outer loop
    vertex 271.146827003633 64.40744623469006 98.6877978627719
    vertex 264.3324871754135 73.34678606291074 98.6877978627719
    vertex 280.8324871754135 73.34678606290953 98.6877978627719
  endloop
endfacet
facet normal -0.0 0.0 -1.0
  outer loop
    vertex 271.146827003633 64.40744623469006 98.6877978627719
    vertex 280.8324871754135 73.34678606290953 98.6877978627719
    vertex 271.45748717541284 64.64582416858688 98.6877978627719
  endloop
endfacet
facet normal -0.0 0.0 -1.0
  outer loop
    vertex 271.45748717541284 64.64582416858688 98.6877978627719
    vertex 280.8324871754135 73.34678606290953 98.6877978627719
    vertex 271.8192586077591 64.79567480234378 98.6877978627719
  endloop
endfacet
facet normal -0.0 0.0 -1.0
  outer loop
    vertex 271.8192586077591 64.79567480234378 98.6877978627719
    vertex 280.8324871754135 73.34678606290953 98.6877978627719
    vertex 272.20748717541284 64.84678606291014 98.6877978627719
  endloop
endfacet
facet normal -0.0 0.0 -1.0
  outer loop
    vertex 272.20748717541284 64.84678606291014 98.6877978627719
    vertex 280.8324871754135 73.34678606290953 98.6877978627719
    vertex 272.59571574306665 64.79567480234373 98.6877978627719
  endloop
endfacet
facet normal -0.0 0.0 -1.0
  outer loop
    vertex 272.59571574306665 64.79567480234373 98.6877978627719
    vertex 280.8324871754135 73.34678606290953 98.6877978627719
    vertex 272.9574871754129 64.64582416858676 98.6877978627719
  endloop
endfacet
facet normal -0.0 0.0 -1.0
  outer loop
    vertex 272.9574871754129 64.64582416858676 98.6877978627719
    vertex 280.8324871754135 73.34678606290953 98.6877978627719
    vertex 273.26814734719267 64.4074462346899 98.6877978627719
  endloop
endfacet
facet normal -0.0 0.0 -1.0
  outer loop
    vertex 273.26814734719267 64.4074462346899 98.6877978627719
    vertex 280.8324871754135 73.34678606290953 98.6877978627719
    vertex 273.50652528108947 64.09678606291006 98.6877978627719
  endloop
endfacet
facet normal -0.0 0.0 -1.0
  outer loop
    vertex 273.50652528108947 64.09678606291006 98.6877978627719
    vertex 280.8324871754135 73.34678606290953 98.6877978627719
    vertex 273.6563759148464 63.735014630563825 98.6877978627719
  endloop
endfacet
facet normal -0.0 0.0 -1.0
  outer loop
    vertex 273.6563759148464 63.735014630563825 98.6877978627719
    vertex 280.8324871754135 73.34678606290953 98.6877978627719
    vertex 273.7074871754127 63.34678606291005 98.6877978627719
  endloop
endfacet
facet normal -0.0 0.0 -1.0
  outer loop
    vertex 273.7074871754127 63.34678606291005 98.6877978627719
    vertex 280.8324871754135 73.34678606290953 98.6877978627719
    vertex 280.8324871754116 46.84678606290952 98.6877978627719
  endloop
endfacet
facet normal -0.0 0.0 -1.0
  outer loop
    vertex 264.3324871754116 46.846786062910745 98.6877978627719
    vertex 270.90844906973604 62.596786062910255 98.6877978627719
    vertex 280.8324871754116 46.84678606290952 98.6877978627719
  endloop
endfacet
facet normal -0.0 0.0 -1.0
  outer loop
    vertex 270.90844906973604 62.596786062910255 98.6877978627719
    vertex 264.3324871754116 46.846786062910745 98.6877978627719
    vertex 264.3324871754135 73.34678606291074 98.6877978627719
  endloop
endfacet
facet normal -0.0 0.0 -1.0
  outer loop
    vertex 270.90844906973604 62.596786062910255 98.6877978627719
    vertex 264.3324871754135 73.34678606291074 98.6877978627719
    vertex 270.75859843597914 62.958557495256485 98.6877978627719
  endloop
endfacet
facet normal -0.0 0.0 -1.0
  outer loop
    vertex 270.75859843597914 62.958557495256485 98.6877978627719
    vertex 264.3324871754135 73.34678606291074 98.6877978627719
    vertex 270.7074871754128 63.34678606291026 98.6877978627719
  endloop
endfacet
facet normal -0.0 0.0 -1.0
  outer loop
    vertex 280.8324871754116 46.84678606290952 98.6877978627719
    vertex 270.90844906973604 62.596786062910255 98.6877978627719
    vertex 271.1468270036329 62.2861258911304 98.6877978627719
  endloop
endfacet
facet normal -0.0 0.0 -1.0
  outer loop
    vertex 280.8324871754116 46.84678606290952 98.6877978627719
    vertex 271.1468270036329 62.2861258911304 98.6877978627719
    vertex 271.4574871754126 62.04774795723358 98.6877978627719
  endloop
endfacet
facet normal -0.0 0.0 -1.0
  outer loop
    vertex 280.8324871754116 46.84678606290952 98.6877978627719
    vertex 271.4574871754126 62.04774795723358 98.6877978627719
    vertex 271.81925860775885 61.897897323476585 98.6877978627719
  endloop
endfacet
facet normal -0.0 0.0 -1.0
  outer loop
    vertex 280.8324871754116 46.84678606290952 98.6877978627719
    vertex 271.81925860775885 61.897897323476585 98.6877978627719
    vertex 272.2074871754126 61.84678606291014 98.6877978627719
  endloop
endfacet
facet normal -0.0 0.0 -1.0
  outer loop
    vertex 280.8324871754116 46.84678606290952 98.6877978627719
    vertex 272.2074871754126 61.84678606291014 98.6877978627719
    vertex 272.5957157430664 61.89789732347653 98.6877978627719
  endloop
endfacet
facet normal -0.0 0.0 -1.0
  outer loop
    vertex 280.8324871754116 46.84678606290952 98.6877978627719
    vertex 272.5957157430664 61.89789732347653 98.6877978627719
    vertex 272.9574871754126 62.047747957233454 98.6877978627719
  endloop
endfacet
facet normal -0.0 0.0 -1.0
  outer loop
    vertex 280.8324871754116 46.84678606290952 98.6877978627719
    vertex 272.9574871754126 62.047747957233454 98.6877978627719
    vertex 273.26814734719255 62.28612589113026 98.6877978627719
  endloop
endfacet
facet normal -0.0 0.0 -1.0
  outer loop
    vertex 280.8324871754116 46.84678606290952 98.6877978627719
    vertex 273.26814734719255 62.28612589113026 98.6877978627719
    vertex 273.50652528108935 62.59678606291006 98.6877978627719
  endloop
endfacet
facet normal -0.0 0.0 -1.0
  outer loop
    vertex 280.8324871754116 46.84678606290952 98.6877978627719
    vertex 273.50652528108935 62.59678606291006 98.6877978627719
    vertex 273.6563759148463 62.95855749525627 98.6877978627719
  endloop
endfacet
facet normal -0.0 0.0 -1.0
  outer loop
    vertex 280.8324871754116 46.84678606290952 98.6877978627719
    vertex 273.6563759148463 62.95855749525627 98.6877978627719
    vertex 273.7074871754127 63.34678606291005 98.6877978627719
  endloop
endfacet
facet normal -1.910856639510722e-14 -0.25881904510252407 0.9659258262890674
  outer loop
    vertex 264.3324871754128 64.49383367566703 86.52298329704922
    vertex 260.83248717541284 65.096786062911 86.7727343533108
    vertex 260.8324871754127 64.49383367566729 86.52298329704922
  endloop
endfacet
facet normal -3.6914915568787547e-14 -0.5000000000000148 0.86602540378443
  outer loop
    vertex 260.83248717541284 65.096786062911 86.7727343533108
    vertex 264.3324871754128 64.49383367566703 86.52298329704922
    vertex 264.33248717541284 65.09678606291074 86.7727343533108
  endloop
endfacet
facet normal -3.691491556878835e-14 -0.5000000000000255 0.8660254037844238
  outer loop
    vertex 264.33248717541284 65.09678606291074 86.7727343533108
    vertex 260.83248717541295 65.61455301587736 87.17003090980556
    vertex 260.83248717541284 65.096786062911 86.7727343533108
  endloop
endfacet
facet normal -5.220557425123617e-14 -0.7071067811865562 0.7071067811865387
  outer loop
    vertex 260.83248717541295 65.61455301587736 87.17003090980556
    vertex 264.33248717541284 65.09678606291074 86.7727343533108
    vertex 264.33248717541295 65.61455301587709 87.17003090980556
  endloop
endfacet
facet normal -6.393850932225344e-14 -0.8660254037844378 0.5000000000000016
  outer loop
    vertex 264.332487175413 66.01184957237183 87.68779786277192
    vertex 260.83248717541295 65.61455301587736 87.17003090980556
    vertex 264.33248717541295 65.61455301587709 87.17003090980556
  endloop
endfacet
facet normal -5.220557425123617e-14 -0.7071067811865562 0.7071067811865387
  outer loop
    vertex 260.83248717541295 65.61455301587736 87.17003090980556
    vertex 264.332487175413 66.01184957237183 87.68779786277192
    vertex 260.83248717541295 66.01184957237209 87.68779786277192
  endloop
endfacet
facet normal -6.393850932225344e-14 -0.8660254037844378 -0.5000000000000016
  outer loop
    vertex 264.332487175413 66.01184957237183 90.18779786277189
    vertex 260.83248717541295 66.26160062863366 89.5848454755282
    vertex 264.332487175413 66.2616006286334 89.5848454755282
  endloop
endfacet
facet normal -7.131414064634249e-14 -0.9659258262890681 -0.2588190451025217
  outer loop
    vertex 260.83248717541295 66.26160062863366 89.5848454755282
    vertex 264.332487175413 66.01184957237183 90.18779786277189
    vertex 260.83248717541295 66.01184957237209 90.18779786277189
  endloop
endfacet
facet normal 0.0 0.0 1.0
  outer loop
    vertex 280.8324871754113 43.34678606290953 103.68779786277193
    vertex 258.8324871754135 73.34678606291115 103.68779786277193
    vertex 258.8324871754113 43.34678606291115 103.68779786277193
  endloop
endfacet
facet normal 0.0 0.0 1.0
  outer loop
    vertex 258.8324871754135 73.34678606291115 103.68779786277193
    vertex 280.8324871754113 43.34678606290953 103.68779786277193
    vertex 270.90844906973604 62.596786062910255 103.68779786277197
  endloop
endfacet
facet normal 0.0 0.0 1.0
  outer loop
    vertex 258.8324871754135 73.34678606291115 103.68779786277193
    vertex 270.90844906973604 62.596786062910255 103.68779786277197
    vertex 270.75859843597914 62.958557495256485 103.68779786277197
  endloop
endfacet
facet normal 0.0 0.0 1.0
  outer loop
    vertex 258.8324871754135 73.34678606291115 103.68779786277193
    vertex 270.75859843597914 62.958557495256485 103.68779786277197
    vertex 270.7074871754128 63.34678606291026 103.68779786277197
  endloop
endfacet
facet normal 0.0 0.0 1.0
  outer loop
    vertex 270.90844906973604 62.596786062910255 103.68779786277197
    vertex 280.8324871754113 43.34678606290953 103.68779786277193
    vertex 271.1468270036329 62.2861258911304 103.68779786277197
  endloop
endfacet
facet normal 0.0 0.0 1.0
  outer loop
    vertex 271.1468270036329 62.2861258911304 103.68779786277197
    vertex 280.8324871754113 43.34678606290953 103.68779786277193
    vertex 271.4574871754126 62.04774795723358 103.68779786277197
  endloop
endfacet
facet normal 0.0 0.0 1.0
  outer loop
    vertex 271.4574871754126 62.04774795723358 103.68779786277197
    vertex 280.8324871754113 43.34678606290953 103.68779786277193
    vertex 271.81925860775885 61.897897323476585 103.68779786277197
  endloop
endfacet
facet normal 0.0 0.0 1.0
  outer loop
    vertex 271.81925860775885 61.897897323476585 103.68779786277197
    vertex 280.8324871754113 43.34678606290953 103.68779786277193
    vertex 272.2074871754126 61.84678606291014 103.68779786277197
  endloop
endfacet
facet normal 0.0 0.0 1.0
  outer loop
    vertex 272.2074871754126 61.84678606291014 103.68779786277197
    vertex 280.8324871754113 43.34678606290953 103.68779786277193
    vertex 272.5957157430664 61.89789732347653 103.68779786277197
  endloop
endfacet
facet normal 0.0 0.0 1.0
  outer loop
    vertex 272.5957157430664 61.89789732347653 103.68779786277197
    vertex 280.8324871754113 43.34678606290953 103.68779786277193
    vertex 272.9574871754126 62.047747957233454 103.68779786277197
  endloop
endfacet
facet normal 0.0 0.0 1.0
  outer loop
    vertex 272.9574871754126 62.047747957233454 103.68779786277197
    vertex 280.8324871754113 43.34678606290953 103.68779786277193
    vertex 273.26814734719255 62.28612589113026 103.68779786277197
  endloop
endfacet
facet normal 0.0 0.0 1.0
  outer loop
    vertex 273.26814734719255 62.28612589113026 103.68779786277197
    vertex 280.8324871754113 43.34678606290953 103.68779786277193
    vertex 273.50652528108935 62.59678606291006 103.68779786277197
  endloop
endfacet
facet normal 0.0 0.0 1.0
  outer loop
    vertex 273.50652528108935 62.59678606291006 103.68779786277197
    vertex 280.8324871754113 43.34678606290953 103.68779786277193
    vertex 273.6563759148463 62.95855749525627 103.68779786277197
  endloop
endfacet
facet normal 0.0 0.0 1.0
  outer loop
    vertex 273.6563759148463 62.95855749525627 103.68779786277197
    vertex 280.8324871754113 43.34678606290953 103.68779786277193
    vertex 273.7074871754127 63.34678606291005 103.68779786277197
  endloop
endfacet
facet normal 0.0 0.0 1.0
  outer loop
    vertex 258.8324871754135 73.34678606291115 103.68779786277193
    vertex 271.146827003633 64.40744623469006 103.68779786277197
    vertex 280.8324871754135 73.34678606290953 103.68779786277193
  endloop
endfacet
facet normal 0.0 0.0 1.0
  outer loop
    vertex 271.146827003633 64.40744623469006 103.68779786277197
    vertex 258.8324871754135 73.34678606291115 103.68779786277193
    vertex 270.9084490697362 64.09678606291025 103.68779786277197
  endloop
endfacet
facet normal 0.0 0.0 1.0
  outer loop
    vertex 270.9084490697362 64.09678606291025 103.68779786277197
    vertex 258.8324871754135 73.34678606291115 103.68779786277193
    vertex 270.7585984359792 63.735014630564045 103.68779786277197
  endloop
endfacet
facet normal 0.0 0.0 1.0
  outer loop
    vertex 270.7585984359792 63.735014630564045 103.68779786277197
    vertex 258.8324871754135 73.34678606291115 103.68779786277193
    vertex 270.7074871754128 63.34678606291026 103.68779786277197
  endloop
endfacet
facet normal 0.0 0.0 1.0
  outer loop
    vertex 280.8324871754135 73.34678606290953 103.68779786277193
    vertex 271.146827003633 64.40744623469006 103.68779786277197
    vertex 271.45748717541284 64.64582416858688 103.68779786277197
  endloop
endfacet
facet normal 0.0 0.0 1.0
  outer loop
    vertex 280.8324871754135 73.34678606290953 103.68779786277193
    vertex 271.45748717541284 64.64582416858688 103.68779786277197
    vertex 271.8192586077591 64.79567480234378 103.68779786277197
  endloop
endfacet
facet normal 0.0 0.0 1.0
  outer loop
    vertex 280.8324871754135 73.34678606290953 103.68779786277193
    vertex 271.8192586077591 64.79567480234378 103.68779786277197
    vertex 272.20748717541284 64.84678606291014 103.68779786277197
  endloop
endfacet
facet normal 0.0 0.0 1.0
  outer loop
    vertex 280.8324871754135 73.34678606290953 103.68779786277193
    vertex 272.20748717541284 64.84678606291014 103.68779786277197
    vertex 272.59571574306665 64.79567480234373 103.68779786277197
  endloop
endfacet
facet normal 0.0 0.0 1.0
  outer loop
    vertex 280.8324871754135 73.34678606290953 103.68779786277193
    vertex 272.59571574306665 64.79567480234373 103.68779786277197
    vertex 272.9574871754129 64.64582416858676 103.68779786277197
  endloop
endfacet
facet normal 0.0 0.0 1.0
  outer loop
    vertex 280.8324871754135 73.34678606290953 103.68779786277193
    vertex 272.9574871754129 64.64582416858676 103.68779786277197
    vertex 273.26814734719267 64.4074462346899 103.68779786277197
  endloop
endfacet
facet normal 0.0 0.0 1.0
  outer loop
    vertex 280.8324871754135 73.34678606290953 103.68779786277193
    vertex 273.26814734719267 64.4074462346899 103.68779786277197
    vertex 273.50652528108947 64.09678606291006 103.68779786277197
  endloop
endfacet
facet normal 0.0 0.0 1.0
  outer loop
    vertex 280.8324871754135 73.34678606290953 103.68779786277193
    vertex 273.50652528108947 64.09678606291006 103.68779786277197
    vertex 273.6563759148464 63.735014630563825 103.68779786277197
  endloop
endfacet
facet normal 0.0 0.0 1.0
  outer loop
    vertex 280.8324871754135 73.34678606290953 103.68779786277193
    vertex 273.6563759148464 63.735014630563825 103.68779786277197
    vertex 273.7074871754127 63.34678606291005 103.68779786277197
  endloop
endfacet
facet normal 0.0 0.0 1.0
  outer loop
    vertex 280.8324871754135 73.34678606290953 103.68779786277193
    vertex 273.7074871754127 63.34678606291005 103.68779786277197
    vertex 280.8324871754113 43.34678606290953 103.68779786277193
  endloop
endfacet
facet normal -1.0 7.382983113757291e-14 0.0
  outer loop
    vertex 258.8324871754135 73.34678606291115 103.68779786277193
    vertex 258.8324871754113 43.34678606291115 102.2377978627719
    vertex 258.8324871754113 43.34678606291115 103.68779786277193
  endloop
endfacet
facet normal -1.0 7.382983113757291e-14 0.0
  outer loop
    vertex 258.8324871754113 43.34678606291115 102.2377978627719
    vertex 258.8324871754135 73.34678606291115 103.68779786277193
    vertex 258.8324871754135 73.34678606291115 102.2377978627719
  endloop
endfacet
facet normal 0.7071067811865949 0.7071067811865003 0.0
  outer loop
    vertex 271.1468270036329 62.2861258911304 103.68779786277197
    vertex 271.4574871754126 62.04774795723358 98.6877978627719
    vertex 271.1468270036329 62.2861258911304 98.6877978627719
  endloop
endfacet
facet normal 0.5000000000000634 0.8660254037844021 0.0
  outer loop
    vertex 271.4574871754126 62.04774795723358 98.6877978627719
    vertex 271.1468270036329 62.2861258911304 103.68779786277197
    vertex 271.4574871754126 62.04774795723358 103.68779786277197
  endloop
endfacet
facet normal 0.8660254037844758 0.4999999999999357 0.0
  outer loop
    vertex 270.90844906973604 62.596786062910255 98.6877978627719
    vertex 271.1468270036329 62.2861258911304 103.68779786277197
    vertex 271.1468270036329 62.2861258911304 98.6877978627719
  endloop
endfacet
facet normal 0.7071067811865949 0.7071067811865003 0.0
  outer loop
    vertex 271.1468270036329 62.2861258911304 103.68779786277197
    vertex 270.90844906973604 62.596786062910255 98.6877978627719
    vertex 270.90844906973604 62.596786062910255 103.68779786277197
  endloop
endfacet
facet normal 0.9659258262890876 0.25881904510244824 0.0
  outer loop
    vertex 270.75859843597914 62.958557495256485 98.6877978627719
    vertex 270.90844906973604 62.596786062910255 103.68779786277197
    vertex 270.90844906973604 62.596786062910255 98.6877978627719
  endloop
endfacet
facet normal 0.8660254037844758 0.4999999999999357 0.0
  outer loop
    vertex 270.90844906973604 62.596786062910255 103.68779786277197
    vertex 270.75859843597914 62.958557495256485 98.6877978627719
    vertex 270.75859843597914 62.958557495256485 103.68779786277197
  endloop
endfacet
facet normal 1.0 -7.38196343755389e-14 0.0
  outer loop
    vertex 270.7074871754128 63.34678606291026 98.6877978627719
    vertex 270.75859843597914 62.958557495256485 103.68779786277197
    vertex 270.75859843597914 62.958557495256485 98.6877978627719
  endloop
endfacet
facet normal 0.9659258262890876 0.25881904510244824 0.0
  outer loop
    vertex 270.75859843597914 62.958557495256485 103.68779786277197
    vertex 270.7074871754128 63.34678606291026 98.6877978627719
    vertex 270.7074871754128 63.34678606291026 103.68779786277197
  endloop
endfacet
facet normal 0.9659258262890495 -0.2588190451025909 0.0
  outer loop
    vertex 270.7585984359792 63.735014630564045 98.6877978627719
    vertex 270.7074871754128 63.34678606291026 103.68779786277197
    vertex 270.7074871754128 63.34678606291026 98.6877978627719
  endloop
endfacet
facet normal 1.0 -7.38196343755389e-14 0.0
  outer loop
    vertex 270.7074871754128 63.34678606291026 103.68779786277197
    vertex 270.7585984359792 63.735014630564045 98.6877978627719
    vertex 270.7585984359792 63.735014630564045 103.68779786277197
  endloop
endfacet
facet normal 0.8660254037844018 -0.5000000000000636 0.0
  outer loop
    vertex 270.9084490697362 64.09678606291025 98.6877978627719
    vertex 270.7585984359792 63.735014630564045 103.68779786277197
    vertex 270.7585984359792 63.735014630564045 98.6877978627719
  endloop
endfacet
facet normal 0.9659258262890495 -0.2588190451025909 0.0
  outer loop
    vertex 270.7585984359792 63.735014630564045 103.68779786277197
    vertex 270.9084490697362 64.09678606291025 98.6877978627719
    vertex 270.9084490697362 64.09678606291025 103.68779786277197
  endloop
endfacet
facet normal 0.7071067811864902 -0.7071067811866049 0.0
  outer loop
    vertex 271.146827003633 64.40744623469006 98.6877978627719
    vertex 270.9084490697362 64.09678606291025 103.68779786277197
    vertex 270.9084490697362 64.09678606291025 98.6877978627719
  endloop
endfacet
facet normal 0.8660254037844018 -0.5000000000000636 0.0
  outer loop
    vertex 270.9084490697362 64.09678606291025 103.68779786277197
    vertex 271.146827003633 64.40744623469006 98.6877978627719
    vertex 271.146827003633 64.40744623469006 103.68779786277197
  endloop
endfacet
facet normal 0.4999999999999352 -0.8660254037844759 0.0
  outer loop
    vertex 271.45748717541284 64.64582416858688 103.68779786277197
    vertex 271.146827003633 64.40744623469006 98.6877978627719
    vertex 271.45748717541284 64.64582416858688 98.6877978627719
  endloop
endfacet
facet normal 0.7071067811864902 -0.7071067811866049 0.0
  outer loop
    vertex 271.146827003633 64.40744623469006 98.6877978627719
    vertex 271.45748717541284 64.64582416858688 103.68779786277197
    vertex 271.146827003633 64.40744623469006 103.68779786277197
  endloop
endfacet
facet normal 0.2588190451024547 -0.9659258262890861 0.0
  outer loop
    vertex 271.8192586077591 64.79567480234378 103.68779786277197
    vertex 271.45748717541284 64.64582416858688 98.6877978627719
    vertex 271.8192586077591 64.79567480234378 98.6877978627719
  endloop
endfacet
facet normal 0.4999999999999352 -0.8660254037844759 0.0
  outer loop
    vertex 271.45748717541284 64.64582416858688 98.6877978627719
    vertex 271.8192586077591 64.79567480234378 103.68779786277197
    vertex 271.45748717541284 64.64582416858688 103.68779786277197
  endloop
endfacet
facet normal -7.288396783649596e-14 -1.0 0.0
  outer loop
    vertex 272.20748717541284 64.84678606291014 103.68779786277197
    vertex 271.8192586077591 64.79567480234378 98.6877978627719
    vertex 272.20748717541284 64.84678606291014 98.6877978627719
  endloop
endfacet
facet normal 0.2588190451024547 -0.9659258262890861 0.0
  outer loop
    vertex 271.8192586077591 64.79567480234378 98.6877978627719
    vertex 272.20748717541284 64.84678606291014 103.68779786277197
    vertex 271.8192586077591 64.79567480234378 103.68779786277197
  endloop
endfacet
facet normal -0.25881904510259907 -0.9659258262890473 0.0
  outer loop
    vertex 272.59571574306665 64.79567480234373 103.68779786277197
    vertex 272.20748717541284 64.84678606291014 98.6877978627719
    vertex 272.59571574306665 64.79567480234373 98.6877978627719
  endloop
endfacet
facet normal -7.288396783649596e-14 -1.0 0.0
  outer loop
    vertex 272.20748717541284 64.84678606291014 98.6877978627719
    vertex 272.59571574306665 64.79567480234373 103.68779786277197
    vertex 272.20748717541284 64.84678606291014 103.68779786277197
  endloop
endfacet
facet normal -0.5000000000000657 -0.8660254037844007 0.0
  outer loop
    vertex 272.9574871754129 64.64582416858676 103.68779786277197
    vertex 272.59571574306665 64.79567480234373 98.6877978627719
    vertex 272.9574871754129 64.64582416858676 98.6877978627719
  endloop
endfacet
facet normal -0.25881904510259907 -0.9659258262890473 0.0
  outer loop
    vertex 272.59571574306665 64.79567480234373 98.6877978627719
    vertex 272.9574871754129 64.64582416858676 103.68779786277197
    vertex 272.59571574306665 64.79567480234373 103.68779786277197
  endloop
endfacet
facet normal -0.7071067811865949 -0.7071067811865003 0.0
  outer loop
    vertex 273.26814734719267 64.4074462346899 103.68779786277197
    vertex 272.9574871754129 64.64582416858676 98.6877978627719
    vertex 273.26814734719267 64.4074462346899 98.6877978627719
  endloop
endfacet
facet normal -0.5000000000000657 -0.8660254037844007 0.0
  outer loop
    vertex 272.9574871754129 64.64582416858676 98.6877978627719
    vertex 273.26814734719267 64.4074462346899 103.68779786277197
    vertex 272.9574871754129 64.64582416858676 103.68779786277197
  endloop
endfacet
facet normal -0.7071067811865949 -0.7071067811865003 0.0
  outer loop
    vertex 273.26814734719267 64.4074462346899 103.68779786277197
    vertex 273.50652528108947 64.09678606291006 98.6877978627719
    vertex 273.50652528108947 64.09678606291006 103.68779786277197
  endloop
endfacet
facet normal -0.8660254037844758 -0.4999999999999357 0.0
  outer loop
    vertex 273.50652528108947 64.09678606291006 98.6877978627719
    vertex 273.26814734719267 64.4074462346899 103.68779786277197
    vertex 273.26814734719267 64.4074462346899 98.6877978627719
  endloop
endfacet
facet normal -0.8660254037844758 -0.4999999999999357 0.0
  outer loop
    vertex 273.50652528108947 64.09678606291006 103.68779786277197
    vertex 273.6563759148464 63.735014630563825 98.6877978627719
    vertex 273.6563759148464 63.735014630563825 103.68779786277197
  endloop
endfacet
facet normal -0.9659258262890876 -0.25881904510244824 0.0
  outer loop
    vertex 273.6563759148464 63.735014630563825 98.6877978627719
    vertex 273.50652528108947 64.09678606291006 103.68779786277197
    vertex 273.50652528108947 64.09678606291006 98.6877978627719
  endloop
endfacet
facet normal -0.9659258262890876 -0.25881904510244824 0.0
  outer loop
    vertex 273.6563759148464 63.735014630563825 103.68779786277197
    vertex 273.7074871754127 63.34678606291005 98.6877978627719
    vertex 273.7074871754127 63.34678606291005 103.68779786277197
  endloop
endfacet
facet normal -1.0 8.093961118216085e-14 0.0
  outer loop
    vertex 273.7074871754127 63.34678606291005 98.6877978627719
    vertex 273.6563759148464 63.735014630563825 103.68779786277197
    vertex 273.6563759148464 63.735014630563825 98.6877978627719
  endloop
endfacet
facet normal -1.0 8.093961118216085e-14 0.0
  outer loop
    vertex 273.7074871754127 63.34678606291005 103.68779786277197
    vertex 273.6563759148463 62.95855749525627 98.6877978627719
    vertex 273.6563759148463 62.95855749525627 103.68779786277197
  endloop
endfacet
facet normal -0.9659258262890494 0.2588190451025913 0.0
  outer loop
    vertex 273.6563759148463 62.95855749525627 98.6877978627719
    vertex 273.7074871754127 63.34678606291005 103.68779786277197
    vertex 273.7074871754127 63.34678606291005 98.6877978627719
  endloop
endfacet
facet normal -0.9659258262890494 0.2588190451025913 0.0
  outer loop
    vertex 273.6563759148463 62.95855749525627 103.68779786277197
    vertex 273.50652528108935 62.59678606291006 98.6877978627719
    vertex 273.50652528108935 62.59678606291006 103.68779786277197
  endloop
endfacet
facet normal -0.8660254037844052 0.5000000000000578 0.0
  outer loop
    vertex 273.50652528108935 62.59678606291006 98.6877978627719
    vertex 273.6563759148463 62.95855749525627 103.68779786277197
    vertex 273.6563759148463 62.95855749525627 98.6877978627719
  endloop
endfacet
facet normal -0.8660254037844052 0.5000000000000578 0.0
  outer loop
    vertex 273.50652528108935 62.59678606291006 103.68779786277197
    vertex 273.26814734719255 62.28612589113026 98.6877978627719
    vertex 273.26814734719255 62.28612589113026 103.68779786277197
  endloop
endfacet
facet normal -0.7071067811864902 0.7071067811866049 0.0
  outer loop
    vertex 273.26814734719255 62.28612589113026 98.6877978627719
    vertex 273.50652528108935 62.59678606291006 103.68779786277197
    vertex 273.50652528108935 62.59678606291006 98.6877978627719
  endloop
endfacet
facet normal -0.4999999999999352 0.8660254037844759 0.0
  outer loop
    vertex 272.9574871754126 62.047747957233454 103.68779786277197
    vertex 273.26814734719255 62.28612589113026 98.6877978627719
    vertex 272.9574871754126 62.047747957233454 98.6877978627719
  endloop
endfacet
facet normal -0.7071067811864902 0.7071067811866049 0.0
  outer loop
    vertex 273.26814734719255 62.28612589113026 98.6877978627719
    vertex 272.9574871754126 62.047747957233454 103.68779786277197
    vertex 273.26814734719255 62.28612589113026 103.68779786277197
  endloop
endfacet
facet normal -0.2588190451024547 0.9659258262890861 0.0
  outer loop
    vertex 272.5957157430664 61.89789732347653 103.68779786277197
    vertex 272.9574871754126 62.047747957233454 98.6877978627719
    vertex 272.5957157430664 61.89789732347653 98.6877978627719
  endloop
endfacet
facet normal -0.4999999999999352 0.8660254037844759 0.0
  outer loop
    vertex 272.9574871754126 62.047747957233454 98.6877978627719
    vertex 272.5957157430664 61.89789732347653 103.68779786277197
    vertex 272.9574871754126 62.047747957233454 103.68779786277197
  endloop
endfacet
facet normal 7.38196343755389e-14 1.0 0.0
  outer loop
    vertex 272.2074871754126 61.84678606291014 103.68779786277197
    vertex 272.5957157430664 61.89789732347653 98.6877978627719
    vertex 272.2074871754126 61.84678606291014 98.6877978627719
  endloop
endfacet
facet normal -0.2588190451024547 0.9659258262890861 0.0
  outer loop
    vertex 272.5957157430664 61.89789732347653 98.6877978627719
    vertex 272.2074871754126 61.84678606291014 103.68779786277197
    vertex 272.5957157430664 61.89789732347653 103.68779786277197
  endloop
endfacet
facet normal 0.2588190451025973 0.9659258262890478 0.0
  outer loop
    vertex 271.81925860775885 61.897897323476585 103.68779786277197
    vertex 272.2074871754126 61.84678606291014 98.6877978627719
    vertex 271.81925860775885 61.897897323476585 98.6877978627719
  endloop
endfacet
facet normal 7.38196343755389e-14 1.0 0.0
  outer loop
    vertex 272.2074871754126 61.84678606291014 98.6877978627719
    vertex 271.81925860775885 61.897897323476585 103.68779786277197
    vertex 272.2074871754126 61.84678606291014 103.68779786277197
  endloop
endfacet
facet normal 0.5000000000000634 0.8660254037844021 0.0
  outer loop
    vertex 271.4574871754126 62.04774795723358 103.68779786277197
    vertex 271.81925860775885 61.897897323476585 98.6877978627719
    vertex 271.4574871754126 62.04774795723358 98.6877978627719
  endloop
endfacet
facet normal 0.2588190451025973 0.9659258262890478 0.0
  outer loop
    vertex 271.81925860775885 61.897897323476585 98.6877978627719
    vertex 271.4574871754126 62.04774795723358 103.68779786277197
    vertex 271.81925860775885 61.897897323476585 103.68779786277197
  endloop
endfacet
facet normal 7.383184972489045e-14 1.0 0.0
  outer loop
    vertex 280.8324871754116 46.84678606290952 98.6877978627719
    vertex 264.3324871754116 46.846786062910745 82.1877978627719
    vertex 264.3324871754116 46.846786062910745 98.6877978627719
  endloop
endfacet
facet normal 0.7071067811865476 -5.465337242635095e-14 -0.7071067811865476
  outer loop
    vertex 264.3324871754113 43.346786062910745 82.1877978627719
    vertex 280.8324871754116 46.84678606290952 98.6877978627719
    vertex 280.8324871754113 43.34678606290953 98.6877978627719
  endloop
endfacet
facet normal 0.7071067811865476 -5.465337242635095e-14 -0.7071067811865476
  outer loop
    vertex 280.8324871754116 46.84678606290952 98.6877978627719
    vertex 264.3324871754113 43.346786062910745 82.1877978627719
    vertex 264.3324871754116 46.846786062910745 82.1877978627719
  endloop
endfacet
endsolid SAV_SMARTCUBE55
